<mxfile host="app.diagrams.net" modified="2022-04-28T13:03:44.193Z" agent="5.0 (Windows NT 10.0; Win64; x64) AppleWebKit/537.36 (KHTML, like Gecko) Chrome/100.0.4896.127 Safari/537.36" etag="lR_CSWf8XnvifzYWqmWK" version="17.4.4" type="github">
  <diagram id="blxEe3im-16EYs6U-wVd" name="Page-1">
    <mxGraphModel dx="2595" dy="1243" grid="1" gridSize="10" guides="1" tooltips="1" connect="1" arrows="1" fold="1" page="1" pageScale="1" pageWidth="1700" pageHeight="1100" math="0" shadow="0">
      <root>
        <mxCell id="0" />
        <mxCell id="1" parent="0" />
        <mxCell id="4ohFSgvwRZ63tA1tGF-L-1" value="" style="shape=curlyBracket;whiteSpace=wrap;html=1;rounded=1;flipH=1;fontColor=none;strokeColor=default;size=0.5;rotation=90;" vertex="1" parent="1">
          <mxGeometry x="706.76" y="506.8" width="20" height="302.13" as="geometry" />
        </mxCell>
        <mxCell id="4ohFSgvwRZ63tA1tGF-L-2" value="Amazon Athena" style="rounded=0;whiteSpace=wrap;html=1;fontColor=none;strokeColor=none;fontSize=16;fillColor=none;fontStyle=1" vertex="1" parent="1">
          <mxGeometry x="1042.21" y="777.21" width="250" height="30" as="geometry" />
        </mxCell>
        <mxCell id="4ohFSgvwRZ63tA1tGF-L-3" value="" style="rounded=0;whiteSpace=wrap;html=1;fontSize=16;fillColor=none;dashed=1;" vertex="1" parent="1">
          <mxGeometry x="329.96000000000004" y="310" width="1110" height="142.5" as="geometry" />
        </mxCell>
        <mxCell id="4ohFSgvwRZ63tA1tGF-L-4" value="" style="rounded=0;orthogonalLoop=1;jettySize=auto;html=1;fontColor=none;entryX=0;entryY=0.5;entryDx=0;entryDy=0;exitX=1;exitY=0.5;exitDx=0;exitDy=0;fontSize=16;edgeStyle=orthogonalEdgeStyle;" edge="1" parent="1" source="4ohFSgvwRZ63tA1tGF-L-27" target="4ohFSgvwRZ63tA1tGF-L-17">
          <mxGeometry relative="1" as="geometry">
            <mxPoint x="1339.96" y="530.0000000000002" as="sourcePoint" />
            <mxPoint x="949.96" y="549.75" as="targetPoint" />
          </mxGeometry>
        </mxCell>
        <mxCell id="4ohFSgvwRZ63tA1tGF-L-5" value="" style="shape=curlyBracket;whiteSpace=wrap;html=1;rounded=1;flipH=1;fontColor=none;strokeColor=default;size=0.5;rotation=90;" vertex="1" parent="1">
          <mxGeometry x="386.09000000000003" y="516.5899999999999" width="20" height="282" as="geometry" />
        </mxCell>
        <mxCell id="4ohFSgvwRZ63tA1tGF-L-6" value="Data Extraction" style="rounded=0;whiteSpace=wrap;html=1;fontColor=none;strokeColor=none;fontSize=22;" vertex="1" parent="1">
          <mxGeometry x="306.09000000000003" y="680" width="180" height="30" as="geometry" />
        </mxCell>
        <mxCell id="4ohFSgvwRZ63tA1tGF-L-7" value="ML Pipeline" style="rounded=0;whiteSpace=wrap;html=1;fontColor=none;strokeColor=none;fontSize=22;" vertex="1" parent="1">
          <mxGeometry x="591.7600000000001" y="680" width="250" height="30" as="geometry" />
        </mxCell>
        <mxCell id="4ohFSgvwRZ63tA1tGF-L-8" value="" style="shape=curlyBracket;whiteSpace=wrap;html=1;rounded=1;flipH=1;fontColor=none;strokeColor=default;size=0.5;rotation=90;" vertex="1" parent="1">
          <mxGeometry x="1144.71" y="545" width="20" height="562.25" as="geometry" />
        </mxCell>
        <mxCell id="4ohFSgvwRZ63tA1tGF-L-9" value="Visualisation" style="rounded=0;whiteSpace=wrap;html=1;fontColor=none;strokeColor=none;fontSize=22;" vertex="1" parent="1">
          <mxGeometry x="1084.71" y="850" width="140" height="30" as="geometry" />
        </mxCell>
        <mxCell id="4ohFSgvwRZ63tA1tGF-L-10" value="" style="rounded=0;whiteSpace=wrap;html=1;fontSize=16;fillColor=none;" vertex="1" parent="1">
          <mxGeometry x="919.96" y="490" width="347.25" height="138" as="geometry" />
        </mxCell>
        <mxCell id="4ohFSgvwRZ63tA1tGF-L-11" value="" style="rounded=0;orthogonalLoop=1;jettySize=auto;html=1;fontColor=none;entryX=1;entryY=0.5;entryDx=0;entryDy=0;exitX=0;exitY=0.5;exitDx=0;exitDy=0;fontSize=16;" edge="1" parent="1" source="4ohFSgvwRZ63tA1tGF-L-22" target="4ohFSgvwRZ63tA1tGF-L-17">
          <mxGeometry relative="1" as="geometry">
            <mxPoint x="1117.21" y="718.8250000000002" as="sourcePoint" />
            <mxPoint x="1029.96" y="718.82" as="targetPoint" />
          </mxGeometry>
        </mxCell>
        <mxCell id="4ohFSgvwRZ63tA1tGF-L-12" value="AWS Glue" style="rounded=0;whiteSpace=wrap;html=1;fontColor=none;strokeColor=none;fontSize=16;fillColor=none;fontStyle=1" vertex="1" parent="1">
          <mxGeometry x="968.5899999999999" y="460" width="250" height="30" as="geometry" />
        </mxCell>
        <mxCell id="4ohFSgvwRZ63tA1tGF-L-13" value="" style="rounded=0;orthogonalLoop=1;jettySize=auto;html=1;fontColor=none;entryX=1;entryY=0.5;entryDx=0;entryDy=0;exitX=0;exitY=0.5;exitDx=0;exitDy=0;fontSize=16;edgeStyle=orthogonalEdgeStyle;" edge="1" parent="1" source="4ohFSgvwRZ63tA1tGF-L-25" target="4ohFSgvwRZ63tA1tGF-L-22">
          <mxGeometry relative="1" as="geometry">
            <mxPoint x="1299.96" y="718.9500000000002" as="sourcePoint" />
            <mxPoint x="1217.21" y="718.8250000000002" as="targetPoint" />
            <Array as="points">
              <mxPoint x="1299.96" y="563" />
              <mxPoint x="1299.96" y="720" />
            </Array>
          </mxGeometry>
        </mxCell>
        <mxCell id="4ohFSgvwRZ63tA1tGF-L-14" value="" style="rounded=0;orthogonalLoop=1;jettySize=auto;html=1;fontColor=none;entryX=0.5;entryY=0;entryDx=0;entryDy=0;exitX=0.5;exitY=1;exitDx=0;exitDy=0;fontSize=16;" edge="1" parent="1" source="4ohFSgvwRZ63tA1tGF-L-18" target="4ohFSgvwRZ63tA1tGF-L-17">
          <mxGeometry relative="1" as="geometry">
            <mxPoint x="994.96" y="584.07" as="sourcePoint" />
            <mxPoint x="994.96" y="678.82" as="targetPoint" />
          </mxGeometry>
        </mxCell>
        <mxCell id="4ohFSgvwRZ63tA1tGF-L-15" value="" style="rounded=0;orthogonalLoop=1;jettySize=auto;html=1;fontColor=none;entryX=0;entryY=0.5;entryDx=0;entryDy=0;exitX=1;exitY=0.5;exitDx=0;exitDy=0;fontSize=16;" edge="1" parent="1" source="4ohFSgvwRZ63tA1tGF-L-18" target="4ohFSgvwRZ63tA1tGF-L-19">
          <mxGeometry relative="1" as="geometry">
            <mxPoint x="1054.96" y="575.5" as="sourcePoint" />
            <mxPoint x="1107.21" y="575.5" as="targetPoint" />
          </mxGeometry>
        </mxCell>
        <mxCell id="4ohFSgvwRZ63tA1tGF-L-16" value="" style="rounded=0;orthogonalLoop=1;jettySize=auto;html=1;fontColor=none;entryX=0.5;entryY=1;entryDx=0;entryDy=0;exitX=0.5;exitY=0;exitDx=0;exitDy=0;fontSize=16;dashed=1;" edge="1" parent="1" source="4ohFSgvwRZ63tA1tGF-L-22" target="4ohFSgvwRZ63tA1tGF-L-19">
          <mxGeometry relative="1" as="geometry">
            <mxPoint x="1167.21" y="668.7000000000002" as="sourcePoint" />
            <mxPoint x="1167.21" y="584.07" as="targetPoint" />
          </mxGeometry>
        </mxCell>
        <mxCell id="4ohFSgvwRZ63tA1tGF-L-17" value="" style="shape=image;verticalLabelPosition=bottom;labelBackgroundColor=default;verticalAlign=top;aspect=fixed;imageAspect=0;image=data:image/png,iVBORw0KGgoAAAANSUhEUgAAAH0AAAB9CAYAAACPgGwlAAAAAXNSR0IArs4c6QAAAARnQU1BAACxjwv8YQUAAAAJcEhZcwAAFxEAABcRAcom8z8AAC5iSURBVHhe3Z13fFTV1vfnn/fzPu/zXAtIrwkJECAJnYQqvdcgiqgoIiBNQERK6IQqBEiAEHqX3lQUVBCFi8IVkCLSEVBQugJ6bb93rX32ObPnzDkz58xMkOduP+uTIRkwZ777t/ZaazdPgyml0HBKaTR8S7NGuk2NQ2PdpsWhibAywpqme63Z9LKGNWeboVmLGeXQYqZmLXXLiEcr3TLj0VpYgmazEtBGt9kJaDs70bB2c3Qrj5Qsr7Vnm8tWAU+xZWvWgW1eRWFP6za/Ip6ZX0mzBZXQ0bDK6LiwMp7VbVFldBJWBc+xLfba80uqGvYC21K2aujMtkyzF3VbnoSXdFuRhC7CkoW9vNJrXVdVN+wVtrc16/Z2DXRbrVl33dbUFNaDbW1NvKrbulrCeuq2vhZ6ra+t2Yba6G1YHfTZWAcCuh14A7oZvAJdA++Fr0O3BJ8RADzBVsG3VcB7oVuAF9DDB29AJ9Og+4N/ns0peIJtC16B/vIqE3gJ3RL8GjvwGnQVvAGdzAtdA+9pMFmDbgfeVvGhghfwbcCHpfgKOad4Cd2Ar4IX0G3AS/g5rXgNvj94O8Vr0C3AG9DJ/jbFC+jWilehC/BS7f7gNeg5pXihdgV+jiheQg9F8T0tFO+pT8DZgoEPSfEKfFfgw1K8Bt9P8RJ+WIo3qd5H8QZ4C8U7BU/mA16B73yMJ+gSvhV4VrwvdAvwjlw9mWPwEr6lqyfTwHtV7xp8RMZ4MgW8qnizuw+oeAnf0tWT2bl6VfV24L2qd6p4r6v31J9UUkAPBD5sxUvorhVPsFXwjoM7A74ZPEF3oXhD7SbwAV29hB5RxUvoloq3cPX2Y7yEXo+gs+ngDfg5rXgVvICvgCd7GF29E8Wb4fuBl/AtwYeqeFdjfC0FugPFq+AN6GbwCnQ/8A9a8RJ6eK7eveJ9wT98ivfUm6hBNyveCfhQXL0KP6jiVfAmxavggys+sumcHficUrwKXoUfKnhPXYaugHc7xtsqPpCrj4TiCbrq6oMrXoPvN8a7AB+S4iX0h6mAQ9BjYQl+UgTGeAW6K/ACvg14k+IfmnROQjfg69B1CwV8AMWHU8CR0G3Aq9CDgFcVr0HPWcWr0O0Ur0IX4P+mMd4X/N9QwDGga+A9T04g4GwRAP+wpHPBFR9+5S4kxUfC1ZOp4FX4ThUvoAvwNooX8CV4A34o4AMpXoEvwEv4lq6eLEddvWPwZAp4VfFm+Dp4M/ygwR2Znau3U70KXsC3GOMN6E4VbwfegE5mQHcDPkKKdxzcCfB/UzqXA4rXoVsq3gTeU2e8F7oA70DxYbl6N4pXwQv4NuD/VsWHW8CxAC/hW4IPoHinwR1Bj4FT8BFL5xTofuBdKr5VZjl6Td+nry0y6O/NjEOzGaXQdGYsms6IRZPpMWgyo4SwxjOixdemM2OENaP3NM8oiRazSqHVrDjqLGXRLiseKXMTqROU1zqAQ/DhKT6M4I7MreIldOfgVcUb8COseBW+Dr75zLJoOp060rRYNJgajbpTiuLJyUXQYFoUgY2l95RBu9kV8dyCWnhlSWP0WtkK/dd0wKB1nTB0w4tI3dQFIzZ3xYgtXTGcvqZu7oIhG1/AG+s6ot/qdui5sgVeXlofnRYkCeht5pSljlAKzTKok2REo+WskvS9MvSzeOoIFVwp/kEXcIIp3lPbgK6ZE/DhpHOBFa8Bb0odoEl6adR/Kxp1CGydSQSXXrebXQldFjXE4PWdkb5jGFbsy8C2I2vwxbldOHn1CL67dQHX7/6An3+9g3///gv+/OtPOGm//fFv3Pv3z7h17zqu3rmE89e/weFL+/DJya3Y8OV8zPtsPMa/34c6UVu8tKQ2UrLjyTvEUkeIReus0nhqXgJ1gop+ireblvVL5wzFE/BQFe8infPUTosBm1vFu3X1wdK5xtNKo97kKNSaWIggFyWFJ6D70haY+N4ArD0wHwfO78alm+fwK8H8u9qff/2B6z9fxbHvDuDDr9dh7qdjyWN0xktLa6Pd3DLUEUqgTVYcOswvbw1eQjfgRwJ8AMWr8FXFG9ADgjfgl9TgS/ACvgRvwA+geBU8Q280tRQBLo4a4wvS+2Lx8qImmPrBEGw/tgEXb5wltf4qP27n7S9S9y+/3cdPv9zGjbs/4sefvscVUu93ty+QJzgv7QKu3L6IH376jjzDVdy5fxP3Sem///m7/FfctRvkXQ5c2IUVX0xH6pYXSNXV0GoODQfkBZ6mDqC6ejN8HbwZvgAv4Vu6erJQgztPrbQSBnSn4MNx9Qy+3uQSqJ5WEPWmlED3JS2x8NNpOHb5S0eQfyNXzBCPXNqPXSfexTryAlm70jDhvf40dr+E/m93QI/lLWgYaIBO82vh6ewkitIr0dBQHm0pgm9LX1PmUJRO3+s4rxqeX1ATLy+pT2N6cwxY8xSGbuqMCdv6YvYno7D6wBx89PVGHLy4BxdvnsH93+7K3yJwu0Tv3XZsFcZte5VceRJ1gFgaEsqS6itp0HPa1ZNZqV0H76k1rgR8wBvQLcDbuHpV8YHA15lQDElj86NdZlVM+yAVh77dF1Bdv5Jiz/14Eh8e34x5uydh+KZu5A0aI2V2FRHUPSmDOQ7q6r1VDPWnRqHhNIrS0zlyL0lRfGkKAMntZpShqJ8Cs0wOzspSikcRvzD+M/0sMw4tMum9GRz1a9F+05kU6c8sQRYtIvuOC6rileUNyZ2/iKzdY/Du0ZU4ceUQbt+/IX9b63b51llsODgfr69PQbvsOLSdW1q4/YgFd2RuFa9BjwB4O8Uz9DoTopA0Lj86za2Ltz/PxrWfrsqPxLf99ddfBPkbvHN4FdLe6Y8uCxtTYFeGwBZDzQmF6GtRitwZKgGl7/tU7nKigCNyeO11uznxInpvMauk6BDNM2NFetdtWQOMfbcH1n45l8b6/bYxB3uxvWe3Y/S7LyNlHqWG2WV8XP2DVLynpg7dDJ7MC95ZVG9WfP1Jsag6Jh/azKyClfuy8PMvd+RH4NtOXjmCxXtmoNeydmiWXpbG+EIU0BUWgV1jGvfVyP5hKeBoRkNGFv0/qSM0yywh0rk+b7cQnuDAhU9sh4P9F3Zi6OZnKfIvhacXlCfgVYMo3gK8hG8J3qR4H/BkAroteAW6G8U3mFwatUndyWMLYtzW/hQ0XZaP6203717Dpi+Xoe+KDuT6SyF5XAHUnliUXpfUInsZ1XvTOQW8hG4JPsRJGieKD1a50zoB/U6zYiiIK4Peq1tg6edTce76CfnU3vb7n79hy1eLxZifQqq3UnxQ8ATbkeJN6Zyn5tho1BwbALyP4oOD53n4GuOKCPhbD62Wj+ht39+6iKydE5EyK4lA50fN8ZyDlwyYzrkGL+DbgA9L8c5r9fy1HXWA5pTGcfFmyo7+OEru39zOXDuGAevbUScpZYD3U3wgVy/hu1G8p4aATkawDfAEPVTF10wrRmN5HL44u1s+ltY4hcreNRktppcXLr/ORAq6lKjegB4p8E4VL6BbK16FLsBLtfuD16Cbwesl26fmlUfL2bFonx0v4JuVf+v+NXL3nSjXL224er8xXoEfruIFdAN8qIqX8OtMiEF1UvlHx7fKx9Ha3tMf4dmsuqgyKq8GmyN6GdUbqRxbKOAV+K7Ah6V4Db6f4oOswHl6fgWCH4NnF1TBuoPZoqagt+t3r+DVVY3QYX6CveIN8BaKdwqezFNjjAY9bPAEveroAhi6rrt8DK2t2peNGmlFyZUX9onq2ezyeEvwZI7BS/iWrp5MA+9VvWvwDsd4K/Ds6p/KTiC3H43J2/uJ8q/ePv5mo6jscSHHCryl4iV8S1dPZuXqPdUZuhk8wbYFb0D3B1+ZlLz96Cb5CKD8eisqj85LfydKi+Z16Bbgw1a8hO5a8QRbBe84uDPgm8ETdAdr7rhW3ySjGDJ3DZefFrn5e9fQZVktiugr5GgBh6BHwRJ8IMXbgK80Mh92HN0sHwGYuWMM4lMfEbDVdM6An9OKV8EL+Ap4sr/T1TN4LtP2fru5/LQoo7n3I7our0PQE92XbFXwEr4leDIJ3QY8wXYDnqEv3D1dPgLw9XeHhdvncb4er65VwNspXgVvQDeDV6D7gX/QipfQ3bp6npRpmlkcmw4tkJ8WcOqHrzQvQEoPNjvnC96d4j3VRxNwtggovtLIvBi3ZYB8BK19fPwd6hAxNN7nN/J4N+BDcfUq/KCKV8GbFB/+Yksr8JVo3C4nijnZn40TM3d6++fZ7UL9HRdyjV6ZnYuw4j3JPtAleAndreIrj8yPvss7ykfwtq8uHsDLC1rQmJ9Hqj42KHgDOpmt4gO5+kgonqCrrj644jX4fmO8BJ+SFY+mGVHovLgGth1dJT8db9t8eBFazok1pmXtwPspXkJ3qngB3QBvwCfgbhRPxtCTRhfGs3Pq4/5v9+RjeBvXntd+sRAd5zyJKqPzodqYAnhyYglf+BFWfEDwAr4NeJPiwxnj289NRKtZpcXqm+cWJmPep2lioYZVy/50rJiSzekNFZ7kURp0X8VHB1c8QTcrvsbYYmg0OR4/3PlePoZ/u//vu9h2ZD36rXxWuHruAEnjCskOUDIgeFXxGvScVbwK3U7xKnQdfLusBLQk0E1mRKPV7Dj0Xd0aq/fPxpU7F+Wn4G08yaS3se91R5s5pWhcV6CTOVG8L/jABRxP0qjiSLIEr8F3o/ia46KEHbt8UDzEX/TfhgNLceD8HvFnczt99Wss3ZOJPsufRpOp8UgaW5A8QD7UGF8ET04qocE3gX9Y0jkvfO4Q8WJqlqdkG02PEt/r83ZrUvUEHL70T7EGwNx48cZGCuJ4aRc3fs+AdSkiT+dgzrzmLpIrcCT04hCKl/BDdfX8usqogvjwmLcil7kjDeWH58aEdwbh1NXj8rv+7fLNC/jgyAa8tW0YXlnUCs3TE1EjrYjoCEljC4gafd1J0eQNYqkTlLIGH0jxCnwBXsK3dPVkZlfPf+b59xaZcWg2syQapkeRFRegGX6PFc0w8f1+2HJ4mVivZ7cg5M4vNwn2QnRamIT+a9sZVTnuBF2W1kH77AQJXZoCXlW8Gb4O3gzfKrgzoBvgCbYjxRNgK/CJqbmxfG+WeBBu275aT9/LhYoj8qDexFIYvr4n9pz6EL/+Fnit2+Wb57HvzC76t2Zj/NbX0Wt5ezw1K5k8QlkaCuh3HFdAWI20Qqg5oTBqT+QFlMVRdzJ1jLdi0OAt6hxTS1KnKEVegDoFWdPpBIxM+8odgl/TeJtO75lO700viUbTYujvRaPB1Ciy4mJxRt23iqLx9Bih9o7zktFnVRukvdsHi/dOxe6T7+HctRNB1+6d+uEIFu2dgq7L6lOniUbD6UUw/eMh8qfAmR+PUwyQSAFfBSOP1xVvqN0EPtTgzlNtZHGw2YI34FuAt1B8+dQnSK2p8lGAf53fS+8vTmM+/zxKpHXVxhREp6z6mLljLPaf+8x2nl1tPPbxpA2vpPmcOsO7h9dg6d4MpG8fjhEbe6D/qo7osbQVOs9viI5ZtdB+djW0zqggVN5UQOehgaBOjaXXpQR4VnubTIqws6qh07xaeGlRA7y6vBVeX/0MRmzqhmk7hmDxnmnYengF9pzeLhR88+6Plu7a3DgVO3ftG7GadsjG52m8TxSrcFrPKSMCvOYZMXh7/yz5bi1daz0nTqR1agFHBx/JDRV+0MNVfMUR+fD6qhflowAXb5xDg0ll6D1RRuWOI/3ksYWpA3AKVxQdZtXCqE19sOnL5aKgc+9Xbz3aTeMlz3fp7/Jc/Q93vhPe4vy1Uzj74wmc+eFrGl6OEbijOP3DcfG9c9dO4hL9flfvXBaLKLlT/f7Hb/Jfc9e4I3x3+wJ2n3oPc3ePQ/817UVg13hGFAHmVTYJPlF904wS2PmNt3q56dAiNM+MsazcRUbxXldP0IsJ6JFSfJWRBfFcVkNjzTlDaDszGcljyP1aTNJw4YbBVxmdX0Ty/L1nZtfG4LVdMXfXZDFjd+L7rwSUh6Xd/fUnXLh+CvvPf4K1/5qHt7YPIpffFh3mVhZjPI/1vHOm7Zx4n6heL+Cw6nkzxRFlfj3703FiY4W5cudU8W4KOJ6qIxi6F7xjxUvoZsVXG10ELaZVxvWfNUjslrsvaoeqowoYRRwzeM205dWcuvGcfDXqBFXH5BeBHBdzUjKT0XVRCwxb3x0ZH47F6s/nYfuxTZQZfCZUfJWUffveDZES/haCWv/483exEJPVzmvbv71xBkcu78enp97H1kMrsGjPVEx5fyAGrumILosbUvBWkcZ5DXADMg7uONDjCF9P5+wKONwZOi1IFp5Bb2nbeon1d97KnTPFh7KhQkB3Bd6AT8AtFJ88hsbvcTE4eeWYfBwgdX0vVBiex4BupXgdvN9iS7K6BJ2XX9WkaD55HKV1Y7lDUGqXVph+RmkSpXLN0xPw1OzqeHF+I3Rf0hqvrXwGg9a+gKHru9L43BOjN/fG2K19yPpizJbeGL2lF4Zv7I4h67sQyOfQZ2UKui1pjhfm10XKnCoUwSeg2Yw4NKTATmyhmlIE9Smwa5QeTfFASbFvrvWs+CDpnDV4zt27LW8s1udz+4PG/9dWt0Xr2WVMJVtninebzhnQvfBtXL2l6v3B89eKw/Nh76mPxQNx47QtkQI8u9k5Ad6A73xDBb+uP4V+PoXLugSHUronJ0WhzsRiqDWhKFkRssKU7pHx1wkc6Rei7xWiaJ8i/klFxW6aulOKU8TP0Tp1oGklRdDHkX3zGWUorStrk855c3kdvNPKXfPMkiK409vNe9fQeXFt8gDljJJtcPBkCnjV1Zvh6+B1+J4qBJrNC91a8W4KOOVT82Dt/iXykSAKNBzg6WmdE/B+ilehK+BdlWxzqHLnFjzvnk3/cLD8dECB5VER3KVQsOd0Pt5K8Sr4QK7eU2U4BVHDzWoPrvhArj5haG7M+GCsfCRKR07vQuWRBUSgJ6p3gRRv4+pVxecYeAW+H3gBXwFPZi7gOAXfcHpxLP98pvx0gH1nPxIRPoNnc7oCJ1TFG9BVtZvBq4q3dvO+4Bn6kDXeZVOnr54QwGuMo/GeoYcI3q3iDehkvOKW3T4bV/RsweeA4r3QNeNdNDuOr5efDs+uLRE5vN3snBPF69CdKN5TWUDXzR68n+JV8AZ8DXwFGtNfnt/aSNtu/HwNrdKrUkRe2HDxunnBh7ahwgl4HtubTiuHnsvaotfydqToeLHG3he8Bt214lXwDhTfdna82Eb11eXPxWfDjfN63kLlPy3rRvEBgjuT4j2VU4vCKXiniq8yshBBrmZU2v748w88P7cJKo/QXLwPeAV6Tii+BgVxA95+Dt9cOQJ9PosLNG+sfsECfOQVb16B03p2OQJbCd8r6dqYd3qQ+hm6lsuHA96J4jXoZvAKdDN4J4qvNqoopW0l8e31s/KxgAErXyQPkFeDbgbvo3j34A34JvC1JxRDl4VNcI9yd3PjdOmVxS1Qd3JUaOAFfBvwARTfPKM0ui1rjLtydo13uvRbnUIpYEmXK3BCULwOvZIO3Qc8jfFhKD5pNP39kUXwxZlPxYNxm/recCQMy+0t2RL0nFY85/RbDq6Uv4F/23JoBaqMeSLno3oBXQPPZ+DwkSg87cyN07UXFtUmD1BWBHm62v3BR26M91QaVgTW4DX4TsCb07nk0cURT8Hcli+925pW7s1GuSGPiwKOWqt3rHgDvj14X8Xzbpsi+OriF/I38G9cl38mqyaqpxXAk6T4JjwTZwVege8KvIXiubgz+f3X5W8AnL12QusQcxKMlM5qBY6h+BDTOVXxGnQBvogjxWvwbVy9hM/gyw5+DHN3TpWPBnx07F0R4NUgTxAyeBvFC/gqdH5N0FnpPEcfqN25fwtr9y/ASwsai4CPizWc3gUFL+FbunoyDbxX9Tp4Ltku+6d3xfC+sx+Syy/lA92reBvwBNsZeDIFvK54T0Uduq3iQ0vn4ofkxqgNr8lHA45dOiRcfzK5frVWbwnegO4cvJWr50UYvZa191mSZNfu//seth1Zh94r2pPqi4ut0jwXH2lXX39aMWxX07VDS0Tezqtt/Eq2BnwzeILuQvGG2iV4Ad0XvJXiNfh24P0UT9ATh+ZFtwUp8tGAH+9cQYOJ5SjIK2JU7gIqPgTwquJ1+NXTCmHsln4+ByFcuX1JTONeueO/hZo7yOdndyF1YzeCTtH/hIJoODXWXvEqeAFfAU+muno+/aLZzFI49O1e+X8DsnePRwPqCN483in40F29p+JQDXpwxQcGr0PXwVdILYCUmbWNSQVeKdMhsx4qUdqmV+4elOLZzadkJmHYum4Yuu4V8bramLxok1EZsz4eh/PXT4nf0dx4SnfaB8PQNrMyahL8+lN4sqVMyIpvnlGGIFYWc/h6G7bxRYLOStehW4CX0MNz9Qr0CkMLI1LgVfiVhxdG/QnlcPnmt/LxgF5LOyJxWB6/Wn1OKl4Hz7tlk8cVQnVeeTspWuTwPEHDZ+A0S4/HxHffwPHvtAWd5vb97Ys0DmfipYUNxZgvxv300s4VL8HzSZadF9b12bTISm8yvYSI6vVc3l7xkUnnBHTX4BXoZvA69Koji6LS8EI4cvFL+XjA6I39RQQvKncS+oNUfANTHq9X7epNjkEyRfAc8fNU7D/PfOyz80RvPFf/0debMWhtZzHe85l3jabFOlZ8o/QSeH1NRyNd0xufkddnZRsx3vNBSCkE3F7xGny/Md4FeE+FIRp0S/A0vjuN6s3gq40qRsHcE9h+ZIt8NGD+rnT6Xi4R0JknaYIqniwk8I5vqNDq87zQsvbEYnh1aVtsPbRSRPdW7cT3h5H50Wg8M7cGak/iE66K0ZgfF1Dx9d4qiknv+2770hufT7Noz1tokaGttrUFb8A3g/fCDwbeU56hBwIv4FspPjB4fl128ONYtDtTPhbw3uH1SKCOUJ3yeIYeVPEE3VbxCvSg4FXoAcFrtXr+yvPxfODRs9m1seDTqfj2hre6qLZb927gvSNrxEIMdvm1JxWmwC9GnGVrVnzdKUWwcI83jf3FYicQq/6FhbXReHq0hB75GyoE9KDgAylegW4GX3rQo0jb/KZ8HODL85+jIgV4SeQFNLVHWPEG/PDAq9OyXKbl4k2LGYnimLN/nf/MNgX85spXyNo1Hp0X1CdVFxfn3DVJLyngtyD4vKyaz7LV26ZDSzF8U1dxcqXaeEFnzxUtBfjAig+tckfQCwnozhTvLp0r+2Yu9F3qXSHy7bWzqJsWRx2lsFayZQsFvKr4EII7A75D8Fys4XX0rHxeV88zdZu+XGq7WJNr/Z+efB/j3+2Hp7OSUI9cPy+34jX0B5V0bc6usagy7lE8O68Gdn3zjvyu1vh405eXNBSuXle8K1cfALyn/GCG7ga8hG4Gr0DXwScOzYcOGfWNhYq8Mrb1tGShdr1yF1DxBDsk8AZ8X/Cq4u3AG9DJdOjC5EKMxlNLU/SuHWb41OwkSumG4tDFfbbq//GnK+Ks29FbeuK5ebXx7fXT8ifAyC3dUX9qMXF0ecP0aCz4bIpPkMcdpCWleW1mxQcB787VexIJOltEwJsUXzGVctsJ8WI+XW8vZbdC4pC8RuUuLMWThaN4t67evAKnwVsxMn8vIdS/7sACfH/Lm6KaGx8p+pvcKMHZQd9V7VFrUgER4D05pTCqpD2KKR+84bNbZujGl8TumuDpnHPFe6HngOIrpRZG0sgonPjuiHwEeog1PVFucC6fkm2OKd4GvJt0zk7xArycnOHK3ZNS/W0yKmLU5p6U2m3BzXvX5VP7N1Y0H2XObn3x3mliEmbYRr6IoBt+/PmKfBeQuXOUqNf7QrcAbxvc+Y/xnoQ3NeihKT7wGM+v4wfnwa6vP5CPAGTsGI84CvCSKK3zA2/AtwCfg4o34IeoeH1mjo23TnEKxwUcTucmvDcAO0+8Iy4fCKUN3fiiWF/P0HULrPjgrl6DroDXFK9BD13xWlTPVmrgI3h730L5CMC6L5ahzJuPG0WcgIqX0C0VT9DtFf/331DB5Vqu2dehFI5z+NYZiZTa+Z+gGajxxEzzmaXBp1bbr7kzgReK1+DbKZ6gF4Q1eIeKF+mcPfjSbzyKae+Nko8B7Dm5ExWGFSBPUNQevAGfgOew4t26elvF+4H3zs7x66TxebDp4FL5KUCoP3VjV6w9MA/7zu7EiSuHcYGCvHM/nhC5+swPR4gNFXxsuT4t62ZDhS14Mk+8gK6BD8/VW4EvSq78cQxY0UU+KnD2h5M0znNtvohI63zAW6o+guAN+JG7oSKQq28m4Gu7Zln1DFNvs3eORcUx/xC7Z+pTTs9VvJTZldB2VnlRruWons+obz0r0Wc+3mqxpSV4A74ZfAWCPqgg2KzAuw/u/Mf4soNyo9PspkZKc+vudTSeVEFE9ip0zayg24An2OGCD8fVOwZPKuc6fcuZiZSunRGfATfeVsVuXyvb8sQNvXcG76qJE8Ucu/l49+D9x3gDek4pPnFIPjSdXEWUK7nxTQ6dZjcRAZ5eubNTfFiu3oBuAd7G1auKjyT4hpTadZxbyzhqhAXQc3kbUniJgLV6NnU+PiTwUu0qeC/0AODDSecqDCuEaiOiaKzyFiX6Less3L5astWhG+AJdtiKDwF8xII7BTyvxOm78iljHwBfBdYpuzYaTot1NR8fSPFe6HbgNfgM3lPujQIoZwNeDe7cK15z9fw6fnBefK6sjJ20dRgFeI+JtE4F76d4FbwB3wK84zE+ZzZUBFM85+9jtvaRT09xDQVrDJmPPnEzHx+W4g34OnQyVfEa9Mgonr/GvfE4NuxfIR8ZWL4n24BuBq9DtwSvKl5Cf+gVL6HP/WSifHpg/7lPUJfUz+O97UIMF4o3b6gIpngDeiDFq+BdKV6kc0UQM+AfyNzufeidx7dRR8hFKV1RS/A5r3j34A34LhXPX2tNLCrm5vW2+eAyUbwRa+4k9AepeE9ZFTqZneLDKeDEvv4Ihq7uLR8ZOHrpoOb6Uwsb0N0rPsz5+Agq3oBOZlY8l2h50+T+c97hbc7O8ag5sZCAHhS8U8UL6NaKV6GzecoOLABhNuC98K3AO1N83MBc6JLdVj4y8MPt71EvrRzKDy0gijhOwEfqgMOAijfg24O3U7wKXlU8r8bhG6j4UCO9jd7cSxyW4LO8WoHvCnwIiifo+Q3oPqpXwYfp6ssNyoNmk6vhF3l2HJ/g1Ca9lkjbROXOBF6Db+PqJfwH7eoFfBW6BXgrV8+LL/mIM/3Svj///AO9l6eIMZ2DvIDgJXxLV0+mgfeq3il4TxkBXYJ3qHgVvBPFJwzOj5qjSuHyDe+0Y4+FT1PaRuO6KOJoJVtf6G5cvQ14gm0L3oDuHLxbV8/g2bX3WNLaKE7xQUYd5tQQ07J6SucDXkJ3rXiCrYIPFNx5yryeH4HA+yjeBnwwxfPPEocUEMul9DZ6w0DEDnjEp2QbyNX7KV4Fb8C3AJ+DBRwDfgDF81bpkZt6yqfm/XMnyd2XQ0N5yaAleLPiVfACvgKezK2r16CbwavQyVTooRVwCgvA2w5773fJ/jhdRPV65c4J+P9NitfB83WjfA+d3nj3DK+74xU4D/oQYwN6nA7dQvEq+HALODH9/4H5u7znrLxzcJ1I2zjQcwP+YVR8IPB84SDfNKm3LQdXiDX2ah5vB16FH1TxKniT4s2zcwK6P3ivm7cb4zXo/uDt0jmGPmq9d4vuQXL1CYPzocKwwhp0M3gFuhm8Y8VL6H+X4htM4XNuosTmCb3N3TVJrK61qtxZgY+I4gm66uo9cQPyQZgfeF/4loo34Ad39ezeu83vIB8duHTjApJGlBBjvdXsnAjuQnX1BnwC7kbxZCGBt9lQwSdd8iYKNV0buamXONdOz+OdKD4geAHfBrxJ8Tp4T2kFugGegJsVb0An84duB96r+NKUq7dLf9I4B/3nX39C8ynJKPdmHlm9k9AjBV5CD6p4gm6reAV6UPAqdAmeVc6bJW/fvymemdfF8c4Z3kih5/Ea9JxVvAqdTUA3wEv4doq3A+8kuCs7KC9qjYnDD3e8i/5eyGqFUgMfl9A1swSvQA8E/mEp4Ojg+YaK7kvaiIOWuDH8Zyhn5/PqbSdpFOiRBK/C95Tur0F3Ct7W1duAF/AJfMJg/lkBfH3ZuzJ20Moewu3rlTsdvj94Db4deBW+ULyEH5arVxUfQnDHxjdSpG7wnqd34dppglyGfsZuX8vjLcEHUrwCX4CX8C1dPZmVq/eUYuhm8AQ7XMWbg7tEgl56YG58dPQ9+REAM94fLwI8vXLnBS+hm8Er0M3gdegGeILtSPEEOyTwBnxf8Kriq43Jj8wPvSdnHjj3GWqN51unSxl5vAHdDfgwFU/Q88ISvIQfjuLN6Vz0a/+NpZ/OlR8BsP6L5Yju999+tfqA4N0oXgVvwLcAH+HgTofP15BtOOA9I5fTNd4fz9DVAk5EFK+CF/BtwJNJ6DbgCbY/eAvoZKriNegaeNXVF+vzX5i4xXuh7J5vdiJu4BPk/gu6A69AN4PXoVuCzwnF24KPRfLYQvjn6Z3yaSGKNHxkuVXJ1lbxCnQ/8CEq3lOyHwFnC1HxKvhgY3x0v3+g7xLvVR+nr5xAldQoem9+WbmzAh+BMV4Fb8C3AB9BxdeZUEIEc+oNVXxlCZ9VL5RuUbINRfEqfKeKF9AFeFXxErpTxauqt1M8u/rYAY+j/fT68iMA7ty7jbrjEkRkr1funCs+QpM0Erql4gm6veIDL72qlVYcbWdWM7Y2icWQS9uJE68Yuh1454r3h+5U8Qb0sBQfALwXfiGUfv0JAfn2PS1v5YWC7Wc0QKnXc/lN0viAF+lchMEb8Al4Dig+eWwRvDi/qcjNufG9L+0zq4sbKvQ8XgVvqJ3NMfjQXL0n9rU8KPlaBMBL+Dp4K1dfdmA+VBpaHGeueitU7O4L9f4/BL1IYPACvhV4Db4KXoNv4+otVR9Z8Kz0xOGPY/CarvIptVurmkwthzryflkr8CG5egFfglfgC/ASvtnVC+gCvIQuwKuu3iV4AzqZqnYNfgHE9HsUu47vkB8FcPTiIdRLS0TRPv+XOgqN7UHB2xdwVNXbKT6nN1Tw3XPlh+dCmxlVxXVjett7+mNUH1tYBHgG9EiBd6l4A3r4irdQO5sCndUe/do/8OqCTvKj0NqVW5eRurafqNwV7/v/KKLPLQo64So+YHAn4Yfl6iX02vS9pDHkqUY8If48bvMAXLntezDhoNUviRTOrmQbUfBmxavgyXygC/ASelDFE+zQxvgCAvycHd4Dd/R28vvjmLR1BBpPrELj/OMih+eaPRd2RAcICj5CwV1QxfP3olB1VCFS9ROoMjI/2s5IxrT3R+DklaPyabxtwe50VB1dQNw6pefwbsAb0N2AD6B4T0zfPGCzBW/AtwAv4VuCN6teAV/mjXwo0e8RjNs0RBxJYm53f72LT77egbEb30TK9HoEuyhKDngM0f3/R9Tqy72ZV8zOVbSblnWjeBW8Ad8Lnv+cPLooAaZONyI/EoZR0Dk8D0GPxrNzGmDC1jex+5sP8JPF1aH8bHxhMAOvM76EzN+9ljOK16AHUrwBPUaFrrh5Ad614r3Q7RRf9o38oljTckpNvPPlenEZnlXj75+5+g22/Gs1Jm1JRdd57ckTVEa1EdHUeXKL1TclX3+UPAPZwMdQZlAuih3yIGEIz9VzxyhIXqEQdQrqIMMpHiCrMoKN/8xWCJWGkydJzY/yw/IiYegT4thyzQhwKl9MEIOWU6ug+6IUTH53GDb9ayVOXTlue3MyT7B8cHQTns2qTx0lj8jZOaI3F3AipngFugY+sOI9Jfo+oUGPuOIleDJD7WwKeI7qY/o/ihKvPYKU9PpYsjtLzLMHa6yg09QRPj3xIdZ9vhQZH0zA8LV90WtRJ7yQ1YLSwLpoPqUaGkxIRJ1xcaTgGFJ4lKF4PhKlxhgaj9PoQ52YSECr4amMuuic3QK9l3RE6rremLk9DWs+X0wq3i4uFvzp/m35f7dvPI6v/WIhXprXXLj8amMK+UT1ah5vBd6AH4riXYD3lOjzBHzAq9ADKV5Ct1Q8QTcrXgWvKp6DOx7nY/o9RkHcfyNpRAxeXdgJq/YuFGN8sCu3rRofQnz7/i1x8vP3ty6JjsTHmZ2/dkbYBXp98fp5fHfrojidmnfU8tHfdidE2TWuM/CVJVsOvo0ha7qhyZTywvXzFaMc3Dkt2TpRvAGdLFzFa9ADgA9f8dbwVfA6fC7glBmYV5Rro6gDlB9cGK2n1sKgla+KiZp/nvpEAAz15uNwGhdZbty9hq8uHsBmcu8Ttg4mRbdA3QmlxeWDDDt5TFEjsrdK5wR4A749eDvFq+BDUryE74nWoUszwJP5gI9EAYdg+6heBS+ga+D1Wj3n7aUGcBT/P8J4arb6yJJoNbUmeix8hgLBwZj38Qxs+XIN9p3eTZ7hmDh1mo8w4yHg9z+s4wS1sVp/pbH5DrlvXuDByuVDjHd9/T6590XIIDc/bG1PvDC3GZpOqSjup+F75/g+morD8xPoYjTmR4tULpTKnQpewFehW4B35OrJAoEX0H3AO1W86urN4Al2uIrXwbPpK3D4ddlB9O8T/FgK3DilKyE6gxbRVxhaENVHxaLRxIpoM60mnsloRGN8Swr+2onNFT0XPYteizuK190XPIWX57XB81nN8HRGA7SeVp3G9wQa60uIAI8Du3JDcqPMm4+KWyoqpOYTwR/fTBE4nfPP492Ad+vqQ1G8J7p3bkT3DgA+JxRvAu+jeBvwAr5psaVeuePX5YfSz8gSB1NHGpwXZSmCLzvoCYrwc4mt0nFvPCa/Pi4i/DJv5qL3UIQ+hCL9oXkpcs8vjkThyJ6PLeegT6R1AdI5A7yDAk6oijfgR1DxEjoZwbYDr0IX4CX0sBSvQidToVu5egE9APhIVe4YtG7hFXByXvEqeAO6GbwCXQfvidKhK/AdKV4Fb8C3AC/h2yleBW83xjvdUJFjJVsVvAHfAnwOKt4JeKeu3hPVKzd8wKvQzeBV6KGmcwZ4r5u3G+M16P7gzcurQwavQDeD16FbglcVL6H/nYo3oJPZKl5x9Rp0C/APWvFux3hXrl7Mx9vMzoXq6g34BNyN4slCAu/4hgoyO/A69OK9cqG4DfgcVTwBNyvegE7mD90OfLiKDwO8hB5U8QTdVvEK9KDgVehBwKuK16B7FS+h59Kgu1G8At5P8Sp4l4q3Ax+R4C6Q4hXogcA/bBsqQlG8p3hPgs5mp3hzOkdmgCfzAZ/T6ZwNeAHfVXBnBV6DbwdehS8UL+GH5epVxYcQ3BnwXYL3FNOhBwJPoCOueIIdruL9gzs34CV0M3gFuhm8Dt0AT7AdKZ5ghwTegO8LXlW8HXgDOpkBXYIX0M3gLV29mwKOCt6AbwFewg9H8f8R6RxZOIp36+o9xV7VoBvgQxzjfaAHCu4cKd4COpmqeA26Bl519f+RircBH2o65yn66uNgs1K89RivwX+QilfBP7RjvAregG8BPgcVb8APongvdEvFS+gWijegm8D7QP9fX8CJ0Jo7Cd1S8QTdXvE5c0OFp2gPDboG3qR46eojGtwZ8Am4G8UHAO+FbwXeoeJFOhdh8AZ8Ap7Dinfj6j1FCDqbLXgDvlf1Bvj/yHTOCrwGXwWvwbdx9ZaqjyB4A35oN1R4ofuAN7l6Cd7O1dspXoUuwEvoArzq6l2CN6CTqWpnswLvPrizL+CoqrdT/MN+QwVBf0xAd614FfwDm4+3UDubCv4BKz5gcCfhh+XqDegW4G1cvap4K/Cewt0Zuhf8Q6V4gh3SGG8DPjLpXISCOzeKDwG8veJL4f8DDzHinMF4WUsAAAAASUVORK5CYII=;" vertex="1" parent="1">
          <mxGeometry x="943.6400000000001" y="667.5100000000001" width="102.64" height="102.64" as="geometry" />
        </mxCell>
        <mxCell id="4ohFSgvwRZ63tA1tGF-L-18" value="" style="shape=image;verticalLabelPosition=bottom;labelBackgroundColor=default;verticalAlign=top;aspect=fixed;imageAspect=0;image=data:image/png,iVBORw0KGgoAAAANSUhEUgAAAEsAAABLCAMAAAAPkIrYAAAAAXNSR0IArs4c6QAAAARnQU1BAACxjwv8YQUAAAAzUExURQAAAJ9g/59o/59l/59k/59m/59l/59m/59m/6Jm/6Jn/6Jm/6Jl/6Fm/6Fm/6Fm/6Fm/08kYxUAAAAQdFJOUwAQIDBAUGBwgI+fr7/P3+8jGoKKAAAACXBIWXMAABcRAAAXEQHKJvM/AAADCUlEQVRYR+2W67ajIAyFvWDFC+r7P+3snQTFjq1oV2etmTnfjwoWNiEJkeI/oQ7Tp4zOtKblc6bvaLXOuQavGjyv43da3G4JrVLfXMT9aF1ir9V77zto4XGDfqf1MV/SGnqAV3wIYVmCNc8Z3/sezuusec5JHH+0nvi7tLoI8muy5jn7MxS1bvNlLTNa9jha85zhUOvPxbH0YXhYu3Bj6Cpr3tDCy2UxsXpGe9b2Da2aUnE+fARaad/WWrSjWl7aN7RKDER4tdOyLfN4uQn2Nt9fWH9Zausgaw6GZGvJkLp0vmvFSN3hjkSrKg1o9dbUQQqPKQ3CFwJRsJRISbSOWDMKmPuVA7OytFrvxQq6fB5hNe1O/zBytGxMIZc0jEW/Z79AP0aDJFqrv1CSOmvK8vgESl7CTQOfD0tabvqFXS/jiL6kEMY+6qZxFY4QJ2HPge8jOVpMLexl5wdsvkRQd+NytDhoklTZCBVdMafuytOiYTNGKiwSAF78fclzLTuAy9hWaA1Fw6sM++sUIU+rwM17mVuMEC2EkMY9SVHrUVUVw1vjKWDVnk/8jV+ZQC3NW8sLxlKCW9oIsHrhABhsJjI91dSoJYnLHSX1Sw/rMRgKezgVE2ddfdVi5jL78SLWL+TwS6DF1bFXmwc2LerjgXA+O/cV2Bzm4hcHkWxaDFfNvmw1B9rtK7WObFpyTB1CEPvnMCVhVvRvooW4TJDa5/5beOpAPMSJFvMEUrb5PCTJX2mFfKsEB9OOtSYehWtY+MneX7nZkIA4xtsDz4l9N5B0R1+QE5hKzIlYwoIkyJZ0l8A0nGwxSusYDIoLXAX29GrUWFtcq8SJF3C8dYo9UsLUPibwst3u8mBGGDBKsboKpitqnZX3aJSipgkhO8UkuVHn8btLJhbiVuv+7hv5BtaBwMjT8clxKXHkaVCFJMvNMqS57oFVeqsIJSRmLVswLdbVE8q6NgG5MZmjJRzRmnXEBeSSGbxzzcBw3DiKCfRdZNYL+X14g1DGOwfxidqP0xS66w76ByiKX/fAbmQesIawAAAAAElFTkSuQmCC;" vertex="1" parent="1">
          <mxGeometry x="957.46" y="538" width="75" height="75" as="geometry" />
        </mxCell>
        <mxCell id="4ohFSgvwRZ63tA1tGF-L-19" value="" style="shape=image;verticalLabelPosition=bottom;labelBackgroundColor=default;verticalAlign=top;aspect=fixed;imageAspect=0;image=data:image/png,iVBORw0KGgoAAAANSUhEUgAAAEsAAABLCAMAAAAPkIrYAAAAAXNSR0IArs4c6QAAAARnQU1BAACxjwv8YQUAAAAzUExURQAAAJ9g/59o/59l/59k/59m/59l/59m/59m/6Jm/6Jn/6Jm/6Jl/6Fm/6Fm/6Fm/6Fm/08kYxUAAAAQdFJOUwAQIDBAUGBwgI+fr7/P3+8jGoKKAAAACXBIWXMAABcRAAAXEQHKJvM/AAAB1klEQVRYR+WY2ZKCMBAAw5Ub3P//2p0hg5IDnKm10HL7KbqhbcMih/o/hCXRKRVpKMCTJRF/EuCaaSggkiXxYpcdARiCy+CQi2u4NA3BNdGQhb7Y5TnATI6L1vUce73LcoAdf/Xac+G4NIeB56LVPecN+zFygI2uXvsH3TAZ59JB46wee3o/wXcNNt5obXYseCASXNcIL45wNIfpGijpNgfv3HrQOB+X9OZmYLoCbmFH+OHO6bVHGf4Ks134DQMevwXdZDEuTWO6Jvx0YIGvaK1BnIszfXM8AQLctcewQ2gDrgvDWr4bpM00h+vCF0H1k4b9F1a8M3roenBt89kuDMv/zVdgN25ZfFcKK9lnCVzNsH2WwNUKy7IkrkZYliVx1WF5lshVheVZIlcZVmTJXEVYkSVz5WFlltCVhZVZQtc+rMqSunZhVZbU9Qirs8Sue1idJXZtYY0suYvCGllyl4IguNaCkxxc2eT8wWXojTtf5XLGwLTXuBIf5qJTbQjV3+SuYzguulI+BzbiuGh9znnDvQLd8ZzDvB/icrVrvQR/BvO+llb3nDfsx3Qv9QSYefXac2m5HD40giG41kdOXGzDtfJpz9I8PfkD1/boUMD+svGrUeoX1YFwh6Nl4n4AAAAASUVORK5CYII=;" vertex="1" parent="1">
          <mxGeometry x="1129.71" y="538" width="75" height="75" as="geometry" />
        </mxCell>
        <mxCell id="4ohFSgvwRZ63tA1tGF-L-20" value="Crawler" style="rounded=0;whiteSpace=wrap;html=1;fontColor=none;strokeColor=none;fontSize=16;fillColor=none;fontStyle=0" vertex="1" parent="1">
          <mxGeometry x="949.96" y="508" width="90" height="30" as="geometry" />
        </mxCell>
        <mxCell id="4ohFSgvwRZ63tA1tGF-L-21" value="Data Catalog" style="rounded=0;whiteSpace=wrap;html=1;fontColor=none;strokeColor=none;fontSize=16;fillColor=none;fontStyle=0" vertex="1" parent="1">
          <mxGeometry x="1107.21" y="508" width="120" height="30" as="geometry" />
        </mxCell>
        <mxCell id="4ohFSgvwRZ63tA1tGF-L-22" value="" style="shape=image;verticalLabelPosition=bottom;labelBackgroundColor=default;verticalAlign=top;aspect=fixed;imageAspect=0;image=data:image/png,iVBORw0KGgoAAAANSUhEUgAAAH0AAAB9CAYAAACPgGwlAAAAAXNSR0IArs4c6QAAAARnQU1BAACxjwv8YQUAAAAJcEhZcwAAFxEAABcRAcom8z8AADPYSURBVHhe7Z2HW1TX1v/nv7n3vS2JvSMW7C2mmNgrKqKAIKg0wa6xxRaN3dhiiy0mdkRQpPc6MPSqFMGe9a61T9vnzJyZc4ZBfe/vt59nPQMGjc7nfNdebe+xhPpkQeiIbAhjlgNhI3NgpWy5sIpsVB6z1czyYfXofAhnVgDhYwogglkhs0iysUXMosjGFTOLZlYC0eNLYM14q2wxE0pli51QBrETBVs70SbYJBusm1Qu2/pJFbD+ywrY8GWlYJPJqmCjaJu+quasBjZ/LVktbCH7hqwOtor2w7f1nDXAtimCbZ/SKNh3ZE2wg9kz2Pk9b89h11SyZvhRsmktzHYza4U90yVrg71kM8hewD5m7bBvZjvsZ9bB7KdZZC9lOzD7FbODzF7DwTmv4Wdmb+DnuW/gELO3zA6TzXvH7Aiz93Bk/ns4Ov8v2Y4tABCg64LPFcCP0oBH4E7B89DHCtAF8AjdIPi1HHgeOgOP0N0Bz6CL4CXoWvDbZPAidAa+SQc8AtcBL0DXA/9CAY/AVeAZdAX8AUPgBegMvAhdBo/QVeAX/AWWFRJ0s4p3BV4FnwfvIcW7Cd6c4nnwAnwJ/A4OfFcr/sBsF+DRVOA5+I7AI/RMcA3+01O85Oa7XvG8q5egm1V860dWvABdAm9ZMZygGwHvCcWjuQH+YyleD7yeq9dTPO/qdzsD70rxZsFz8HnwlhCC3lnwng7uxpsEr1V9J8Fv5cAbcfV64GX4CNw9Vy/A91xwh9DRGHS3wJt19SrwnnX1DLybiuddvWvF8+A7p3inrl6reLOuXrvHi9AF8O8IegZCJ3MDfKcUz4PXUbwD8F2teFntGvD/TemcJZiDbg68m8GdCF4I7nhX/2EUv1EHPK94PfD/LYq3BA9Lh+BhEngPKd4g+M4ongf/8Qs4EnTj4D+Y4rXg0UToaB9a8TJ09xXPu3oeOgP/CSn+U0vnLMsl6CrFuxncfQTF8+C7Ip3TA++pAo5zV29c8WZcPUJPAxX4/yOKj9UBr4KuU8CR1e4E/H+X4gXokuIty4cidDKPgBcV/5HTOU8pngdvroDTKEK3B29E8V1awEGzBEnQteA9Hdx9It05Gb7BPV7P1Tsu4Oinc11XqxfgmwnuEHoq6IJ3W/GdS+fswRtXvJ6rZ+AdKF6G7gS8+4r/NNM5S9AQgu4E/P9XvJ3izaZzZsG7p3h7V6+neEsgQdeC/9jBnQheCO5M7vHjyyAGbc3YMogaVQaRI0rR6FUyG0SPKoc1Y8ph7XiEP7ESHwA1eAW6Grw5xYvQXYA33Y8XoRtWvIO2LEJPAYfgu1rxBsG7VPw4K0SOLoFwnxII8xZeo8eUwqYp5bDbtxIOBtbA0bBaOBFRByfC6+D4qjo4FFwL+/xqYNuMKqb8mNEVEOlTjg9DBT4I5Pq7ooAjwP8Yite6ehG6DvhPOJ0LH1kMoUOKYOWwYtjwTRkcDqmGP35ugrRbbVBZ8Aqa697Cq/b38Ndf4HC9efkXtDa+g7rS15Ab3wEPTrXAmZgG2DWnBmLHVkLUCHwAxpHynStegq6veGOu/kOmc5YAGbpZxbuZznVC8ZFjiiBsaCGs8C6ATd+Vwq+bayHzfhs8R8CeWh2t76Ek9SX8caAZ9i6shdgxlbBmFKnfU4r3dHBnQvGiq7cEeCcDmXvgBfgeD+7QePARowXQK4cVwE8BFZB0vRlan7kG/fb1X/Ci+R0017+FZzWC0ddtz9/Ba1S6q0U/k5fQAb+ub4KNCH3NSIQ/qdoleNfpnDHwMnwErufq+X3eHrwAXxvcydBNK95tVy+CN+jqVwzJRzeeD4dCKyA38YWuuyZXXpb1Ep5cbYbfdtbDsVXVsNevEn6YWQ6bvrXB+sloX9nw63Lcyytgz6IqOBpaC5e2NkL8+RYoTnkJbc/eiX+a/aoufAO/bXsmwB9Fe74A3pyrF6Ez8AJ8dxVvqoCjcfWWZd5PYZkE/lNR/Jh8WOmTD8sH5sKuRaWQHd8mvvXqRYpNu90KZzfWIlwbBnTFGMzhPj+kGFbhXh8xgoI8KwZ2GPCNLcWgjwwj+zFSZF8GET5lED6sDKJH22DbtCo4FV0PT660wrNqx56ksuA17v1NEDu6CtaNl1TftYrnwespXlC7nuLVrt6ybDBBfypD/3CK1w/ulnvlMpXfOdkIb169F99uZZXnvoTLO+tg43dW9ALk+gshfAQGemPM5/FS/r52YjnEjC3HAM6GDwJ6hG8q0a03QmHSS/H/ql5Z99vhxzl16PIF1fOK1wNvNp0zongVeIOKF6CL4GXFmwXvIcWvHJEHgf2y4Ue/UqgosH+zrZkdcDyyEiP3QggehF5hRKHzdM4geEcFnLUT8AHANG4NpnNHgusgO65D/Fsoi6L/i5ueQQy6+w2TjOXx5tI5Ab4pxcuq11e8ZakE3aziPZzOhQ7PgYAB2XBhWzWqW71xN9W8gV+3VMMqdPnBXuQRtOmcfgEnGvP46LEIn7l2wah4Q/CNTODQAxA9Eg1z+BOr66Ei97X4t1LW40svWIBH7p4BF8HLateA7/ICjlbxCJwHj9CTgMwt8LqKNwF+VA4ED8mGELQH5xrFt1FZiVefQ+zkQggakAurR+aronp1AacYX4vRC1DuXgQrvAohDPP4cB/89VElgutH+FG4v0eMtMLqYVbc+63430txP8eHYLwDxXPl2vWTMHdH+OsmVMKtQ8120X9x8ivYPg1TvLFq8K4Vz4MX4Evgu6pJY1nqJUBXK16E3sWKJ6Uv98bvh2dD2p1m8e0TVmvTWzgZUwFBA3NgxbA8u6ieB7/KpxBCvDD4G1bI9vmfV1TCtb0N8Ojic3TLbVCS1sHiALLSjA7ITXgBSVdb4NbhZ/BLdC3smFPByrarh5ayAI/2dwbdQZ1+3cRKiBheAT8H1EFN8Rvxbyus2pI3sGdeHQZ5ZhWvDu4E6GYVb7yAY/H3egIKeF7xJsBrFW8E/MhsBjzMJweyH7WIb5uwyvM7YPPMIliG+/uqkUJwp03n6HWFdz6EDM6DzdOscHlXHeQ/fsEeFrOL0j1b9iu4e/w57PevZsqPGE5bgL3iJfjk8jd/Uw3ZD9rFP0VYDeVvYe8CBD/GmOLNVu70FM+7elfpHIOuD14N3xR4F8FdMAJf7p0JmXFqhecktEL42DwIGoTARzsu4IR45+F2kAd7l9og5Y9m6GjVz6/Nrndv/4Ki5A44t6EBoVMkX4bq5vZ4TvWx4yohZnQlPDrfKv5uYTXY3sKu2bWwdpw++I95oEKGrgYvQu8ixYcMy8SgLQP36ybxbRJW+v1m5uqXD0bXz1I5dToXNhwfBnT3O3ytkH6vBf6yz+bYooegLLsDUm+1wN1fmtDV18PFbXXMruyuh9vHnsHTGy1QnNoBLRiB662KvFdwJrYe93LM40fZHCp+3YQqVqe/d0LtrSrzX8OWb2tg/YSu6c4ZUbyeq7csGfRYhq4G33WK9+udBlf3V4tvj7BI8cFDSP0EnEvnRPBBXjmo8jzM3RvgzWt72s/r3kDib88xpauCjVMxQMMIf8Vg3AIGF0Io5vFhZBjYkVHxJsy7GAO6Etg0xQaHQ6vhwennUGu1j8xp5Txsh13zqlgRZ91Ee8Wvn4TgfSpY04ZfuQ9fwjrWtDFWuftQ6RyDrg9ehC6CN6x4veAOVb6kTxrsDy6B9++U6Lc4/QUL7oIGZ7KIXpXOjciFgH5ZsH1BCZTn2efKtlx0xZurIebLIszd0e1jQLfKh/Z8LqVzks5RW3b1cKEtS3n8iYhayEtQ79O0qIZ/YUsDRCD42PHo7idrFI8BXvSISnh6VV09vHe8lRVwOley9aziZejGFJ+sKN4VeK3iEXqAVxqEj8+GZ7WKoppqXkP0lwh2YAYL7vh0LswnG4O5TBbFd7Sp3XB9xWs4vb6KFXSCBuLDgTm8s3ROAa9fwIkeWwqrhpVA+HArqr8Go377AhHV6deMtrHqnRb8Wkzn1uI+X/RU+X0UIxwPa8S9H8F/07nunADdOHg9xVv8BiXK0PXBd17xy4emw5K+qZD0u7KPv3n9F+xeWgz+fdMRsBjVi+nciuE5sKx/Jlzerd4GaD083wRRE/IhsD96A4Sum87J0J0rngdPtmZ8Kcvjo0aXwvW9jfDyhXo7ybz3Atai2mPG2IOPGVMB26dXw/NaJYuoK33LlL5holCr7wrFm0nnLH4DE8EY+M6lc4t7p8DPK0vEt0FY1w/WwOKeqXbp3ApUuH/fDLi6r0b8SWG1t7yDY1HlENAfH4qhuXKtXpvOdVbxZDRXT7n7SnT7e/2qoLpYvd/nPWpnbj5mnAb8V8IAxqmoBlWg+fBMK7p/wc1rmzR64D1VwNG6egG6FryXEcU7Ac+gK+ADBqehe0+HGquyJ1uzXkCQdzpahl06t6RPOpzbWin+pLAaKl/BD/OKYWnfLDHAc92WVcAL0GXVG1S8dKBiNbr7DV/boCBJHVNk3GljUf3aCZqoHi0SA7skbn+n0vJ+v3pYO1bpx38sxVsWD0yAxY7Ae1DxC3s+hQs7K8R/PrAgbsfiQubuVenciEzm6vcFlbC9UFq1Za9g3XcFzN1ro3oe/CrM5Vf65MEKzOGpaEN1+uUD0Qbg1xTksWge8/xBBcwouqeonsq2q0fggzAG4WNwx4Mnoxp95EihLZuLCufX/VPNLKqXqncS9NjxFbD1+yporlNiEerMsV48RvOOwJsr4Lh/oEKEniBAdwu8Gr4W/LJBKRA6OgOaqhX3mHitkbl7bToXMCgdor7MYemXtOjrDVMF4EpUr4APw+h+OaZzQQPQ5Q/JhdivCmEn5vFHwyvg0s5auHW0AeJ+fQaJV55D0o1mNnWTePk5PDjzDG4eaoTzW2sxaKuCHfNsEPullfXhKZ0LH0HqV8BTVy5yFH6Nv1acoiiehjpOx9SzCp6UyjH4uL9HDC+Hq7ueiT+JDzs+yIeX10PsGGUIQzDHiu+qAxWWxQME6ObBi9BF8HqKX9gzCS7vUVT+8sU7iP0uB/wHpKrSueChGbB0QDpkPFAqdK9fvoddfhToZSBwrkmDRuXbgAFCGXfvslK4daweilJfYGbwRrdo42yR+62zvWa1+mt7GmDn/HJYhakcTdfy4CNQ8Rsxt6+3KQ9mS8M72Dq1go1Vy9BR7dScWTepEmpKlJ/NvEtqr0To+sOWXV2ytSwa8AjIPKp4Drz/gGTYtjAPnv7RxIoq8Zcb8EFItkvn/PqkwrE1ZeJbI6zz2yvBr1eaKqon8CFDhbr9L2sroCzHPqf2xKKHIPNBG+zzr4SVQwXVsz0ewVNkfyCQWsDK05X6RxtTOyvZyq6+AiJR7Ze3KRkLdef2LaxjRRvPjVebA69A7yLFBw1NAb9+ybC4z1PYPC8Xor7OQjeeqkrnAjHQCxuVibn3K/GtAciOb4FlqPyQYUpUT+DZ9wg++c/n4k/ar5ft7zHwew0l6e0IrhWe/t4MCb89g0cXBXt89Tmk/NkCuQltrPNGw5I0ROloUVp5ZVcDK+DIisfgjoo5t44qrvsv9POHV9SyESy+SUNB3qavK6GpSknh7p9owQhfUntnFC9CdwFeG9zJ0GX4nVa8CF2j+ADvVFiC8GmPZ8C5dG5Rr2S49KMSrdMWsH5aHkJPs0vnlg3IgFsn6sWfFBbtq9asdvjjSB0cWmmDjdMwUh+HQR3m8CHeuOcPpD0/lxVxaO6Ogrtg1oqlCL8IYicXwy7fMjizvgYScL9vqLAvx/4cUqVy9TRzR8MYfCpHjZooiuY1rdmIYTa4f1Ip0daVYpzyJU3bSGr3lOIF+K4Ub1k4IF4N3SOKdwzeUR4fMDgVQkepA73bv9ThgyBE9nw6FzKUgrlsjOaVilfB0zbYOL0QAgfiA9EvC8FSDk97PgZ6CJ0ier10Lnw02qhCWD0SI/jhQq0+xKsAI/kiOB5ZzTyAtBIuNUPY4GJO7aWwaogVTq2pFX9CePiOhNZgpC+oXVI87fV0oubdG8WbHAutZx06Bbq+4iXo+oo35uolxVsW9o8HMk+AJ/fu2/MxzP0ikdm8Lx4L1u0xzO/2RLQkWNAdrQe9PoUZf3uMe3mp+FYAvGh5C1FfYZDmlcag8+CDEfrKkVlQWaREz/T1sSgbRE2kdqwIfhBN4uRA6DAqzyL8kUI6F04PwCiEivDpddVINB9M21DxNFcfTHN3PoWwdWYp/H6wgdXbpRV39jmL6vl0jkavojCit2UrD2E65u6sHStCZzaxgpVtyzKVn4s708qaNM7OznXVHm/x7f+QQWemVb0D8H5OwC/u9xhOrC2BP45Xwx8nBPtTthqV3TqJr2i/H6mGmlLuzbhQjyq3T+cIvJDWZUB+krp/Taul8S2k321mVbwDIWWwZVYRxHyNyh6bD2HDc/EhyIVgdPXk7kOHYl6PwNdMLIQN35VgilcGv8RUszZscVo7yxq0i9qyK4cUMegMvJjOrRxSAuc3KdvNy7b3sH1WJUSP5dSObj5iuA1uH1XiEFvOK1arJxfvzmnZzoxXM+g8eBV0TvGuCjhLBqGKeyRCUbo9EKOLUq1tiwpw71enc7zi/fulYSagBFB66y1mCpTjV5e8wgi/A2G+gKIUNEzrSjLaoTzvJUvR2p6/ZUGYq3VoBUbxwxTokuJp5m7912Wqo1W/7WjECL9UNXMXNdIGh0Pq2BZAi6Z1ds2tZgcmzZyWlaGj8Yp3HNwJ8LXgLb79BOh64Bl8B4rXgifo83okQFGa+9DLC9ohEAO+wCFpSjqnUbx/3zS250urueGNqpjjqUX5vtT+fdXxF+ycZ2NVO0cl2zBUe9I1JVDLiWtHF0/7vjJsGTPOBpunVKgejtPRDezYtNnLjzqreIQeB3bg3QnuEPrCvolw/kcbPP69QbYnvzei4etNMvxaMvz1x9cb8E3gA7haWNjjqRzVy+A56EsQ+sWdSqSfFdcMq8fmwNFIG8Sdb4TC5DYGzJGLdrTe449RiscKM/Ft8OeRBti9uAwOr6zE/yZApxHs2MklEDHKcZNmFebxp2KUgI4CwI3f2BhoabyaInqK7IuSla3s1qHnbLaeqncSdKOK1wNvJJ2zLGDQHYB3R/GDn8CCngkYxAk2rxtZIgZvaN3RemBAh7agOwV7j2FhrySoKFSKKz+FFcOi3smqdE6reKrXH4lUijgVBR2sF081e6rc0fRNxIQ82DSjEPYFWllX7uymKjZPf3FHNVzaVQMXt1fDmQ1VrFS7x78MNk4tgajxhRA6RKjR+/fMhXOblA4fjV5RRE8j1o66czSBs21WOXTgfk6LtqkDgVWYs1PdXgBPRsWbRxcUj0DHqqNGIHSq1yP4ziheUbue4gX4BJ5B14KXoHsunbOv3Pn1S4KY7zJlRb7qeA8xU7JZBc9RP15SvH//VNi9rIj9Hlo0hBE+LhthZ7I8fsVwjNyH0thVFgR6oWEq59cjA/x6YlzgnQ2Lu+MW0UdI7ej4FAV4YcMwtRshpHSUzlEOf/eUUkWjWTs6Ik3QHXXn2Dz9aCs7Fy+ti1sa0ANYEbZyoIJGrK/tUf5ca/pLTOdsGOgJTRqj4HnFy2rXgHemeMv8vg8YdAW+BxRvALxvryewO7BA/OdTJ+0lBPukwTIvquIpebxW8csGpsGmWfnyw0JDkOu/x3RtcIaqcieVbJcPyWYNm7wnbbj/v4XEq8/YlK1uPx4txCsPMu4pscnt440QgumcXj8+mlz8sGLIuKu0Uu/98hwhW1n1TjpCRfs8NWekRXPyG78SjlBJ3bmuUTwPvlGEzoH3iOI56GrwInS0+ejij8VaxX8+QGFqK6qfyrj2BRxVyRbz94hJ2fL5dNp3t/sW4sOQrqrcEfhQH/QAqG4q4FBhpKJQyO/pJM1yr2wIHIAPBubxPHhK5Sivp4hfWr9uqWFFG2dHqGjY8sEZJSVLudmKEXwJB53as2VwKBi3DTGCp+marVNplFoo4pgFb07xiqtn0CVzBF5P8Tz4Bb0fwfxeaPi6oDd9L5hvn0TZFvbBPbyvYIv6PoGZ/3wEZ39Q9ubUe02wqE8SQndcuZMUH+RNRZsMqLUpAdFPISWwFFM5bck2eFgWuv4c1hihWn78JeXYFDVqTq2rRNh5ENgfHxB08QSe+vGxXxXJGQGlWBTY0cEKZ4MYoYML4cZPyp9Pp2iker0Enlqz+xZXybMC7c3vWE4fM9bxeLWnFK8Fj9Dvy9CNgNeqfhHCXzkpGaKnpELkN2jfpkLUt2myRU9Jl23NlAxY851gK8elwa1TSrBEkfzC3hJ0ffBBmM5Rg6YoVXGlpzeWs6ieL9kS9BXDaV/PdNqcqS55Cb/troW1Xxfg/p8DAf1yYOss9RDHjQP1LMCjkq1j8MVs1JouQ5BWUQoGf5omDVXvds2vZE0cWjR7t3NOFdvXpSKOCn4nwesdqLDM60PQzYGXgC/sT+qOh+KMFnj75j3bZ1+jqmTTfs8b/rd33Bh0wlWEjvu8At0xeIK+BIO5lNtKgeb6z9WsNSsVcHjwyzHAi5iYy1Sen9QGRWkvxN+lXlTRe3ihCbbOLoGfw8rFX1XWn0dxX8e9nq5CUcArrp6gX96uQKeDFKuHF8uVOzKCvnNeBWvb0qICzc65CnQG3k3F867eleIZdHfBC9AfQlVx53vaSX80otIR+mChUeMM/KKeT+HeOeUNfnipgU3iSLk8Dz5sBLp5BL9sQCYEoeqXD86C/ctLITOuRTV7Ly1SOOXl0r7Lr0s7atkIlnrmToBOe/7V3crfqSCpnQV3NH4lQY8caYUffStRIMIfTpcabZ9dCdFj1LV6TyheVrsGPCkeod9j0E2DRzdPrwS9KK1FULUJoxSNd6HZCc8Z9GUidGfdOSrgXNmvFGjS7z9npdsQlsurmzT8Hk9TtpTSBdADMCgLdvmVwJMbz5ibNbJImVtnl7KWrDRlKwR3RUzp5A2kRdE/gy7m8gSdrkPZv0wp+rQ2vYMfplMXTtOgIfAuFN+Z++otcxE6mSPwelE9r3hSe9jEpxDxTQpEfI1Gr2hsf3eyx4eOS4HTW5Xumi3vBfgPSsJoX8jjnYGnAs7JdUoQWJzRhgEeBnlD0kW12yteAi+lc6E+ORCI4OkBoNbszcN1UGdT8my9RZcjUB6vGq9G5Yd6F8Djq8qoFx2TDhuqrtXTHn9slRLHNFRgyvYtHZwQc/lJiptn4OUJHMfgjSjekau3zO0tQTeneBk6Kn4eqn1eT8lQ/b0kw2ieTIzqfUVbiNH8rM/iYcPsLLkB0dzwGoO7VPDrL7RonfXjF/dNhj1BSoGmDiP5sFEZEIiRvaMmjR54NnOHRido6STNqtG5cCTcxpowjhYpffs8K4QNE6Az8AidBjFI/UXJyjZH5+NDvYtUlbswTOvOb1b6BuW5r+SbMaQCDg+dge8CxSP0uyCB11M8D16Ab694JZo3Vrlb1O8xhI5NxjdYSY02z89BF/9YLOCI0B2ApwmcjbNz5QeGevARk1C1mMMLRRyT4MVhy2A6LTsyF57Rno6L6vLxF5sg7tcmzO2b2AAmtWW1c/U0hBH7ZbH8+2gdC69CyIVyHs+gexfDn0eUilzuoxcQPkxdwHGoeBfgjSieB2+Zw6Ar4DujeDPg/QYI4CkekNaZH0phbrcEuYCjB37JgGSI+ioT2hE2LSq8bJyVC/4DU0XoaGYVj9ApyNs2v5gLtN7BmskFsLQ3ZgGDcljJ1tEEDt1zt9ffJu/VbO+fWcrq9XIBB432eLoCTVpx556zZo0EnQevgq4N7ETwstqdgHekeAbdKHhDezxBx32e9noZvmgEXujLI3i02ejib56oEt8CgLR7TbCgZyLu685n7pYOSobQ0elQV67swXsCC8GvL83fidDdAB8wMAvTNSVWoEFNKt6E+SgHKqTKHQ+eZu4ol5eWLaeD3X0TOUYp4NBBCor0q4uUv/OFrfVs0paCPL5y52nF8+Bpj7fM6XWHQVfgu+fqF5Kh2uf0iIPZ3dC+UGxOt4fM5naLF6w7xgHdH8G0v8fBxrmZskJeNL+FleMxUEMP4KhJI8FfNjgFlnklQ2m2knPTyBUNWEqVOxm8ph/vDDwdqLi4UzkwSeXbFUPJ5XMnaTQzdzR2FTY8H6wZStn23qkmTOGoVq8UcEj12+fY4DVmLbQoXaTx6nCM6KWUzpHi9YI7Gb7BPZ539ZbZCJ3MjOJ58LLi0eb0eADndmAadLMeEq7XyZZ4g7d62RKu1UHyrQZW2JHWyY1W1pbV1upVwZ13CkbwSZAVr1TaLuyqAF/M36XKnTuKX9o3A/fvBvFPBEi80sQOVDg7O7fCO4/daimlnxRn/BRYjns/pnViOseKN96FcHaD0nNvrHwDsZOEyRsJuh54HjoD70DxMnQn4CXFy9D1wBtRPAPf9yHM+Ow+5Cer75Axu6zZbUzpSwY+EcE7Vjx16eIvKy719i81qPSncgHHtOKHC+lb1kMlxrh+oAaW9aVhTBqu1IAXFR80IAeDPaU6SJceUmCnLdkS9JQ/lD87Fff2lUPVebwz8J5UPEK/LUPXA29E8Qv6xsGM/9yD/JTOQae1b0UBp3Z7xRN43x5P4PohJR5IutkIs/+NDwtG9kKnjqC7Vjy90pQtDWEEDsyASrETR+tETAXu8wJ06ewcD34FRvIbpxarLkz47cdaVqdn6ZyY0tFDsG5yCWvtSuvXTbXsKhQJuh54Ixcc8oo3ssdbZvW8DbMMgDei+Dk97sPh6AL4/XgFXD9aDjckO1YBv6PRq/S1YJXMfjtgA2uWEtWW5rTB4v4Y4ffX68cnw/zuT+D0ZiXootz60p5KWPt9NgTgnr+4TzKr3NE+TwHeErJ+lO6h9U0Fv95kaewUTdjILNi+qAgeXmyUI3daOxeXQJAXuXfu0CSneOrOPbqsqJzGpGImF7KBDCmdixxbyE7LnopVYoV2zAo2Ty1lH1TA5/F64I0o3gx4AToar3g+uDOl+P5xMOuLezAdFU824z/3BUO3P/PzB7LN+lwI8GaxQO8hfP/3B7B2ZoaqLEvpG0X3ev34RX2TYN30bNUBAlpU4qUBy8c3GuH6z1VwepMNDkVY4acVxbA/uBgOhJawM3Pnt1fArRO1kHG/Geq5LEBaVJ1bNTqHBXLKaVlF8TRbv3tJqeohuf5THbp7TOu4dI4aNKFDCiAvUekKpt9tZRcZR0npXGfBm1S8ZWbPWwidzHOKJ9NN52RT8nhK52Z//hDiLimBDjv08E06zO+RoAGvKN639xM4HFUMbRj1e3IR8O2+RRA4KFOVx0uKl07Q8Bcf0e+JGCv04/l0ju6r37WoTPVAH1tdJUJXD2K4Au+pdI5BNwJegG8cvMM8Xkzp5nSPg0UDKYdHE8FTyTZkdBIrx0qrMK0Ff4aGLoQRLEfgF/R8jA9HJjtgUV3a4dYxZVp0opYGK37bUwXh4+kYdAaL6LUFHHqlki1N3vLryOpydsedKo9HCx6Uyw5QSqsK83TWnh2tpHO6V6Hw5+M9GNxZZvYQoPPgPeLqefADHsK83nEw/V/3IWZ6KmyanwFzez5UV+4GJcCszx7CgVXK3Byth5drMbfHn8M9Xs/VL+5Hx6SeQNCwFNgyPxdObiiFO2dqIe3+MyhKa2NHn+rLX7IrTKhOT2NThaltkHbvGZuhP7m2DDbNzseIP4Ndebbcm5u3E9M5Ak9NGv8+GfDrD0oASevxtWcYBGZjwGafzu1YUKo60nzxB2rPClM4eqNXKvAOFN9ZV4/Q/wRmGvCeVPy8XnEQODIRrh224Z77DppqX8ESb1K3AJ7BR/Dk8snN3z2nvlHqxpFKmPOFI/DqdM5/EO71fZ5gvk6WBDRivXRQCkbtaayCFzYGYY7C6N0nnd2D49cHA77eKWwAgwYuCbrDdG6E0JZd0judzdfzrroSU7TwMRjJD8uRo3pK5+jsXLBXLmTFKQEqzdZTYEfRvJLO8eB1FG8WvAvFW2ZI0FWKtw/u9MAbUfysbvchemqK+E8X1tVDNpiGypehi4r37fMIFvZNgJzH6hGnG0crWRWPDlTQfL0jxasKOGLJloYyaMKWjkizV69UCByMKZ2363ROAk8j1X4I/Pgamypwo8uHab6exqlV6RzN3WH+fixSuYGD1tmN1bBck85J/fjOKp6HzsA7UDwH/Q9QwBtXvNngbtq/7sLNk8qbQHvo2llpLJpfjPu7BN8P3Ty1ZwOGPWGpG7/ir9QxpdPxKWeKl0u2InjBlH684QIOQg/0Soel/dPh8p5qVbxAgxd7llqFy48QOJ/OhQzNZffc8efc8x63sfl6KtvK6ZwIXobfRYrXunrL9O4EXQ+8veLd3eNnYw7vP+QR1FcoEW9pbhsL7qgfzyuewM/p/hCCRyWxCh2/ijNbIXZaBkvnyN1L0F0pXhe8TgGHXL1fr1R2w2XSTfWBSeq+7Q+ysrKtNp2ja01pf396U+2pjkdVwNLeOSyil9M5LXQ393izBRwG3Tl4zyie9vapqPadgVni2yCsBxerMae/j/9d3ZqVwAei4rMT1W8g3VRxaa8N4T6BOZ/jz1IRx4HiDYPnFL98SLq8xx+NKoOGKkWttOhEzc5F4uVHXFQvpXNL+2TBeU2gR6uu7BVsnVUsuncNeBV8HryHFK8BL0O3B+98jzereGrLzu+Lbv7fd+HOWfXFgKe2FMPUf95jaZ1W8eTqfXGPv33a/o2sLGqHozHFsGxIEsKnqRwM9Abx4EXoLsBTyXbpwBQM/PDnvNJg3/JiyHuiBGDSKkxpg9hv81Dh6aqoXgJPqdy+wFJWIHK0GvEB2jwDwYufRvWhFK8N7BD6TQRO5jnFOwM/p6cAvyhdaT5Qa3VvWC5M/cc9ldpZcIfgF2BwR1H9Tyvz4RlG/tpVg/n5lZ/wHzg9izVq5ooHJmnQktK5JQMwsh9I0X2yYPg9naZZ1Psp+PbAXx+QAmu+yYZzP5RDSaZ6O6FFlxDdPIKpFrp8OklD0bwqnRspXFy8ZXYRtDQq0zME+e4ppWtHi6p/G6cWscjeueLR3ABvRPGWad1uwjTD4AXFdyadW9DvAcz47B6EjH+sAvi64x3sCsy2UzyDL6ZzlMeHjH6KKV0Nu3RAuyiypuDvztka5gE2z8uGyK8Q0thUCB5BlgKhY9IgcnImbJyVAz+vKoGbR6shL6kFOnDLcLRyH7fANt8CVqtnV5qyiF6I6iXoS/tlwMbpBap7c6g8vC+oFBZ+ngHXDyiVRlrk6jd8R+DR1Y81Cl7H1btRwEHovwOBd6543tUL8PXSOUOKR/C0v8fOTFW92RTR7wlBxSN4fo+XCzhoVLkj1cfOSIdH1+rgFT4szlZH21vch1+xY1B0SLKh6hUr20rzdXqrMKUVDq4sYXv7kn7CUSpH6Zw/pnJb5hQyVfPr7KZKpv5Qn1wI6J8Fvx9SBiJp1VhfwfopRhTvWVdPZpnKoAvgO6N4vT1eV/Fo3//zDvywJEMFjiZKTm4qgun/xt+DUT2fzkngaeRqXo94DPTi2Vj11YPlUF7g+OSKmUVB2sNL9bBzSQHm9amwuE8K7vdSZK9O56gduxij+/3LS6BN82G/l3ZV475PdXshqg8djuAHZMGfx5T+P62q4pew9mv6pKkPG9wx6Dx4HjoPXoavAd/ZdO77fxD4TFS8+o27fbaKuflZmMc7Urw0bCkoP54NW9Lo1a87yyD5ViNUYJDX3vrWrgtHi2IIygDqK19C1qNm5uL3BBWyqh3t8zRiLRRvHKRzPsK+Trn7hZ2VquocrUs/VjF3Tx8uyKdz9H0ggr99Ug2+svAl+9w5usBYD7wQ3PGuvnOKt0z94gaDbg/eiOJF+AZcvZ7iGXhU/Lq5qaw8yy86I0e1elI9nZnTKp6fsl3cHx+Ano9gzhfxrDO3FNO5sPEpsH5mFuzwz4U9y/NhX0gB/BiQD1sW5ELk1xkQ7JOC6d5TVren8Ssq2TpL50j1dPNV5JfZ+GCpc3eKJ05tKAf/Puno/tVRvZTOSeDvaoI76tbFfIngvbtG8drunADdBHgBvgDdk4qnPT5s0hMoyVKielrUrLi0rwz8vBJgxr8x3+8b71DxqvHqgcqItW/vRDZhSzYfje65Y1F9/yQW0bNjVE7SOYJOKR25enL51JzhP46EVo31JewJKGbNGjop6yidkxU/DMEPzIL7Z9VdOjoPv2ZigWPwMnT3Fc+7esv3CJzM04o3vcf3i2NRPXXk7p23z8mrre1wMCIfA7xHMOM/+PN9EL4T8GRUqpXMccnWeR5Pt1nSESoawfpxaSFG+fa5O60bh2pg7r+S2V4vp3K64OkTJXPYEIa2PWvNbIeoCXSRYdfu8Qj9ugJdBC9Atwc/wyn4ziueonoauZr+n7uwb2UORtrKxQPSsma3wuE1hbB0aCLMRPg0Wr0QHwSH4M1+QgUajVdTDk83WtLU7b6QIsiKdz73R9O8ZzZXsLKtULN3BT5XAO9F41bKiRdadHlh1Dgd8DJ0c4qXPqFCAm/5/nOCLoB3T/G8qxfgdyqdo9c+cZi23YGAEQlw51wVe1O1i4IwmsXbND8TXT8+AJ/FYdD3kO3rvv1I/QidTKN4OkghKX6pFxVt6KbLJDZdO78b/iy6fBrDury3go1dOVp0Nv4g5vj8dWiUAtLlCMbBC4qna1ASrqjjA7rgkKZw6LYr44o37uot3yF0MgE8p3oNeL10ToavAa/n6gX4zl29oPo4mN39PuvOxc5IheQ7DfKhCO2qKmmH+xdq4FBUAcRMxYBrxBN2aHJud7RuFNwJr5JRtY72eCrbBg1NhuhvM2DfikI2fVOc0crqBY4W3YtzIAz37v4pMO/zp7Blbr6qAkfgf1lvM6f4oXScKhueXFeDL0hqg/AxCH6oK/C84o25eoR+jUFXwIvQXSied/X24O1dvVnFS+DJZuJeP/Pz+7Budho8ulbLCi56i/J82hZo1IouLLx1qhquYB5/cU8Zmg2uHCiHP09WQ+K1esh72oyxQge80qmV0yKQuU+a4cDKYtaTp+laCuyCMZ2jr7fOz1edcqUH80SsjeXwRsGHIHi6EEnbmaN2LA1kmAPvWvGWKQy6PfiuULweeFeKZ9YX4SN4CvZCJybBuZ1WltJp82RPLarn3/qlho1fUVq3sNdTNlqtbcsS+G2+BSrw9HeigQtSPFXvZOguwNNnyKfcUoPPedTGbrvypOItUz67BmQSeH6PN6J4Hrz9Hu9ZxUsnaWb3eIC5+z12CwZN5FCX7umtBqgr79DtcDlbBOl5/WvIevQcrh6ogG2L8yBwaAq72VK58cpxOieB376ogE3wSos8DrVmJfAuFT+KLjIURq7T7qoDx6y4FvaBBcK5eMfgheDO2B6P0K8idDSTincOvusUz0/ZLsAHYE63OFa8oUOT/oMTIHJKCuwOzoXTW0vYQYr4K7WQcqcRMh4+g8z4Z+zqMjpHd/t0NZzfVQYHwwthw5wsCBmVzKZu6VrThb2oRWuuH0/gd/oVsA8MlBYVbI6Elwrg+SaNLnhSO91TnwMZ99X1Cvp+5fA87uNF3Ve85VsJOineLfACdLOKd6eA4wg8G61G80Vb0DeeTdnO/OwBS+fYqVk6LctOyaL1IHvEZu34wM63F6Z6/TGyH+QknXMFXlT8Lv9CNlkjLWrLHlplBrygeKre8efqaFGUHzyYbrpUn49n4HnoKvD2ikfoV0ABr1Z8V6RzXaF4Hr5UqhUsgVXvpFdq1Mjn4z1UwNEqngYxdi8rhJft6u7hwTACb3/BoZ7ig73xe58cyElQF4SORVSwWXr+QIVrxavBW779D0In0wGvKF6A7wi8p4I7AX7nwdvdiuGgcufsEyrswavhu1I8fQTZnsAiFXiKNQ6ssJpSPEX0NGVLhzCkZc1oRy+QB6sxuJMOVJh19ZZvZOg8eHddvXHFd4Wr11M8X6t39QkVavAidHcUj+Bp7IquTpMWgafPjjezxy/rnwX7AkrlO+8o6Nw+38pOzGpvxHAMXoDOKx6h/wYyeK3iuajeCHg9xQvgP7ziefAMvgPFuwbvpuJF8PtDilUZBX2gwN4g4+DpVA2dm6PrTKX1S2wlBA3SHKEyDL5Ygs6BN6h4Bt0BeBV0p4q3D+70wLuteJOXH+mDF6GL4M0qnk7K8kebqJdPXTkj4MmoK0dXoUiLPrCAjknzR6icgdcGd5av/y1B1wOP5lFXb1zxXRPceVjxBsHT6BU/10cXGfy4FMH3dg6elE5FGxu3r5/eWMWuLXd0B46R4A6hXwbX4NWK73wBhwdvr3hPp3OfiuIPhVtV4Nsxtdu1pIhdjqAHnm682jyrSL6giO6s3e1vZdG9fHbOleJ56OjqRegieBm+I/D/dxQvwP8wijcKnl4J/JFIq6p0TMWcnYuLYHFPTa1+RBYEeWex0Su+NFtb+oodn6J0Tj47ZwQ8B5+Dziv+SqcUL0DnwQvQ7cE73+NN9+M58B5RPAddDZ5XvAjdhOKPRmM0zoGnuv3BMCv7zDmavqH7b5ag+mme/gF32xUtGrqkiJ7q9do7cIwq3vLVvy7BV/9yBP7TVvzHT+fcK+DQq2+PZDgeU2bXKs5NbIEre6vh7JYKuHOqnt1uwS/6YAOavwtFYykdgWfwzSlehI6mVbzW1TP4rsBzqteAN57OCYr/FAo45sCr4TsFP0RQPIHnjz47W+X5HRA9OY9dfCTn8XrgXQR3lskSdEfgnSre08Ed7+oF+HrpXFcr3hx4Ebobil/UO4XN3tG153qL9n+6xJA+i4bdgYMuX1XAkcCbcPUI/SKowGtdvVuK90QBx17xent8ZxTPg2fwP6DiqWRL153RePXhCCs8+q0RrJkvoKKgHXIft8Kfx2ph24JC3MMzYPngTBbROyrgmFW8ZfI/CboavAJdBN8liheg8+Bl+BrwXVqy/djpHIIP9BauQqH77QK80iFwcDoEDKIj02mYstEHF7iu3BF0o4q3fEnQZfAX9RXvFLxa8Z3vzvHgRfgGXL2e4vWi+q5VfLKieFfgGfx0fJUsA9WvHKGyuwNHF7yO4jXgEfoFUIP3jOJ5V+9c8fbgBfj8Ht91ipegfwqKtztCJUI3B9614kXo+uBd7vEfMZ3rzB4vwHeuePfBu5fOSYqXwXNq96TiLZP+gcDJTCtev4AjQHeueAG6PfiuPlDBg/eI4s0eqNCCZ9A58B9A8Qj9PJC5VLxD8HqK1w/u3FM87+oF+J1J58zu8Tz4D1HAsVO82+BFxWvAy9AZeBeK90w6J8B3BL4zEzi84gX4nnX1DL4zxRsCr4ZvCryr++pdgedcvWUiB90Q+E4oXs/V6yn+Qx6o+CTTOS14txWvdvWWif/zK5CpwJt19VrFdzK489TMndng7sOlc2RugveA4mXoasVL0PXBK9BF8K4ULwd4CNyk4nnw9nt81ylegv7fls5ZJvzPOQG6I8U7dPVOCjgeVrxz8P8Nihehf2DFM+gq8Bx09xVvrB9vHLwA3azi/28UcEyA95DiLRP+jtDJdMF7OrhTK74r0rkPqXj3wX+8Ao5l/N/PCtC14NEcg7/gHngG3zF4RfECfEfgPRXcCfA7D95O9Q7Ad9mBCl3wAnxX4Bl0w+BduHpPpXOeUnxXuHojiv9QByrcdfWW8X8ToOuC56Az8GZdPbfPO1Q8F9UbAW+8H/9hFM+DZ/AdKN41+A+reMu4v50BO/AI3Sl4F4pXoIvg3VQ8g+4AvAq6U8XbB3d64P/fKeBkwf8CpQ6DYZN2WGoAAAAASUVORK5CYII=;" vertex="1" parent="1">
          <mxGeometry x="1116.67" y="669.07" width="101.08" height="101.08" as="geometry" />
        </mxCell>
        <mxCell id="4ohFSgvwRZ63tA1tGF-L-23" value="Amazon S3" style="rounded=0;whiteSpace=wrap;html=1;fontColor=none;strokeColor=none;fontSize=16;fillColor=none;fontStyle=1" vertex="1" parent="1">
          <mxGeometry x="869.96" y="777.21" width="250" height="30" as="geometry" />
        </mxCell>
        <mxCell id="4ohFSgvwRZ63tA1tGF-L-24" value="" style="shape=image;verticalLabelPosition=bottom;labelBackgroundColor=default;verticalAlign=top;aspect=fixed;imageAspect=0;image=data:image/png,iVBORw0KGgoAAAANSUhEUgAAAH0AAAB9CAYAAACPgGwlAAAAAXNSR0IArs4c6QAAAARnQU1BAACxjwv8YQUAAAAJcEhZcwAAFxEAABcRAcom8z8AACBBSURBVHhe7Z2JfxRVtsfrb3nvfT4z770ZdVRkDWENILKqI4qAsq9JCGsChH0VFHBDQDZZdBxQGUUYHRFZEiBhCdn3DUIggYSwhe33zr23qutWdVd3VXV1d3De/XzOpyFA4JNvf88959xbRJmTcAlz+uRiLo88zO2bh1Rf5CONRb8CHvN4FGLey4WYz6MI8/sXYQGPYh7pLF4p4bGQxYBSHot4lGHRwDIsHljuiyWDKnyxdFAllg4WsWxwlYghVVg+pNoXK4bUYMXQGqwcWiviVRaXsUqN1a9dkaIOa17X4ireY/FXFvVYq8a6N65JcR3vDxPxwbAGEW+yaMR6Hjew4S05bmLjcBZN+FCLt5t5fMTjFj4eoUULPmExksVtfMrjDj4ddQebeNzl8dk7LO75YvO793ls4dGKLaNbsZXHA2wd8wCf83jIYxuLsY94bOfxGNvHPcaOcU98sXM8IKBbgs8X4PuZwBPwoOBl6K8I6AI8QbcJfpkEXobOwRN0N+A5dBW8Bt0M/n0feBU6B99oAZ6AW4AX0K3A39bBE3ADeA5dB7/ZFngBnYNXofvAE3QD+PFPoMzWoDs1PhR4A3wZvEfGuwTvzHgZvICvgV8vgY+08ZvfDQGewgBegh8IPEHPQWjwbc94Lc1H3ng51WvQnRp/K8bGC+gaeGV2bwbdDngvjKdwAT5WxluBt0r1VsbLqf6jYOBDGe8UvARfBq/MYtDDBe91cTfQIXiz9WGCXyuBt5PqrcD74BNwd6lewPeuuCPoFBy6K/BOU70BvLepnoN3abyc6kMbL4MPz/igqd5svNNUb97jVegC/CMG/SJBZ+ECfFjGy+AtjA8APtLG+2w3gf89tXPKTAm6M/AuizsVvCju5FQfHeNXWYCXjbcC/3sxXpnZ6wJm9tLAe2S8TfDhGC+Dj/0AR4NuH3zUjDeDp1ChU0TbeB9098bLqV6GzsG3IePbWjunzNCgG4x3WdzFwHgZfCTaOSvwXg1wgqd6+8Y7SfUE/TwM4J8S45dagDdAtxjg+GwPAv73ZbyArhmvzOhJ0Fl4Al41PsbtnFfGy+CdDXAaVOj+4O0YH9EBDoWSokE3g/e6uGsjp3M++Db3eKtUH3iAY93ORW5WL+A7Ke4I+jlYgndtfHjtnD94+8ZbpXoOPoDxPuhBwLs3vm22c0pKDwY9CPj/N97PeKftnFPw7oz3T/VWxivTGXQz+FgXdyp4UdyFv8fL0Dn4AMZ7v8er0EOAd3wer0K3bXyAY1mCno2A4CNtvE3wkTbeKXj3xgv4sTDenOpV6Bbgn9J2LhT4hf2qsCChEukJVUjvU4WFfehjLPqyqMHifuzN4FU7Zy/VR7OdU5J90J0a77Kd88x4d6l+cf9KfLXsGgpO3UFhxl0UZoookuKn7U0cejDw0dzjLVO9U+PVVK8kd88CC3fgBXzPizuKsFK9xXk8A/7e8Brca3mMUGtP+nVuvJviLnQ7Zw+8Dz4Bt0r18j7vD17ANxd3PuiOjXed6lXwMRjgLHy5AhvH1uLxoycqWuv1zdpGSvkq9CB7vLNUr0Ln4AV8t8Y7GuCYUr2S1P0skjTwbc142+AtjDeBZ9A3jKnBw1YBncE//mUzDm++gSNbbqD5+iP+cbb2r2bQq8Mq7rwyXgZvZbyw3cp4Y6pXkrox6Gd90KNnvBftnJzqQxu/sF8F1o/WoT988ASr36jB7M7lmBtXgdrCVv5xtjj0BAbd+azeCrzTds6O8QbwNo0X0FXwPuOdgn9KBjjp/coDQK/GLII+xw96A1X3BD2m7ZyA78h4n/XWxiuJGnSnxrepdk5O9dbGC+jVhvR+bF8TDm1q5CnemN4bqK2rEtBdDnB8tpvAR3yAYzaegMvgCfoZsHAF3tL4WLRzMvjAxqf3Jehjqm0VcgfeI+i9q6IwwJHBC/ga+Egd0iiJ8QK60XgV+tNgPMWcnkWY3a2Qgr0WY3b3IszpTh/vXoK5PUuw6BUBP71fGVa/WWWrZdu9oJ4PbrwY2YY23ljcCehOjbc/wFGmxZ+GDl423gF4s/GuwTs3fl6fImxOqcbeZVewj0cd9i0X8eXyq9i14AqWDC6jTCDAL+hbhi+XXhXDmUxzqMOZbTexbHA1j3Bm9XaMdzq5szJeTvWh2jkO3Rq8Eb4j8FEo7mZ1LyC4l1U3rdepb24irXcJQRfg5/UuQ1pPil5lmMeDfUzE/N4VtJdX8OldoFm9D36Y4GP5QIUPuhG8Cj3WxodI9dO75CPz+5sqWutVX9lKhrP93lTcmSd3vrGtGNnK0Dl4l8bLqT608TL4yLRzytSumT7oRvBt3/jpnfNx8tsbKlrg9s1HqCm8x6PxygP1o8DlkvtY0I+gU4oPNcDRRrYaeKfn8VbgZeN9tpvAR6ud49CtwavQVfC2jY9ScTe9cx5OfqNDZ2k8qX0+UjoVYPdiPe0z6PP7iQo/1ABHt9298dG8Xu3GeB90e8Zn6caHAh9p4wl6sgn6yQM3MPXFPA5+V7oJel/W2vm3c4sGiOKO9fBasMkdG9kuolgyQIVvYbzTVO9+gKNBtw/eynhlStcMH3Rr8G3TeDP07CNNWDykBEtfLcE36+vVj6rQ+7D2zjjAYXs8a+PWjazCB++yqMYHo0Wwyd36MQT19Sos6k/gTdA5+DZkvJN2TpkSlwF74D1q5zwc4CR3ysUpaU9//Ah40PqEx6OH+gDmSqkGXR/ZslQ/r08p/rW7EffvPOZTukDBisCPJtaS9RbGhwBvx3gr8F4NcMypXkA3g4+3Y3wQ8By6BD5Cxid1ZNAbVbTWq678PtIS2DBHHdsS9AUvl2DJkDK0UPEXav3z8xtI7VEecI/3K+xU8D7bg4CPlfHK5LhTmBwIfKSNdw1eNZ7Az+yeh0+SKnDj6gN+eBIo7t56hO821mNuzyLDyJZBXzq0DLcaHqpowbOD9ueeSEO7n7YR9O5lBFwv7rwyXgbvbIDj/oEKFfopAd0VeCN8R+DDLe4I/OyeeVg8tAhrRpRgzchSX7w3sgzvjSrDqrdKkdq7iCAbZ/UL+hVz6M3Xdeh7l9Zh9ZuVWDWsEiVZd9SPAkc+b+TQw23n7NzAkY2P1AMVyuQuArpz8Cp0FXzUjWc/7pOPuQl5mBGfR0VdLk/3LBI70CtFYnuq5DvQr8flY0bXAnotwKz4Qg59PoM+pNQA/ZOpNZjZpQgzOhcj78Rt9aMC+tzupb4BzhKKZYP8Uz0HH8B4H/Qg4N0b77ydUyZ1OQkWnhrvFLwN42f1voQZ3S8R3BwkdsrB9K6XKL3nUuuWjxXDivD+2DJ8nFiBbanV2LfiMg6sr8MPn9Xjnzuu49d9DTj+90ZkHLyJX/Y0ULtWgjQq7JaYoG9KrMGsrsWYGVeM/IDQK7B4ADuircD8hHLM6ylGtry6H+St8U7bOSfgdejRNt5Gccdek+MuYlrHC5jd6xJWjijC9vmV+GHzVZz58QbKLtym6vo+bt14yCttO+ve7UdYPLiEp3wz9GvVrWKiV3APd6WTuCNbCXq3UgJdhp1pdSg7dxdnvr+Fw1sasWdhPTaOqeXmz+9VifS+4g0QyHjv93gVegjw5uLOB90HP2zjVejhGE+WJ8VdIOAX8MGkEvy0ux6VeXfQei/0kWioxT4H6+Xn9hLQ7zSFrt5/2t6I2fH0Z8j2Hz/z7xbY56wpuI9TB5qxI7UeSwZUYWFf98ey7o0X8EMZr0zscsII3RPjHYA3Gc+gJ3Y5j+XDC5DzW5OtCw9ssS98CxnfcKUVtcX3UEpZID/jFi4ebUbWkSZ+MMN6+p93NWDhQHEkm5ZQhJxjt9TPEHixSn7b3MtI61WKuT1KkXmwWf0V61V+4R62ptSFBV42XoNubby9VK8Zr0zsfAIsvAEfvvFJXc9j2Zv5uFGv31eTF2vPSs61IOMfjTj46RXsWlyNT5LLsXY09d2vFWJe/wJe2c9JYJV9PmZ1Y4VePlK65iElThR17ISOncenEfglQ0uwe9Fl6QyeYoWIr1ZcxaakGir6SvnINr1/GTZPryXbGyi9N6Ps/F3cpH9PoMUGPpumXsGil2NhfPA9XpnQ+TiHzsNsfQDwUxyBN8K3A35iuyz8uK1O/dKJdf1yK/ZvqMWKtwsws2cOpnW4gCntL9BeT1mh00VMjxNF3qyeuZjTO48DZ5V9al/2BijAPBaBLlu+UkS/VsQrehHix7PpVdzAKebn8Nqsfsmgcr6vs/19TjyZT+l+Uf9ybBhdg0OfNuJGnfENcPyrJqT1qIxIcRfO9WoOXQZvgC4Z72yAo0J3YfzkDtnYvbxS/bKJdY+syc9oxqGtddiaVoHVo8jS/rmY2YMq+c6s0LuIJKrqkwl+Sjy9AbrlYlaPPCr+6A3Qm7V19AboU4C0voXU2xN8LRh8FtS+ze9Hr30p7bOgyn5eAgFPoIKvVzFSe7L9vIS/Eeb2oD7/5TIsG1qBD8fXYM+iq/h55w0Un7nL7ZbXt++zy5UCulU7532qV6Fz8AK+GbwyoZOAbgWeww9gfGjw7oxP6XEeyd3Oo5hSuNVi+3cj7d3F2S3I/KERR3bW4+t1tdiWVokPp5ZhHaX6lcOpJXu9CAsHk9mvCOPn0htgTi+R9ufwYB+jN0IfZn8x7fXssKYUK4eVYe2oCmwcX4VNyTX4YuEVfLv+Gn75ohFZh5tRSmmdWf0gSGFZmXOfn9Atpapeg27HeCvwXhpP0H+DH/iIFHf227kpHbOxZkwhPzhxs1jxdaf5EZquPcD12lZcrbiPyyXscsVdVOXfpU6AIpd+TK/s56xNYydxVytb0VD7gP7cQ9y59QiP6PO4Wezv35R4JeC1Kw4+gPEadLvGW4G3084p4zn0AOAjbXwI8GxvP7zDuLdfKbuH2pK7hhO0WC7276grY28qY9F5bN9NfkBjZ2TrNNV70c5x6GbwGvRYGp/c9Ryv5q+U3VW/lKC02oK5/XKwYkQBtqRW4LuPL+O3/ddx/pebvEWrr7qPW40PcbflEWWJx3jy2N2bgx22sCxz7/ZjPvhhQ5uKi3epvWuhtu8mDm2+ji/Sr2D92CosHVKOcvo1bbGj2KVD2JSuIuwbOFbgZeN9tpvABzNeGdfxGIeuw4+O8SHBU/8+6aUsfJJSon45xTq46TLGPnMW0zrRNtCBov15PshhVX1qv1wsGJSH5W8VYu2YYr6/b5pRgc9pr9+ZXo3dS2qwd0UtvlxVi69WX8ZXq6hVW3kZe5bV4otFNdgxrwZbZlfj06RKbJhQiTUjyrHsNarQB5XyYi+1ZzGv8FlBx36c3L4Ih7deV/9lYu2aX0e/VsZHtrbu3LkE78x4GXyDCl0C74nxEnQjeNl4FXoQ8NOpqGPgT/1D/8Lev/sYq0YVUNV+3jeyndUrh7ICBYFnFf2MbjlIoZjelYIq+uQ4quy7UHS+RFU+m99TdMnFdIoUFqx/75qPmdTPz+pWgNk9qMDrVchHtayXZ8DZUSy/hPGKuITBqvoNVOixf4+2so/corQuenq7d+78CruIGa+neg5di0DgrYx33845G+BM65KNeQNzcJOKMm0VnL6FxDi29xtn9Y6OZfnRrP9ly0APVJgfoUqnN0Ba72IUn9UPZZobHvJj2fl9xN27QJctY2W8GTxB/9UH3Q54OwMcZ+CN8P3A9zqHCe3O4otlxt5936pqygLnMCtBP6gJG3ygAY4Z/IASzOpaiP1rr6r/ErH2r63naX/xIOmWbRv9DhXK2A4MujPwBuieFHfBjZ/e/RymdMpC7skm9UsMKtgeIH1oLu3nLM2HYbzF9Wor8Km9irDyzTJeMGqr8PRtpPWi1N8/8terrcDLqT6U8Rx6uOA5/EgaT2meQV82PI8fjWrrzOFGKuayMcPr69UWxrMBDhvTslu32mJTuPXjKvkeb/d/xIiG8T7bTeCZ8QT9KIfuGHwM2rkJL57Bd5/Wql9usTbPKcXkl7IN0J2BD/5AhQaeQWeF3naq8OV15PPrmBVX5Ltlq12vbssPVChjCDqLQOCtqvrIGm/9QEVSfDaSu2WjMl8voOqr7mF2n4tIjj8vXcTwyHgJfGrvQtrPi+jv0wcxtUX3+N07NrO383x8KPDRGuAoY9pr0J0Zr0GPtvGT2p/FB5MLDVO5n/dcxcR22eJMPkLGp3TJw9F9DerfKP4Xi89Sqql4Y28G9Wo1CxfGy6lehs7BR8B4gv4LNPBWxsvgBfzgxrsHb6+dY2n+6N/06pnNuteNL+Qze3EZwy34wMaz8/iNkyv436Mt9mQNu2hpbufcGi+Dj0Q7J4NXRnPoOvioGR/GAxXTumRhdt/zuF57X0UAlOe0UPo/T5U+pXkPjWfHsuxkrjxHvxLNnohdPIQq+YRCX1WvQ3dmfCy+QwWHbhe80z1eBu/pAKdnNrd9a1qZikGs/Rtr+EGNsD0c8KrxBJ5N7779yHjws3txLVLYDRxTO2dtvP1UH3SPd2m8DJ7t8crol/7FoevwvU31HH4w422BN8Jn4JO7Z2Mi7e9ZP+vPst259RBLhuViWmdxWGNM9QK+E+PZZYxVw4v5Mau2Lv7azKt41taFmtwZjfco1Ydo5+zcwFHeJegsnBgvg49lOzel01mkv5aDlpv6oOTisZu0t2dRb69Bd2c8+zGb2+cc0y9CsjP6VcNLMKsHQVeremfg7Rtvleo5+ADG+6AHAa8Z74NuBd6O8dFr51hI4CnNj3vhNL5aV6ViEWvHwnJK82cNt2ydGs8eqGCXLuX1zYd1/EmaYAOcp8F4gv6zD7oV+LbcziXFZ2EqFXbF2fpV5sa6VqT2v4jEODatk8DbNH5m90tYMDCffx5tlV28w5+bY4WduZ0LBV4Ud+Hv8TJ0Dj6A8Xb2eOWddj/jHRvg25bxKnQV/KT2Z7B6dB4e3NePOY8fuIZJVNTxC5cyeBvGsydqThzQe/KHrY+xfmIZT/dOZ/XRMt4JeAGdQjZeLu7arvESeIrxlOZ/3HFFxQQ8Jv4bE4sx+SUC7+D5+MROF/BxUhn9eWn4s/saT/dyVe8IvAzdAN6+8UHBOzReGdXuJ4LOIrrGuwcf2PhpcWf5wYx8vaq66A4VfOeRHH8uiPE6+Bk96Oe9LqGmSP8cVyvvI7VfHr9Tb2jnOHwvjHeX6sMBz6HbAS/ghw/ez/oA4F09UNGDbG93Gh+nFOGJdDXu+y2XMf5FKuo49OCpfspL5/DDFqknp8+zeU4Ff6CCV/Q+6BbgzcUdRVip3uPzeK24U0a9KKDL4COR6u0YH+4DFUndCPyLp3HSdL1qxcg8TKY2joM3G69CZ9evVo0qMlx/On2okaf72QnGds4APqw9XkB3any4qZ6g/xM8TOAjbbwMnsMPYHxo8EbjGfgpnc4gdcAF3LymV975p5swtTN7Y6hp3gSepXV2GYNdw9JWU8MDLByaj5T4i7yiDzzAUcGHMt42eAvjnYIPYbwyUoNuMN6/uLMC3+YGOJTmxz2fiV1Ly1V8Yu1dVYkJ7c7Qvq9Cl8Cz8/i9q4w9+d6V1fy27ew+xnbOH7y983gr8F4VdzJ0Dj6A8RL0I9DB2ze+7bZzZ+njWZjU4TQundT/39hmMjf91Rwkds02gE+iIm/Ra7n817WVl9GMpC70huipV/XBwXthvAzeW+PNqV4Z8QKDbgXe3/ino507i4kEfelbl3C7SR/R7lmp2c6uYAno7Ir1npX6RO9O80OsGlnAn5E3t3MRMV6GHqUBDoceHLy3xgv4kTc+kcCzoq4wS9+nv3yvkvp5gs6uX6ng2bj2yzU6dPbg5JQO59QCz+XpnNn4UOAN8GXwHhlvAu+D7g8++B7v1PhoP1DBXpntRdJ4du/qStrvT1PvLu7cMfATqJ3bu0qHXnK+RT2l01u5p914c2FH0A8TcBbeGR/7do4inqC3zyTo+inZHirmRvzhFJ/esTTPzuRH/DGDp31tadBnsFM6tZ2LjfEULsDbMV55+/nDeNs2eGF8WxjghAI/jV4ntj+Nkgu66eymzYnvruHgplr87f0qfPNxDY79vR5Xq+6pvwMoy7mtQ+fVvQZewA8bvNfFnYsBDkH/EQx8cOPlVC/gW7VzkTbeLngGfXy7DOSeCv2dH+SVn9nMz+N16B4YH4MBTrDiThnOoQvw4RhvtceHY7wMnsN3CH5Sx0ysHptLxdktPHygT9oCLXa7tfRCC9ZNKKTKPZtX9obJXUyNl8FbGB8AvJXxHLoMXoYug/fBN4GP6Mg2zHYuidL8xA6ZmNLlNJaPuIQvVpTj6NdXce6XRsoATbhw7AZP9+wSxpox+fxePZvc8Rk9h24C79r42A1wAhmvDP/LIQ7dH7wd41X4NlK9lfHReKBiWtfTHP74FzMx9vkMTKC9fnInygQdaAugto4VdVM6sqqfDW70dk4b4ETUeJvgwzHefDonoDsAL+AL6JE2XoPu9QCHVfYs2AENP5pV79yJ0Ns5H/hYG++D7t54OdUrbxFwFl4bH84eL+AHN94u+MRupym9Z2L0sycx+rlTGPP8KUrjBLy7gD7uBbL/LywDZNIbgV2otABvaXws2jl3xmvgCfoPOnQVvIDuD35kUPBt0Pj4TEzqlIn5Q8/hh221OERx4OMqTO95FlPjztBrFv28Gj9uv8xj4es5mBanPTGrQZfAP6XGmx+oUN56jkEX4N0ZL6d6AT+cds7rByrGvnAS6yblqTW6uO82o484kJmRkG24V7dhaiH19vRmCJbqzca7Bq8aH4N2TnmToLMQ4CXrTeCt2jkffBN4q1Qv4Hub6jl8C+PHvngSa8ZdUrECN6+3YkZvgk7tXEpCluHcfd2kAj7QYfu8I/BtfYBjAk/Qv+fQdfAq9BDGy6neH7x/qndqvAzeSTs3ib3yyODmj3n+JPXqRugpvdlc3h/62on5VMlTq0d7uyjyxJM0kTU+vHbOH3xo45VhHLo/+EgYbwXejvEhU33cSUzoeAJjXjiO8R1OUFtGP+9wEqOeOY4V7+aoWHXoEzpk0KsR+pqxeRjzF8oSXWjP73KG4iwmd6SqvyuZz4D/ToxXhj37PVho4OU93o7xMnj/PT5yxmvQNeMZ6OSETJw4eBWVBS0i8ltQnteCKxX67Vbd9AxMp1cZeh39vgr6/VUFt32R8cN1zH3lvAAfyPg2NcCxt8cT9H8QdAqHxgcHH33jR/z5V+x9r1TFZ71amh4S7DPcdAZdfg7Oan39QRU/mYvZHm8TvF3jlTc06Mx4V+AFdKfGe93OvfOXY1g7Ocdw/TnQyv6lARM7ZmBSZwpq57L/Ffyb+bHP92FSIX+KJmhx9xS1cwT9IHTwRuMj0c5F0vh3njuG7UuLDeDZQcqhHTVYPy0Pn84pxPSE0wRbVPYM/Iw+Z/FZahE2JOXj8M7Lhm8fwj7P7pUVmPiSqOhDTu4sjXfZznlmvBG88sYzBJ2FBXjdeAE/EHivijsB3x14Bn1CpxN4+09HCXyRik2sy+V3kDYkC3/9j6OY2InaungBfVp8JiYT+GH/9Rsf4MhPx7C1e2U5L+zY+JZDV8MdeAHf8+KOwmmqV/7qgy6Dd5vq7RsfiVTPwwfeaHxzQyuWjbqAd549znt4rY9/97kTWD7qIpqowNMWN3xFGQE/pc7o2dhWh+7YeNepXgXv8QCHoH8HH3iz8VJVbwe8/fP4aBlfrGIUi11zXq6Cn0rQ33nuOAfO3hDy+oKAj372FGUC/ZBGgDfCb1PG2wZfqkGXwNs0nkMPAN4APajx/sWdFfjwjGfPtunKM6OZ8W/851EsG+lvOAPO7J/a1f90TgMffeO9aOf0VK+8/mcNuhV4Ck9TvX3jwynuJgZJ9Tfq72PboiLcqNP/dyq2di0vxbvPCuD+x7IBHpp0A74NDHAI+rcIDd5ofPgDHBm8v/FetnNG41W6psU+vmt5idjv4/RjWX/wKnSnxrepds4HXQXvgx8I/NNjvICvpnmf8b9iRwDw7Oc7CTgb17JZPQOuRWDw/g9Nhmd89Ns5Cbps/MGwjBfQZfACuj/44Hu8U+ODPVAhGy+vnctKMPLPx3jr5n8er0M3gpeNV6E/RcYrr/3pG7z2p0Dg27bxbou7kc/8ik3zCpB9tAGf0euoZ38Tp3QW5/H2jHcA3my8a/DujVehU5iNN6d6Dj8UeMl6E/hwrlfL4AV8+6nebDwLNrId9dwxvPu8CjzUDRxb4I3wHYGPcnGnvKpBDwQ+qPFeF3dyqhfwrdq5cI3X4PuOZcMCr0KPtfEOUj1BPwADeHOqd2W8FwMcf+Ot9ninxluB5/D/DYxXXv1fBt0IXoeugo+I8QK6DN4H3wQ+UiNbDt7j69UaeNvGx6C4U4Yy6D7wB6yNDwreaHz4p3MyeBW+jVRvZXw0HqjwN976O1RE3XgTeIK+H0bw3hgvp/rgxvuDF/DlPT5yxmvQ/52MV6Fbgw+5x8ewnQtnjxfwgxvvTVWvQg/LeG/bOWXI/xBwFo6Ntx7gCOjBjRfQ/cE/jQ9UBAYvGx8EPIcugY+C8QT972AR0viA4K2Mty7u3Bkvp3oBP5x2zusHKiJuvGvwqvEm8D7oHHwI471p5wT8QODDuYEjGy/ge5vqOfxgxtsCb4TvCLyHxZ0yWIJuC3wYxluleivj2+oDFc7Bq9BV8NE33pjqlcH//TVYGMA7TfVm48Ms7ry6c+e0uIteO8fCJXgPjPdBNxqvQbcGr0NXwYcy3lfgEXCHxsvg/ff4yBmvQf+9tXPKoP/+m4AeyPiAqT7IAMdj44OD/z0Yr0KPsvEcugG8BN298fbO4+2DF9CdGv90DHAcgPfIeGXQHwk6C0vwXhd3RuMj0c5F03j34GM3wFEG/vErAd0MniIw+P3uwHP4gcHrxgv4gcB7VdwJ+OGD97M+AHhX36FCDXfgBfxQ4Dl02+BDpHqv2jmvjI9EqrdjvLMBjgo9XOMdpHpl4B8EdEvwEnQO3mmql/b5gMZLVb0d8PbP46NjvAyeww9gfGjw0TVeGfCHL+EHnqAHBR/CeB26Ct6l8Rx6APAG6EGN9y/urMD/+wxwLuH/ACmwLGoScXB3AAAAAElFTkSuQmCC;" vertex="1" parent="1">
          <mxGeometry x="1232.21" y="468" width="60" height="60" as="geometry" />
        </mxCell>
        <mxCell id="4ohFSgvwRZ63tA1tGF-L-25" value="" style="shape=image;verticalLabelPosition=bottom;labelBackgroundColor=default;verticalAlign=top;aspect=fixed;imageAspect=0;image=data:image/png,iVBORw0KGgoAAAANSUhEUgAAAH0AAAB9CAYAAACPgGwlAAAAAXNSR0IArs4c6QAAAARnQU1BAACxjwv8YQUAAAAJcEhZcwAAFxEAABcRAcom8z8AACeESURBVHhe7d2HfxXV1jfw8z+8/8H73OsVRenSDRCaUqR3Qg+9h65SpSmKiorXR9Bro7dQAwkh4VCSkIQ0CL2lh9Ah1PWutfeemT1zpp1z5gR4r/P5rM8BL48P8uW3Zu095fhmtcvxz/vwAszukCcqH+Z0VKoA5lJ9cIbVPFZnYd6HZ+FjVoXwcadC+ITVOVafUnU+z2o+qwswv8sFWMDqIquFXS+ptajrZVj0Ea/FVN2usFrS7Sqv7lfhs+7X1Fra/Tos7cFrWY8bsKwnr+U9i3j1KoIVvYpFlcBKqt5UpfA5VR+qMvhCqb7lsEqtCviyn1KV8BVVf6qbsJpVFaweUAVfq3ULvhlIdRu+VWrQHVZrWN2F7wYrdY/V9zFU91n9EPMAfhjCay2rh/DjUKUesfr3sGpWP7F6DD8Nfwz/y+oJq59HUD1Va93IZ6zWs3oO60c9h19GvVDr11gA36y2p/0ff3AeZknosyV0U3gEt4UX6Byeo3N4jr6gqx08R7eFF+h6eIFuBs/QSzi6a3iBzuBv6uB16BbwHN0KXkHX4Dm6DC/Qg4Rf5wQf+wJ8MxB9HqG3z9XDOyXeCV6XeEQ3Jt4W3kXiTeFDT7yGrod3Tvwtju+Q+DUWiZfhrRIfLLxT4hn6XAXdCO9p4rFqOPEaurvEm8NXeJB4RK/pxAt0Do/oEjyiZyP6OZipoEc08Vq7jyy814nnqTdLvAxvlXi51QcmPhA+MPGhwVsl3hdH6B0JPccCnuPbwovhjuN7MdxhqfAuWr1xuBP45vDFERzuBDzDv63hI7ibVs/x7Vs9w9fBY7mG54ln6HMIvR2hW8FHIPE13OqtEh9cq7c+x7/KiVfQlcQL9EKYgehUXiQ+5OEuIPEyfAiJt231kUw8x1cSL8NHLvHuW71verSCfpqju058iMOdDv4VSDxDD345p8FbD3duEs/R7RPP0b1LPKJn+Wd3UNDdwLtIfLDwLzXxiO6QeA1dhneTeHfLuUD4yCZeoJ+FOBXdZeIl9JDgBfrrnniG7pD4l76cY+gavIbeNhsrSHhPE29yjn8tlnPhbeDYt3qObz/ccfxgWj2in/LPUtGxXpPEszYfIryKjqWhu0u8OfzrtYHjm94G0dufgekIThUSfMQSH8lW75z4YOHlxHP0QHg3iY/0cs43VUGPzkJ0KgFvaPUMP5zhzvMNHBkeywn+ZW/gqPgCnuHr4XWpD4CX8e1bPcO3gUf0DP/M9gUcncEr6OEk/vVZzqnoonSJd2j1wcIHm3g3rT6UxPumtkL0dgUwTUEX8JFOvGv4SCfeZauP2JatCXykE++boqJnsvIk8RL665L4cJZzGroM724Dx364c594jm6S+GGB8Ax9Rrt8mNaGo7tNfM0OdyaJt4Wv+cSbw3uX+EB494k3tnoVfSqhW8C/tMQL9JeVeA3dXeKtWj1DDyvx3i7nfJNbpQv0U6xen8RHEj6Sifd6r57jBzPcMfS4tnkquh5ePsdzfDN4hu/BcMfxER7rpQ53Al+FN6Q+4sMdw7e+Hm8F76bVU3H06DyY0jpDgkdwp8Sr6Bw+IPEdcvGf58GkZqdhYhOqHJjU9DQWfebCZKpmVPj/m6p5PqupSrXA4ZLVGVbTW1KdZRXXshBmvM9r5vvneEWdg1mtzqs1u9UFmN2a15zWF3m1uQhz21zCusxqXvQVtT6Ovgoft+X1Sdtr8Ek7Xp+2u85qfnuqG6wWtC/i1aEIFnYohkVYCzviZ8cSWKzUB6WwhFUZq88+pCpntZSqUwVWJSwTtbzzTVje5Sas6Ip/Cfo5Jz6cDRzfpFYnVXQ9fHiJn9E2F+Z+mAe7fiiG1G2Vah1ldVOr7bz8rKr0taMKjrG6Bce2Y9Gnrm7Dcfw8zj6xdsp1B04Yaxevk7vumlZa/D2Tui/qHqTjp652Uz2ADIs6teehaWXuecTq1F78NNSR/zyAb2NucXiReBleTnyoyznf5KiT/ukIpKC7TTxHt078hKbZsOv7Yvj7CP448tsDlng353g3iefoGrxvEqFHY5ttnY5lBh/acDe+cSYc21kp/jP+PoI5TidUs1avTvYeL+d8Ewi9DaK3IvR0zxI//r1MSN1aIf4zAIouPILDGyuwlVdi68YWT+18h1kpLR1rp/RjauM77Qpb+q7b2L7lkls6Vrxc2NKx0uTaLRe2c9NS2vp9yNgjF7Z0Uaeo9iqFLV18ZhprH9UjSNvxECquPBN/UgDZ+6thGZ7j3S3nrOCtE49JP+Gf1iaHo9vCB5f4cYieIqEf3lgOQ/+VARPYUCeKDXVKOQ13ymBXANNpsBPDXdz7NNidhRnKcBdFxQc7x+EOhzoqdbiLNgx36mBnPdwtkIa7hWyw04a7RW6Gu07l8HHzMkjb/lD8SQFk4V+EZZ0rPduyNQ53mHSOPklBZ/Aauh7efeKN6JTwCY2zAtfx0lLuv2EDx2wdv6pPBawdXQW/TrsFv06/BT+OuQVf9Y3cBo5v/PuEjkupVmmsPEk8oo9971QA+ngF3Qj/9wYOfN6zAlZ0q4CV3Svgi96U8tA3cJyGO98ERJ/aGlttFEc3wgc33HF8gh/byIC+rYINd7ScC4Tn+EFt4LiGt9rAwVLhPdjA0cE7b+AQ+Moe2N47l8GyruWwvBvWR+WwrAui96oI2LkLdgPHbjknoZ+U4AU6g9fQ9fAIbtPqxzbKgJQtGnoqolPLr9Et2xpu9VaJD2j1vfGc3qkUvh9VAYnr70Hh8Wq4mvsEClKr4cDae7Bm6E1Y3pXg9Tt3XiUe2/txRM8W6DJ8OInPhjEMvVyQa+jyBk44iXcHj+iR3rK1bfUmicda0qkE4r+8DXcrtYldPqqKn8GWxXdw2RYIryWe44eygeMb3+K4f4oO/SRMMk18cMs5Qj9ihW4LLyf+/7/r8Ys/LIFdq2+LPxXr49lTgE0Lb4vEe3uRxjeO0FtlA7Z5wDW7hB9e4sc0TA9Ap+FOWcfbw7tIfLDwLzXxiI619KNi+D62HB7dey7+VACq77+Akzvuw77v7kDW/ofw9PEL8b8A3Cp5Bt/EVMKqXi4u0jgs52R4RD+moWN5lXhTdBzulHW8q8RL6CHBC/RXJfGLPiiGI3/cFX8iAA/uPIdfZtyEhe35On5Rh1LYvOQWPKnW4PetucuGOy+vxzP0ya2yAJdupvBWiTeH1xI/2hQ9A4c8Bd0lvKeJNznH19BybnnPYvisSzFcyqoWfyK4otl0H+a3K1an+s9xwFvUsRRyk7SNmtykR4heDuHcgWNs9Rw9itCPa/BRbhKvoevheeJHN0zToacgOp3n5Q2cVz3xrM2HCK+iYynoSz8qgpLzj8WfCMD2Fbcw4YQupnos2sFLXK91g/Pp1QJdpN2DxPvGtDjqnxSVCeNbEroE7yrx1vCxDQi9TPzWCb2cocsbOK9G4iPZ6vX4S7oUwcVTUtI33oP5bYvU5dxKSnqHEshJ1JKek/gIlnZGdPVmDC3xHD0Q3inxvjHNOfo4QjeBD3W4G9XgJCTL6FsRHVv+f/MDFQs63oD9P2qTO53T18dVwAJs8bRXT5+bFlXBk0faOX3vmjtsA8fVHTgqvoBn+Hp4Kgn9GEd3nXiBLuAVdAXeEp2mexU9nMSH1up5nWf1KVZNJJ7Al/Uogk+ir8G+H26JPxF+PLr/HI5vuwd7vr3NrsbppvfSZ7B6cAWs7KnfsrWDd5N432hEn/j+KYbOyxxef553TrwZOg13yjqe4COdeCP8nHaFEBd1Bua0LYS5Hc7hz8/BzFaFMK89P89HMvF0VW7Hqiodqt3x7BnAxgVVmPJSAe4e3mm4E+gZgAOdCu8m8U7LuZH1T5igp7HJXoYPOfESulPi531QCNMRe+Xgi3BgXQUUpt2HG+cewbn0B5CwvhK+iLkMM1tT649M4umy7LaVN+G5tjyHB3efw51y6x25jYur2M6dvFcfCB/aAxWInsqSPraFn5UTvJtzvIq+uVT8ZwAcQXQa7ow7d3aJ92K4m4upnx5VABtXFMO9qqfid6M/7t16Bls+L4VZrQsFvMC3hXeXeLoev3lZBTx7qiX8IYKvj8PhbGAxHPz5Dpw59hCu5j6GgtRHsH/tbfg6hvbmS3RTvTV88In3jW5G6BkauieJN0Mvw5aP6NIGTk0kflrLfPhrWZH4Xdgfm1eUsMR7dY6nGzE2LkHwJxo47cb9Oruc3YCxpOsNWIjD3eJORbC4MxZ+LvoAz//dcRmn7NUb4L14oIKhT2iZrqKHAm+W+BGIfniz1t45+kk25FnBe534mdEF8Fnfc3D/ttZGH9x5Bom/V8Ifi4sg8bdK9nPloB+vHHgJ5nVQzvGhw8+Lvgx/LSzTncOrH7yA/8wpZ3ff6JZzvYrYGn4Jwi/pUgzLuhXDyj7SRZqgE2+/V++LbZbC0HGKB1yz6/Ed4O2GuxH1jiO6MekcXQ8fuQcqprbIg91rtd8Doa4ZfxkmN8nHDlAAU5rm48+vwgPpL8W+nyrYcEfooQ53c9tcgj/ml+HSS9pjf/AcfpuH4NjulalegV/avQi+GV4KP00qZ/XtiDJY0UO5UGMOH84DFQx9vIKOpUOXEm811ZsnHtHrBqJTy1fQ7a7Hq/AqOocPKvEdCmD6+3mQm6rtbqVsvgmTmuaJAQ+neqwpzQogZdNN8SsA8v33YVY0onfi6MEmnu65++3jUt1a+zH++PdPyvD8fkU/1TP4IjbZ0731ykE3WtI9d5bX40U5J14PryTeF9uE0NMABzpTeIbvAG823A2ve8wUnYY8DT6CicfP6VF5cCHrgfgdAGz5opjdaKlN9oXsSZotq0rErwC4lPMQZuOSjtbxwW7g0M2Wv84pYalWjifVz1nq6fzOhjtpqlfgqd3T3bXKcWrvfXazJW3fOt2B45x4faunxCN6sn98C45uBR9s4mm4M6InS+h6eOvEc/TQEz+1ZS6k7dU2Q47vqsLWnoetXyzpcLKnFk//XDlyU+7CrDZn2cZNMHv1sxF83axittmiHE+rX8CfeF6nu2yV4c4MntDpCRrloKQr6Mbr8e7hrZdzvpGIPo7Qm3F0N4l3c44fXsevT/qWUnaeN9uy1SdeD2+VeHv4PPx5PkxofBqObNYeuHiM59h1c6+xW63pFuvJzfJh3Zxr8PihBrXz21K2gRPMlu2sVhfg57hieChdJ6eJ/a/FCI7t3jjVM3hpA4fW8TI6pZ6me46uXY/36hwv0E8ieooKr6DbJd4KXkEfRuibtLapobu7Hh9O4me1y4OJTU/DttVF8FRaLtFBP0/fdwvivy/Fz9u6/72q9Aks6nkO5rbn27YKOoc3P8fT/fT/nlakWwUQ+IYlZazdG6d6HbyKfjUAnc7zdnfgBJN4hi4lXkXHgY5VMIm3a/VG9GRCx+GOr+Odr8eHmviZbXNhAoF/7W5trhyE/9PMaxDX6gx80lnbq7e7Hj8z6jysnXxdB/782QvYuLSMPVixGNu+PNVbwdMGjim6WM4Fk3gNXQ8vJ943AtHHNpfRPUg8tvlhdY4GoA+vd0xdx9tdlg018XEE3jgbtn2jB79Z/Bg2rLgBN85plyzlo/hiNfwYdxWn/XzdXr0Kr0s8FoLPwGXd9xOvw70qPfjm5aUMXBnw3GzZBqLfQ/Rr6jpeQ3eXeHN4bQNHoJ+AUU2PmMJbJd5puBuK6ElGdBzu5A2csBJvgI+LzoHxTbJg+7d68FtlT+CL4edgbIPTMOeDfNj6VRG8EKde+tz+dTFCn2FbtXyi11+kCUh8l/Ps0ak1467CvZvatu7z5y9gy+dlMAvTv7CLuw0cBZ0m+5O79OhmGzjhJ56nHtEPq+gyPMcPhLfawDHCD303EJ1avryBo8AHN9xxfLnVx0WfZk/PGMGrSh/D58POsRcjKNP8gh5n1F0yaumLetLFGFzGib16pawST+DfjLkCdyr1+/hbvyhjz84tQHBtqsdS4a1bPUfX9hMYOg53ypLOHD705ZxvROPD/jHNj6voXiV+iAW6vIGjwWvoengEd2j109tkw7jGmbDjO0NLL3kMK4YUAr39YlZHPtFPb50LSwee06GvGIyQ0fm6izQcPRA+7v2zsHrUFbhd/oT93yvHtq84+PzO5ss5p8Qb0emJWWr58gaOU+KDafUcvdlxGNk02RTeKvEyPMM3wA95N9UCXdvACS/x2fjPEfy9DNjxvR68Es/hy2POwsRm2bqpnqMX6tCXD0L0NhxdhTdcjyf0OGz/X464zE4X8rHj6zL2tKzu6py0nAuED0w8reONSSd0GvI0eO8S7xveOImjN0m2hA8l8UPeSUF07U0Uh7eUsOFOWdKFc3s1oU9tnQljEXznD4HgSwedwQk+C2Z20KZ6qmmm6JhgQjdcnVMT3+ksDngF8MWwi9g99OA7vy1j6Wd34CC4cTlnDa9PPD0mrUs6DnUKuh7eJvEM3d1yjqGPbnaMo9vAB5t4hr5RQt9cwoY7Lx6omELgjTJg1w83xL+dHxU3qjl4k0yYQcs4w3JuWqsc+AzRnwSg5+E5X7s6J8NPQ/CVMRegskgPvus7BG+Jyzt5585mAycQXks8beDo2/td1vJDeaDCLvEa+nscHQc6FX6Ui8Qr6FaJj3nnCCQa0fE8L2/ghJL4KVGnYEyjNNj1oz7hBL5kQD5O8ASuTfUyPEMfcFaHvoyh5zJ0GX4eTfQt8/EvxQX8d2u3LdOxe20ZeyHCxx+YL+eCTTxdpDFDpyFPQfcy8Yh+yD+6KUeX4cNJPMGbodN5Xt7A0co88Ub4yVEZ7Jar+B/1CS+/Vg2L++fBuCb0BI021Rvhp7Y6zdDl9r5sEE7vrSnp4kINQy/AhOfDsgHnoeyqdssyHXv/Xc4uy9ItWAHLOQav38BxAz+n9SX2ihTl4Ojafr05fOiJ9w1j6H7AgS4APpzEx9Q2Q09R1/HBPlAx6f10GN3oJMT/ZAC/Xg2L+iJ44wyYzsBFqega/NRW2SZJJ/Rc9Q4cAp/aMg8+61sIpVf04Pv+F8Fb4PKuo7sNHDeJpzZP27U69Pi7jhdpdOhYGrpz4hl6LENPMoWXEx9rAW+W+MG1kxFda8EMHc/zZlu2WpklnoPHNjwJuw3gpVcewcI+uTC2sbifXkz1Vhs4U6MI/YwOfSlDz+FX59haPgcW9ymE4ouP2K9RjgPrymEqgs/piG1dTPWWGzgMXk68PTy9A4fec6ccDB2HO7MtWyO8m8Qb4X3DGnF0HOhYOcHLief45vBG9KTNxdjyEV2s42V4u+FuQss0GNXwBOz5WX8OJ/D5vXNwgidw43KO4/PUa/BTok7Dkv4G9IE4rBE6ruWnIPjCXmeg6LwePOFXAsdTQHttqmeTvSO8wJdbPZYR3ohOb79yc3WOwRtTr4M3X875hiD6qCZHVfRg4a0SP8gU/QhHN4E3Szzd3DGqAYKv0ye8+PJD+LRXDox5Lw2m0jJOXc7Z3149JSrLFJ2STuDzuxcE7M8f/I3Asf23FwOemOo5ukt4h1ZPe/V69LvslabKOt5N4lV0UbrEG1o9oh9k6MPeS4ThVB4lftDbh+GQjI5rdkJX1vHmidfwxzc/CSMbHIO9RvBLD+GTHtns/D41OnA5Z9zAkVv9+KaZ8HGXXETnm++E/km3fBhdPxM+xc+rZ7S7bOhI+rMcprTIgVnttKlehbd4oCKUxNPl2RM7tcedGLrTZdkwlnM6dAavooeeeBV9gx59MA53yjreLvHjmp+AkfX9sO8XfUsvuvAQ5nXL4uBtApdzVomnGo+T/afd82D/LyXwggedfe79uQRWDC2ES7na7Up0HN5QIcD5Gt5qHe9F4gmdXn6oHNTeFXRbeJPEu1nOMfSRTVIR/JAFPFYIiR9oip7Mzvd28GObH4cRCL7/V33Cb1x4AHM/yoLYRidgigBXSoM3Tzwt5X5ZcDlgz1w5XjwXfwvEkbypAia3wFNCdJ50X71YzoULb7KcM0On87zdRRoVPoTEI3qCf2RjBT0QnuMHJt5pOTfw7aSA9q6iS1u2MjxtBzPw/+jBr5+/D3O6ZsKoRvzOG+NyTg8vJz6LbdWu//SS+DfZH/QUCr3ZcgqCx0XjeZzdeuX8QIUjvEC3SjxdrDFDlzdwwkm8hs7hfTEMPQWGNjoEQy3gQ2n1A99CdCnpiZuK2HCnLOmM8GOaHoPh9Y/C/t/04NcK78PsLqdwgifwwOWcOTxP/KSWp+CT7jm6x5ke3HkKB7DFr//0Mmv19/HnyvHw3jOY36MAh7rTQO+rN7vZ0vvEI/r7iL5DQ6c1O7sRA9HDgzdPvC+mQYJ/BEM/aA6vw0d0ge8EP+CtRETXABk6tnyz6/G0OTSsXiok/B4IPrNzBoIfg4mt5A0cd3v1Yxqlw/Y118W/DeD+7aewavRZiK2XDuPeOwWx9TNgVWwh++fKse3rGwFX55SbLR3hxXDH8REeyw38DBN0avn6nbsQWr3AV+FF6hH9AEPHc7sKb9Xqg0l8/1qJkLJTu7R6NL4U04/oYh2vVCwNkQT+h35ou3LmHsz4MB0neD8DNy7nHK/Htz4FY5ukQ/YR7RbopA2lMKpemm6qH43wiX9pr0nJSbmN5/NsmNlOoOvgvU68QI8qNEWnIc+4ZRta4jV0SrxvMKG/d4Shy/COiXeAH9YgGT4ffxo2fX0R6xKsmpADwxseUdfxY1sq4CmQ8KcBvOAeTP8gDUYQOC7j+HLODN468VMQfVzTdDiXqV3I+HP5Ve0Z+bZZDJ3eePXn8mviVwBcyLoPk1tmsx08+bJsWIl3aPV0PZ6+pUI56LXlCnogfAiJN7R6hj6c0BsmSPCIbpN4N/CxzbF71DsM/bHNU6sfWi8ZW7u2pKPhcSiCH/pLD34p7x5M63ASBzq6DKtN9cpyTik3V+fGNk6DzETtQYajO8phJCZ9Whs+1dOgRy3+6HYt6dmHb8HE5gq6Fbyc+PCXczNang1Ap+FOQfcq8QHoMYSug/cg8U2OwFBM/MDaSQx+UO3DMAzTPqIRzhD1jugGPTou5d9l4MPrp/JlnGE5xxMv49snPhbX8xu+uCL+7QDVD5/D2pnnETodRjfAqp8Ga2dcYP9cObasvg4Tmrp5s6X7xDvB0/vq6UsMlENBpyHPGj70xPsG1if0ZIYeCB9a4kc1S0bswzDo3USY0+Mk/DT/DGz46gKsW4h/CL3SWeuXl3N0XMy9C1PanWDtfrzJci6UxE9okQ4zP8yEm6Xa9XDahTuxpxK2fXudfdLPlaOq7AnM65qL8wAlnV+ksYf3Zjlnh251kSacxDP0YY0I/YAFvEXiVXQ9PK3fB9VJhIltUyF5WxE8eqDdF07Hw/tP4TImWj4u5NyByW2Pw7D6KYitTfW8nOGtEk/woxudgDXTCnUvBjA7aI1OqaedO7PLsu5avUXiHeDphgwZnb6WhIY7d9fjXSTeAI/o+xg6tnkVnqGbwFslXoYfXPcQTG5/FK6d0+7jtjsKT92GSdHHWLun4U6Z6q02cFT4IK7H07btmqmFUHLZ/GEHumL3w/TzbOdOmeqDhg8j8fS9czr0nYiOw528geNl4gU6YiG6DB9K4oc3SoKYuomQnaq9552OkqsPIDO5IuAvAm2MzOhyAmLqHEbowBsxZPjwE38SZnTMhN8+uwzHd1dA7tFb+FkJvy+9DLM/pNuoM3R79SHBh5j4QPRbbLiTN3C8hPcNrLfPP5Sh7xcVCjzHH1D7IKwcmyV+6/zY88sVdo4f8PYh/EuRDH99eV59woSeClk7twAGv0vrdz7Vs3L5QIUC72a4I/iJLfndN3RJVim6Hj856pRur96T5+Ot4E2Wc/RlREZ0Os+b7tVj6eGxVHgXrR6HO0Tf6x/SEIcuCd0NfECrfy8J+r2VAPt/uyp+6wAF6VUw6J1DEFMviU31wxomQ99/HQT/bu0R5vSD5TCkbjLESlfovEu8QGfw2lKOlbpzp9+r1+AV9Mgnnl6MQF9NphwKurKOJ3QvE+8bgOhDGybBoPr7goY3Jr7fWwcgI0lb82785gL0fuOANtUjfP+3DsH3c/LFrwC4XHCXdYDYJikM3Qqe4Tsm3gzeegNH3rK1go904gmevn6MvmZUOQidhjtlHc/S7ph4Gd4+8Qw9RkGvvz+sxPetdQCO79dSvHv9Fej9zwPacg7RKem/Li0UvwLg/OnbrAOMaqpdlnWTeIbukHg3GzgafCQTbz/c0ffOGdHpPB+wV+9R4hF9j39Ig0TAgS5keCXxfd48ABtWnxe/dYCKokdskif4mHrYCWodZPiUbuVI2nwDTwFJ6oUaJ3iG7wBfk4m3h3eReESn9+CYobN1vBHeg8Tr0MOBJ/SBdRIg7iM/VD/S1uZXztyFVROzYVonPywdlQkFadp/HB3LRmXB4DoyugavoL/2iZfQzeCN6PR1ozTcKet4Bd2rxPv614v3xxB6vb28VHisEBLft9Z+PJdraVcOesuS8UjacgMndxzymoj9egHvJvHBwttN9YHwXifefrij99/o0HGSp+HObMuWw5uc44OA9/WvE+8f3ABTKqFbJT5GgmfoJvAxDQ7CwHcT2Pnc7kiNL8G1PU30tIsn9uoleE8SH8QGTiB8zSWeo2vvsmPoONyZbdmGknjW5iV4Xz9Cr38IsM1jOcO7STzB93v7AKwcnwmnDpdDVXk1uwP1btVjyDtxE76bncd27oY24Es53dU5C3g3iQ99Ayd4eBU/WHiTxNOXCtO3TCsHfYs0DXdmW7bWiXff6g3oErzADxWeipZwlPoJ0Udgehc/TOqQigPdIVy2HWTrevkije7qnATP8e3hGb4DvPfDHcc3a/UMP4jhjl5xZkRXXnLoDC/w5VaPZQ1/mdB3+Qchev+6CE6F8OatHkuCl1t9IDxHpxqCqR9Uh7d8Ah/WyPrqnBV8sIk3bfVY5okX6ALeOfEeva9ehS9gXyN+dJsVukt4l62eSqAfZOgMXqTdPPF6ePvEH4LB+O8dVDcBW/lB/EtyiF+Lp1L3693De5d4Gd+LxIe/gUPfHy+j0+4cnefdXo8PNvG+fu8iej1C3x0Ab554d62+95t74c8vC+FS/h1Wf60+xzZv2Jatih564hX0cBMf+nLOo8Sr6NqbLQl9MkPXNnC8TDyi7/QPrJcA/eoQugRvge8Wvvs/9kDiFu1O1MPbbkDPf+5j6IHwWBFKvBW8m3O8Obz3y7mJTYzoN9lwp6zjg4Z3WM75+kjoAfAMXYJ3mXhC7/E/u2H/n9rFl4S/rkGvNwidb9nK8Bw/MPFevBEjvMRr6Hp4OfF6+FASP7HJaUjVtXdEx/O8so53BS/Q3SSeoQ9g6PG8GHr4ie9O6H/o0Xv+c6/t9fhXZ7hzs5zzLvEcXZ90Gu7MtmxDS7we3tfnHUSvewD6KuhBw2Op8ByfJvvu/zCiX+XoNNUb4XX4iC7wneA5fiC8l99QweH1+Obwob+vfkKTbBP0HDbZB8Abr8djBTvc+Xqr6LskeJNWb4RHbLvEd/+feETXduV2/3IF2v6f7Qi/h+H3osJ23+uN/ax6U/3rAPRRKwH6vqnUQXaxpl8tXPtj9ceiu2uV26vpESp6do6KnqJhVTuZPTvH6wh7TJpXCnsjBr0Khd6BM5SqTip73Rm9504peqUpFb3EmN5eTUXvqx9Zj56oPQGj6p9kX09CX0ZE30IV2zCN3VNPRV86OLpRBvuaUXoLFt1bT18jTt8fr9T4xlRZMAFr6L8yIEl64EJD50u68BLP0eXEI/oOf39CfxfRqeTEhzHcdfu/evSrZ+9C/PpL7Dx/QFfXWCVQ4SlAq+tqHVQ+N1DdCCh6fIpup9Y+sTYWsZciaFWsFr3qjNUmqhK16AXGVPzHpUDvqzcWfQMVrzKg751Tir5Xlle5rlKU2lqhq1T1s5KBy2+/oI0aGu7kDRzHxLtu9RcU9P3QR0U3JN6i1cvoZvCEnrBRe3Lk78P9cTye0E+zyV5BDz/xWCLxvl4q+k4L+NAS3/0f8fDbF2fEf8bfRzDH7rUl7CXG8gaOU+KDGe4Yer86CroVvPVyzirxA+ri8qxJAvy+6gwcwCFOLhrq9K0ca8M1bNX8U/kxb+dSbbyObZsK27ih6KlYs0rS/Vhp6aI2F2PLxlZuVltK2PtsA4taeCmvrfhj06J2jrVNfCo/3obtPKAq2efR7VSVEL+2GOZ2ysOBT1vHe/FAhQbP0Lch+j7AgQ5wkvcu8Zh2gu/xz3jW6qlouKOpnqrHP/bwEoMdbdz0ohLDHR/s5OEuAfrgUEdFg50y3NFQpxQNdUppw50Y7LC0wU4e7lKk4S4V6yh7syW90nRYXW24G14Xqx4Od1jKYDeivhju2GCHhYNdLBvu6BMHOyox2LEyDHf0uLQ62InhbkLTbJjRNgeXcnw5p8I7Jd4JXsL39aqtoO/g8ALd9TneIfHGqV7ewNHv1fP9er6Uc7+Oj+gGzmtyPT7YxCP6Vn/fdxV0Gd4m8UZ4Y+J18Dz1ZvAqvgHefgMHK0IbOKFfjw9jyzZYeA8S7+vB0HHNXFtBF/DGVs/wg4AX+IGJ5/jBwxs2cFzCc3z3Gzg1d3WO47vdwNHgOb4tvMNyTkLfHghvm/jQl3NuEx9sq385iRfoDF5D18MjuNetPozE+3q8tdXf5909At0E3inxwQx3VEHCO27Zhpl4GZ7hOybeDD6cxId/Pd4p8UZ4jv4OTtAqOpaKLuCDTTxDj3zig4WPxEWal357tQrvfrjzdX9rC0d/exvCb7NOvC08lkWrdz7HezHcRS7xVvCv2wMVMjxD7/3Obo7O4L1OvB69JhP/8q/H12DiJXQneBW9h4JuhHc6xxsTbzzHi1YfsXO8iu594oOF93w5F1Ti3Q93vm61EL02oW/V4LHNOyfeegOHowfCu0m8mwcqZHQ38H9v4OjhEX2Tv1fteMCBTg9vTLwpvFXiTfbqVXxn+HBavZvE/zc+UCHDC/RdgG0eywE+3A0c21bvwXCnw7eHlxPP8e3hGb4D/Kv8QIUMryado29xTnxEN3CwJHg3D1RYJT5Y+Egs5zR4gS7gnRPv/QMVMjyib/T3fFtJuoBn6DbwKrqANybeONyZJt6LBype1cTL+F4k3tsNHI7+1k7oJqGzNh/pc7xJmw+n1VslPpwtWwU93MSHvpzz7oEKOfG+riLp3WptZqVLvCm8zQaOU+KdhjuBHyq8/XIOK0KJt4J/lR6okBPv6/rmRn+PtzHpAt2bxNtcjzdNvATvMvEM3QTeKvEcPzDx/y0PVMiJ5+hv7YCPam3S4F0l3gneJvHGc3yNJj60Vm+V+NCHOzfLucgk3tflzQ3+HrV2wkdvbrKF15ZzW83hnaZ6hh8qPJYKz/HDHu4EvhM8xw+Ef90eqJCHO4benZJO6A7wni/nnM7xiB1O4q1afaQTX5PX41V4FZ3D2yXe1+UNRK+1HbDNu4J33MBR0QW8dJ43TXxND3fGxLuE5/j28AzfAd6bDZzwEu/r/MafKroKj+g6eB261+f4YDdw9PCv8gaOm8TX/NW5XPh/+XkPzD9zzuUAAAAASUVORK5CYII=;" vertex="1" parent="1">
          <mxGeometry x="1339.96" y="513" width="100" height="100" as="geometry" />
        </mxCell>
        <mxCell id="4ohFSgvwRZ63tA1tGF-L-26" value="Amazon Quicksight" style="rounded=0;whiteSpace=wrap;html=1;fontColor=none;strokeColor=none;fontSize=16;fillColor=none;fontStyle=1" vertex="1" parent="1">
          <mxGeometry x="1333.5900000000001" y="628" width="112.75" height="30" as="geometry" />
        </mxCell>
        <mxCell id="4ohFSgvwRZ63tA1tGF-L-27" value="" style="shape=image;verticalLabelPosition=bottom;labelBackgroundColor=default;verticalAlign=top;aspect=fixed;imageAspect=0;image=data:image/png,iVBORw0KGgoAAAANSUhEUgAAAH0AAAB9CAYAAACPgGwlAAAAAXNSR0IArs4c6QAAAARnQU1BAACxjwv8YQUAAAAJcEhZcwAAFxEAABcRAcom8z8AABL5SURBVHhe7d13lBXVHQfwSUwziakmir2eiA31j8RKEv+wRMkxTcSaZsMWC1WKhaVa6WhUVARbbCBWggGsEaUoCLssuyxb2Pa2v90FvJnvLTO/mddm3rtvcnZmfuf8TnZZ3mOyn3fv/d17545G1bC92HaVw2WO2ItVk6wZ+V07R4msVTlaZB3y9u84cscYkmNF1o/9tshxIhtUjrez8Q7knnbeuSdrUnmXyGae32LNd9uZmODMlhLkN0VOFNmqcpKdbZO/YWX7FJJTRXbw/DrrmGZn5z3O7LpX5ddY130ikyrvF9mNfAC5h5U9D7py+h6sl+dXWe8MkTtVzrRz1yyVX+G5ezbJOSK/VDnXsJLNM5iJ/j0Ww0cL3qi6DegxfJTgBXoMHyl4Gz2Gjwy8se1Wgh7DRwKeo8fw0YK30GP46MA70GP4aMAblbd834Eew4cfnqPH8NGCt9Bj+OjAG5U32+gxfDTgBXoMHyl4o0Khx/CRgefoMXy04I2Kfwj0GD468AI9ho8UvLFVocfwkYE3tt70AxbDRwteoEcEvmXuL1jH68NY8oMZrHvNkzy73pnA2p+5kCWm7hsZeBs9pPCNk/qxlsfOZjtr17Jc0fvFK6x13s9DD+9EDxl8YvbJnrDd0bPmiVDDG+U3utBDAt/2wlXsy2SLZLQDH4Lk+zNY1/IJPNHFp/t7+LPWh+xWHyZ4jh42+HTgvVtXsMSckzMWd+1PX8h2Jyrk3xYRVngLPSzwTbNOcYBzuIWDMxZ3FB4VPQo7GvggKPSwwBvlN9jofR2+fsJ+vEWrUODu4i4XPFo9jbCN8QI9JPDtrw6XTCI4uKu48wqPaR2Nluk/Cw28seWGHwr0EMDvImNy8pMnU4o7v/B0jO8xC76wzOM5ehjgG2eeInlEYGynxV0+8B0vXSnfTQwVYVm5M7ZcL9D7Onwb6dp31qx1FHf5wjdN2Ve+o4i2x88KBbxADwF81+onJQ1jne/OtNELhKeLO51vDAvFWr1RptD7OHz354sljdkizVaP1q8DvmfjK/JdTfTXBXpfh+foYYBPpkHXAZ+CjiKvj8MbZdcJ9L4O3/HuLEnDWPeGxRZ6ofC0gm8z5+8cvY/DC/QQwLc8d7WkEZU2Rc8XHsu2NJofOMqazvVleBu9j8PX3bm/pBGRWHBRwfCdy+0lWRR0apzv6/BG6VCC3sfhe7bYS7C7miszrtx5gW++r79jDR87chZ6H4c30X/EwgLfMP1USSQC43w+8A0T+zkKOODjZgz3dK6vwkv08MDTKh7RusSs5H3AN5T0Y8lP7Tk/ouO1YY7irq/DE/RwwGNs761x3i3jtcVj6bZ7g93CEV3vz3QUd2GAN0qvpejhgceY7o5OE79hWn8HPLZjE4+cwzrfm+kYwxHYpkVXT4u7MMAbm4EeUnh3i1cBXKzPI93QKrrMDwG6+nRVfV+H5+hhhccYjzHdT+xKVLDWF65KKe7CBG9svkaghxle4Wdr+T3lK/hNGOju3cVd2OAFekTg1ZItxe9YVsJ23L1fxuIujPDGJoUeIXjH5gymdKSwiwK8if5jFjV4iu53Hh8GeGPT1UCPFrwbXd2IERV4gR4x+HToUYK30SMEn4KOsT5C8MYXVxH0iMCnRY8QPEcPCr5ixMFs+5QzeFZPPYNVjjz4/wLvRldVfVTgLfRiwW8dfgirmT6IJUtXst1dqUue+LPWd2azqjuPDwzegb5YoAcNj9urEw8exTNoeAe6bviaBwexnqp18tebO4BfLPiGueey9lWzWG9N6vXg5osO82c7ph5dVPjW+WfzY9LpzszvrPgPP0rVMv2oosMbG690ouuCb3h+VMaWne7PVfRsX8cqRx2kDb5m3AGsfaV902SuaHu7RDs8bsDAFm2mzR13dJv4xYQ30fdmuuEB7o7k5lWsavJA3t3TMb7xX6PYzibnNii+1wFfd/9pbGeaLVbE7iwAaPm64PE0DPe5dxXZPgS76tayxNR9igIv0fXBb5s40NGS8XXtQ5dkLO5URY+unQZqgEK6+pqSY1PAu03MlldGsJrxB7CaOw7g43vDvHNZy+IRKR8CHfDYi8euHQ107bgTp2Xuyaxp8r58fFcPQHJ/OABfjBZvbPy7QtcD32W2aBUAr5o0MKW4ywSfeG2SfKWIhqeG5g3fXbZSvou4jsTLJrbZ1Xut6hGFdvXuu3Bwdy26+kzFHap69xHpYpyWFeia4GvmXSovVUTtvEvscd4jfOe6JfLVAiuf6VzDY0PkO4gAeD7TOUS+xV3LwsHyHUQAPF1xlw4ez8Ghobu4MzYodA3wHWtelZfJ+Nfpqvpqs6JvWT6HNS+dzCrHD0iBxzhPg0/lfMLTVt712RJ7nPcAX2t2+/RWK1T1+UzncMpGBVq8u7jLBU+7enwIdE7njA1/25vpgu9ttH9ZaPWiyxfg5bcdwjrW2h8KFXUPm+O9Cx7juQp0+X4WcGrvOV2+UsSO2b+x0T3CJ569Rr5aFHx+5/G4EYNGPk/EaHedjdc5jxfoGuC33n6CvEQRFWNPsMZ5wO94Yqj8iTPQhbu7ejq2YwqH79Pm6yJbSHZ89JR8JWO91eusLt8PPFo7jba3Svj4jmx3ZQdymTPxFAwVAKPFnVd4FHk0EmYXrwveRi8QvnLCQHl5ItxVPe363YFFHAqP1q8j0M0rdL/wuoI/IIEUd37g6ZSubf5Z2lbujM//StALgK8g6Gi9qrhT6Il/z5E/TY06NaWT8PUL0vcKfqNr/RIHuh/4bPN4P9FbvsIq7vzCO07MAl3TWr2J/hOmA7705sPk5Ykou+VQB7y7sleBhZjyYYc4qnos2KjAz9s/fCp3mt06ktYD+PCp4s4PfO2kY+Q7iOj8eAHrork6Wz7Jb7JUwbt3VeD5gG+a3E++g4hmrNEDXQO8RNcDj1+yirrHr7OqegXftGSy/KkI/P3qBwalTOdowde6fLY1nUNaRV2G4m7b6IPkK0VUTzjON3zzM85CThV4aj+eZ5biDjda0mi8p79v+NZF9pSPF3JYyFHoBcIT9MLhW99bJC+TsXZzDKfTOQW/5dZDzaLuOrb9/kG8oqfTOWTluAHOD485vquq3is8XdZFYacqe6/wKABVoJUrdD/wu5rJlMucvlnoHuHpQxBxmFKN8zrgjc/+QtELg6+df728TBFV9w1KC2+nBCfwmMOrAB5dq/cK37jwWvkOIupmnecZHgs5NLA7R6dzXuFbn7cfkoBILBjsGb5j6TD5KhHYnbPQNcBzdJ3w3VXr5aXKMdUs8LzCuzdqGs3vaVXvB562dkT9oxfnhG99c6L82yKwO+eu6v3Ao3Kn4QW+3QSnVTtaOVp+ugWcfOEtdF3w5aNPlJcrAvB8fM8Cv+XWQ1iLq7rHGv5WVeDlAV8zzblIg0BXj8UbCr99zIF8AYd26Qh8n2utPhd8/bSj5bvZgUIPByYpfH3Jfizx6NmOLh2B6j3XWn0+8MZnf7bRdcFX3ftbedl2oAdoWjyZd/lbx5zAtpUM5BU9ijs6hiO6q9bxip4Wd/nA1808T76jM/Dv9ZiogHX/2wgOPvFYR3GXL3zTw+fKd02NbIcosTuHbVla3OmCF+gBwXsJtPCKsQOsMb5QeLR4rOp5DSzoVI890BrjdcA3zDg1pavPFmjxTff1TynudMEb6xV6EeArJvzSUdFnC7S4hudG867eKuw0wSObXxzpmMPTwL8N7Np7T3OM8TrhkSju6ByeBlo7sBOPnpO2uNMJb6L/lBUTHsUd8BsXT2Fdm+y9dgR+2ZjaCexDyThP0DXCq00a2vKxXl91+0HWGK+yWPBqk4bi44EIQZ6WNdZfAfTiw6uk8OkWcIKA71xv79k3vzTS83ROJzx9li0/OasKuwDgBXqA8CnoPufxOuAd6Ga3r9CDhMeSrQqgq23ZIOBt9IDgKXqtQg8Ynt6dw9HN1h80fDr0oOCNdZcT9ADgnejXW/vxQcKnRQ8YPhN6EPAcPUj4Too+H+hmDxAwvBsd43zQ8A70t53oxYa30IOCT0HHWB8wfDr0oOEpOu7AyXTrVTHgHehBwKdFDxg+BR1jfcDwbnRV1QcBb6y9zIlebHgH+mMEPUB4it6k0AOGT4ceFDxHDxLejY7WHzS8A/2FUWkXcIoNjztwVHB0jPUBwZvo+3D0oODToQcFj3vqcVNGkizH4gNQO+P8wOEpejEOTWaDN9ZeCvTg4DOhFxM+2/l4GjhPt/2u4wKBd6Orqj4IeIFeZPjS4Sey+lemsOS29WxXp/2Lx9ftn75atBaP/Xh6J47XKFZxh0OTOEiBg5T0FA3uw8MYn3ju6kDgjTUKvQjwX1x/OGt6a64DOlN0mx+I7bMv0waP/fh0J2rQ2jvXLuGtGnfRJjPsvOHnuuBxMwZutszV0yDwYcB/j6aY8By9GPBbxv+a9TZsk/9XvAd24wqFT3eEKrl5Fe/mMxV3KOjct1jhFE2h8NUmePIz56FIL4GWXyx4Y80lAl0n/KZhJ6WA4/v6l6ew8jt+xUpHnMjKzKyaeRlreTd1v7357bkFwTe/6rzVGl28l1uv8OCjpKvl4+6bfOFxMwYOUNLg28krZ/Fz8fUPnsr/t+mJIY4xXoV1Rl4zvEDXCL/xuiNYx8Z35WWLqH9pKu/qMxV35Xf9io/3NPLt6rEvT7tR3HuXrrjLBk/329H6OXoe8O0rnA9awFheO/GYjMVdg/khcD+puhjPuTM+Veia4Lf/8wZ5uSJqF91OxnmC7oLfdNPhDvjdZh0AdL/w9EAF8K17633A43FnNKpURe8DHjdb0mhfOZt39bmqekzn6H91CkVevTojrwne+PTifZhO+GSlDdf2yVJrjPcKTyOfqp4elMT5OVrcAb1i3ADe3eMDgVaMr9PB0/EdY7vfeTzO0anAY1D4fXcep3N1d+yfckaeo2uCN9H3ZbrgS8edKS9TRJlZzNHizgs8HeMxnVPoXuFp1y7OyNvoaPXuYg2RLF2VAg9oFVjA4ev2HuFxWzW9jqanr3EUd17gMX1Toc7I64KX6Hrga54aIy/T/EWaLZ4Wd17hUdypwFSPoiOzwePWahr2GXmBnu6pVyrwVAwKT49L44OiNmu8wONEjQrg40NgoXuEd5+Rx2NQdMET9MLhd7w4VV6iWYGvXGQVd37gN93o7OI33XSYZ3j3gxFUcafg3QcqaOB4NB3ja6afL3/iQvcA37jIPlaFe+hVl+8Xnh6XbnzoXI6uA974ZAhFLwy+8Y158hKB/rSjqvcK70YvG3ki353zAl9286HyVSK23ELvsE09NUvD/WAEekYe1bwDPQc8RS/kwQh0XOfo2KzRAM/RdcHXkZbeunqpo6r3Co95PA0Ud2pb1gs8HUtx42W26ZwKHLBwV/WJpc4xHV2+V/j6Ry6WrxTdO0X3Co8lWxqYzqkdukLhLXQd8BUPXCEvUYzHfKz3CV9nTvFUYArHCzy5LesFvvW9hfLV5gfv/YWO6RwSDzdsM/8cARB0+e4jVDgp667eVYHnBb4qzRl5v/CNj9uPRUM3jzHeQi8Q3oFeKPzn1xwpL1NE1cM3+ILHAg6dq2PdXlX1XuFxsyWNypKBKfAi7aqep4mt4HFaVgVvqeOPt9C9wtMPjToj7wceCzkq8Gw7Nc7rgDc+uciJXig8xnIVaO2lY8/0DN/0pl0TINDV0+mcV/jeRnsJGI85U9M5L/B4fi0dArCGT6t6r/B46hUNdUbeC3yL64x84xNDLHQd8MZqoGuEd7d2L/BYunWDo5Wrcd4vvPvwJE7MYjqXCx6PQqHg+BpdPa3qvcLjMSjuNQF1Rj4bPB6KQK8BLZ4WdzrgTfR+TDc8HdtVoLIvn3SBA37j0CNY5fTLHat4CHTx2dbqvcBjt84diWVz+FFpd3GHR6G4d+Xwi3c/9covfLqj0lipQ6un6JjH189JPSOPa9hx/6lWcacL3lg9GOj64WsW2As17uhp2MZ7AKQ7AL55+EmyyyfoecA3L5sr3zU1dprdPpK2KhX4Mzy5mhZ3OuFVoCdAZrqGxvlDHMWdLniBXiT4zWPO5MBeI7FqEe/q1RivAx5dPR3jcwWmb/zJ1XKM1wFfc8/pKV19tsDcHo8uzzWPzxfe+FihFwkexR1avXu7VQVae2LlIlY2zl6np8WdDnhk/bOjU45Kq0CrAja6+WxVfSHwKO4wf0/mOCOfz7Ns/cJz9CDgVW6ZeAEf25Eo8DYMPTJnVa8LXi3gYFxXiSmde+WumPBILOBU330cH9uReA4OxnU6zhcT3vj4QoEeJDySV/MqfS7g6IB37875mcfrgudpVvMqKXox4QV6DB8peBs9ho8MvPHfPxH0GD4S8Bw9ho8WvIm+H0eP4aMDL9Fj+CjBGx/9UaHH8FGB5+gxfLTgLfQYPjrwxkd/sNFj+GjAC/QYPlLwxocKPYaPDDxHj+GjBW98+Pv9OXoMHx14gR7DRwre+OB3Ej2Gjww8R4/howS/F/sfI8nz8yqYmpgAAAAASUVORK5CYII=;" vertex="1" parent="1">
          <mxGeometry x="739.96" y="498.44" width="101.56" height="101.56" as="geometry" />
        </mxCell>
        <mxCell id="4ohFSgvwRZ63tA1tGF-L-28" value="AWS Batch" style="rounded=0;whiteSpace=wrap;html=1;fontColor=none;strokeColor=none;fontSize=16;fillColor=none;fontStyle=1" vertex="1" parent="1">
          <mxGeometry x="665.74" y="608.14" width="250" height="30" as="geometry" />
        </mxCell>
        <mxCell id="4ohFSgvwRZ63tA1tGF-L-29" value="" style="shape=image;verticalLabelPosition=bottom;labelBackgroundColor=default;verticalAlign=top;aspect=fixed;imageAspect=0;image=data:image/png,iVBORw0KGgoAAAANSUhEUgAAAH0AAAB9CAYAAACPgGwlAAAAAXNSR0IArs4c6QAAAARnQU1BAACxjwv8YQUAAAAJcEhZcwAAFxEAABcRAcom8z8AAC5iSURBVHhe3Z13fFTV1vfnn/fzPu/zXAtIrwkJECAJnYQqvdcgiqgoIiBNQERK6IQqBEiAEHqX3lQUVBCFi8IVkCLSEVBQugJ6bb93rX32ObPnzDkz58xMkOduP+uTIRkwZ777t/ZaazdPgyml0HBKaTR8S7NGuk2NQ2PdpsWhibAywpqme63Z9LKGNWeboVmLGeXQYqZmLXXLiEcr3TLj0VpYgmazEtBGt9kJaDs70bB2c3Qrj5Qsr7Vnm8tWAU+xZWvWgW1eRWFP6za/Ip6ZX0mzBZXQ0bDK6LiwMp7VbVFldBJWBc+xLfba80uqGvYC21K2aujMtkyzF3VbnoSXdFuRhC7CkoW9vNJrXVdVN+wVtrc16/Z2DXRbrVl33dbUFNaDbW1NvKrbulrCeuq2vhZ6ra+t2Yba6G1YHfTZWAcCuh14A7oZvAJdA++Fr0O3BJ8RADzBVsG3VcB7oVuAF9DDB29AJ9Og+4N/ns0peIJtC16B/vIqE3gJ3RL8GjvwGnQVvAGdzAtdA+9pMFmDbgfeVvGhghfwbcCHpfgKOad4Cd2Ar4IX0G3AS/g5rXgNvj94O8Vr0C3AG9DJ/jbFC+jWilehC/BS7f7gNeg5pXihdgV+jiheQg9F8T0tFO+pT8DZgoEPSfEKfFfgw1K8Bt9P8RJ+WIo3qd5H8QZ4C8U7BU/mA16B73yMJ+gSvhV4VrwvdAvwjlw9mWPwEr6lqyfTwHtV7xp8RMZ4MgW8qnizuw+oeAnf0tWT2bl6VfV24L2qd6p4r6v31J9UUkAPBD5sxUvorhVPsFXwjoM7A74ZPEF3oXhD7SbwAV29hB5RxUvoloq3cPX2Y7yEXo+gs+ngDfg5rXgVvICvgCd7GF29E8Wb4fuBl/AtwYeqeFdjfC0FugPFq+AN6GbwCnQ/8A9a8RJ6eK7eveJ9wT98ivfUm6hBNyveCfhQXL0KP6jiVfAmxavggys+sumcHficUrwKXoUfKnhPXYaugHc7xtsqPpCrj4TiCbrq6oMrXoPvN8a7AB+S4iX0h6mAQ9BjYQl+UgTGeAW6K/ACvg14k+IfmnROQjfg69B1CwV8AMWHU8CR0G3Aq9CDgFcVr0HPWcWr0O0Ur0IX4P+mMd4X/N9QwDGga+A9T04g4GwRAP+wpHPBFR9+5S4kxUfC1ZOp4FX4ThUvoAvwNooX8CV4A34o4AMpXoEvwEv4lq6eLEddvWPwZAp4VfFm+Dp4M/ygwR2Znau3U70KXsC3GOMN6E4VbwfegE5mQHcDPkKKdxzcCfB/UzqXA4rXoVsq3gTeU2e8F7oA70DxYbl6N4pXwQv4NuD/VsWHW8CxAC/hW4IPoHinwR1Bj4FT8BFL5xTofuBdKr5VZjl6Td+nry0y6O/NjEOzGaXQdGYsms6IRZPpMWgyo4SwxjOixdemM2OENaP3NM8oiRazSqHVrDjqLGXRLiseKXMTqROU1zqAQ/DhKT6M4I7MreIldOfgVcUb8COseBW+Dr75zLJoOp060rRYNJgajbpTiuLJyUXQYFoUgY2l95RBu9kV8dyCWnhlSWP0WtkK/dd0wKB1nTB0w4tI3dQFIzZ3xYgtXTGcvqZu7oIhG1/AG+s6ot/qdui5sgVeXlofnRYkCeht5pSljlAKzTKok2REo+WskvS9MvSzeOoIFVwp/kEXcIIp3lPbgK6ZE/DhpHOBFa8Bb0odoEl6adR/Kxp1CGydSQSXXrebXQldFjXE4PWdkb5jGFbsy8C2I2vwxbldOHn1CL67dQHX7/6An3+9g3///gv+/OtPOGm//fFv3Pv3z7h17zqu3rmE89e/weFL+/DJya3Y8OV8zPtsPMa/34c6UVu8tKQ2UrLjyTvEUkeIReus0nhqXgJ1gop+ireblvVL5wzFE/BQFe8infPUTosBm1vFu3X1wdK5xtNKo97kKNSaWIggFyWFJ6D70haY+N4ArD0wHwfO78alm+fwK8H8u9qff/2B6z9fxbHvDuDDr9dh7qdjyWN0xktLa6Pd3DLUEUqgTVYcOswvbw1eQjfgRwJ8AMWr8FXFG9ADgjfgl9TgS/ACvgRvwA+geBU8Q280tRQBLo4a4wvS+2Lx8qImmPrBEGw/tgEXb5wltf4qP27n7S9S9y+/3cdPv9zGjbs/4sefvscVUu93ty+QJzgv7QKu3L6IH376jjzDVdy5fxP3Sem///m7/FfctRvkXQ5c2IUVX0xH6pYXSNXV0GoODQfkBZ6mDqC6ejN8HbwZvgAv4Vu6erJQgztPrbQSBnSn4MNx9Qy+3uQSqJ5WEPWmlED3JS2x8NNpOHb5S0eQfyNXzBCPXNqPXSfexTryAlm70jDhvf40dr+E/m93QI/lLWgYaIBO82vh6ewkitIr0dBQHm0pgm9LX1PmUJRO3+s4rxqeX1ATLy+pT2N6cwxY8xSGbuqMCdv6YvYno7D6wBx89PVGHLy4BxdvnsH93+7K3yJwu0Tv3XZsFcZte5VceRJ1gFgaEsqS6itp0HPa1ZNZqV0H76k1rgR8wBvQLcDbuHpV8YHA15lQDElj86NdZlVM+yAVh77dF1Bdv5Jiz/14Eh8e34x5uydh+KZu5A0aI2V2FRHUPSmDOQ7q6r1VDPWnRqHhNIrS0zlyL0lRfGkKAMntZpShqJ8Cs0wOzspSikcRvzD+M/0sMw4tMum9GRz1a9F+05kU6c8sQRYtIvuOC6rileUNyZ2/iKzdY/Du0ZU4ceUQbt+/IX9b63b51llsODgfr69PQbvsOLSdW1q4/YgFd2RuFa9BjwB4O8Uz9DoTopA0Lj86za2Ltz/PxrWfrsqPxLf99ddfBPkbvHN4FdLe6Y8uCxtTYFeGwBZDzQmF6GtRitwZKgGl7/tU7nKigCNyeO11uznxInpvMauk6BDNM2NFetdtWQOMfbcH1n45l8b6/bYxB3uxvWe3Y/S7LyNlHqWG2WV8XP2DVLynpg7dDJ7MC95ZVG9WfP1Jsag6Jh/azKyClfuy8PMvd+RH4NtOXjmCxXtmoNeydmiWXpbG+EIU0BUWgV1jGvfVyP5hKeBoRkNGFv0/qSM0yywh0rk+b7cQnuDAhU9sh4P9F3Zi6OZnKfIvhacXlCfgVYMo3gK8hG8J3qR4H/BkAroteAW6G8U3mFwatUndyWMLYtzW/hQ0XZaP6203717Dpi+Xoe+KDuT6SyF5XAHUnliUXpfUInsZ1XvTOQW8hG4JPsRJGieKD1a50zoB/U6zYiiIK4Peq1tg6edTce76CfnU3vb7n79hy1eLxZifQqq3UnxQ8ATbkeJN6Zyn5tho1BwbALyP4oOD53n4GuOKCPhbD62Wj+ht39+6iKydE5EyK4lA50fN8ZyDlwyYzrkGL+DbgA9L8c5r9fy1HXWA5pTGcfFmyo7+OEru39zOXDuGAevbUScpZYD3U3wgVy/hu1G8p4aATkawDfAEPVTF10wrRmN5HL44u1s+ltY4hcreNRktppcXLr/ORAq6lKjegB4p8E4VL6BbK16FLsBLtfuD16Cbwesl26fmlUfL2bFonx0v4JuVf+v+NXL3nSjXL224er8xXoEfruIFdAN8qIqX8OtMiEF1UvlHx7fKx9Ha3tMf4dmsuqgyKq8GmyN6GdUbqRxbKOAV+K7Ah6V4Db6f4oOswHl6fgWCH4NnF1TBuoPZoqagt+t3r+DVVY3QYX6CveIN8BaKdwqezFNjjAY9bPAEveroAhi6rrt8DK2t2peNGmlFyZUX9onq2ezyeEvwZI7BS/iWrp5MA+9VvWvwDsd4K/Ds6p/KTiC3H43J2/uJ8q/ePv5mo6jscSHHCryl4iV8S1dPZuXqPdUZuhk8wbYFb0D3B1+ZlLz96Cb5CKD8eisqj85LfydKi+Z16Bbgw1a8hO5a8QRbBe84uDPgm8ETdAdr7rhW3ySjGDJ3DZefFrn5e9fQZVktiugr5GgBh6BHwRJ8IMXbgK80Mh92HN0sHwGYuWMM4lMfEbDVdM6An9OKV8EL+Ap4sr/T1TN4LtP2fru5/LQoo7n3I7our0PQE92XbFXwEr4leDIJ3QY8wXYDnqEv3D1dPgLw9XeHhdvncb4er65VwNspXgVvQDeDV6D7gX/QipfQ3bp6npRpmlkcmw4tkJ8WcOqHrzQvQEoPNjvnC96d4j3VRxNwtggovtLIvBi3ZYB8BK19fPwd6hAxNN7nN/J4N+BDcfUq/KCKV8GbFB/+Yksr8JVo3C4nijnZn40TM3d6++fZ7UL9HRdyjV6ZnYuw4j3JPtAleAndreIrj8yPvss7ykfwtq8uHsDLC1rQmJ9Hqj42KHgDOpmt4gO5+kgonqCrrj644jX4fmO8BJ+SFY+mGVHovLgGth1dJT8db9t8eBFazok1pmXtwPspXkJ3qngB3QBvwCfgbhRPxtCTRhfGs3Pq4/5v9+RjeBvXntd+sRAd5zyJKqPzodqYAnhyYglf+BFWfEDwAr4NeJPiwxnj289NRKtZpcXqm+cWJmPep2lioYZVy/50rJiSzekNFZ7kURp0X8VHB1c8QTcrvsbYYmg0OR4/3PlePoZ/u//vu9h2ZD36rXxWuHruAEnjCskOUDIgeFXxGvScVbwK3U7xKnQdfLusBLQk0E1mRKPV7Dj0Xd0aq/fPxpU7F+Wn4G08yaS3se91R5s5pWhcV6CTOVG8L/jABRxP0qjiSLIEr8F3o/ia46KEHbt8UDzEX/TfhgNLceD8HvFnczt99Wss3ZOJPsufRpOp8UgaW5A8QD7UGF8ET04qocE3gX9Y0jkvfO4Q8WJqlqdkG02PEt/r83ZrUvUEHL70T7EGwNx48cZGCuJ4aRc3fs+AdSkiT+dgzrzmLpIrcCT04hCKl/BDdfX8usqogvjwmLcil7kjDeWH58aEdwbh1NXj8rv+7fLNC/jgyAa8tW0YXlnUCs3TE1EjrYjoCEljC4gafd1J0eQNYqkTlLIGH0jxCnwBXsK3dPVkZlfPf+b59xaZcWg2syQapkeRFRegGX6PFc0w8f1+2HJ4mVivZ7cg5M4vNwn2QnRamIT+a9sZVTnuBF2W1kH77AQJXZoCXlW8Gb4O3gzfKrgzoBvgCbYjxRNgK/CJqbmxfG+WeBBu275aT9/LhYoj8qDexFIYvr4n9pz6EL/+Fnit2+Wb57HvzC76t2Zj/NbX0Wt5ezw1K5k8QlkaCuh3HFdAWI20Qqg5oTBqT+QFlMVRdzJ1jLdi0OAt6hxTS1KnKEVegDoFWdPpBIxM+8odgl/TeJtO75lO700viUbTYujvRaPB1Ciy4mJxRt23iqLx9Bih9o7zktFnVRukvdsHi/dOxe6T7+HctRNB1+6d+uEIFu2dgq7L6lOniUbD6UUw/eMh8qfAmR+PUwyQSAFfBSOP1xVvqN0EPtTgzlNtZHGw2YI34FuAt1B8+dQnSK2p8lGAf53fS+8vTmM+/zxKpHXVxhREp6z6mLljLPaf+8x2nl1tPPbxpA2vpPmcOsO7h9dg6d4MpG8fjhEbe6D/qo7osbQVOs9viI5ZtdB+djW0zqggVN5UQOehgaBOjaXXpQR4VnubTIqws6qh07xaeGlRA7y6vBVeX/0MRmzqhmk7hmDxnmnYengF9pzeLhR88+6Plu7a3DgVO3ftG7GadsjG52m8TxSrcFrPKSMCvOYZMXh7/yz5bi1daz0nTqR1agFHBx/JDRV+0MNVfMUR+fD6qhflowAXb5xDg0ll6D1RRuWOI/3ksYWpA3AKVxQdZtXCqE19sOnL5aKgc+9Xbz3aTeMlz3fp7/Jc/Q93vhPe4vy1Uzj74wmc+eFrGl6OEbijOP3DcfG9c9dO4hL9flfvXBaLKLlT/f7Hb/Jfc9e4I3x3+wJ2n3oPc3ePQ/817UVg13hGFAHmVTYJPlF904wS2PmNt3q56dAiNM+MsazcRUbxXldP0IsJ6JFSfJWRBfFcVkNjzTlDaDszGcljyP1aTNJw4YbBVxmdX0Ty/L1nZtfG4LVdMXfXZDFjd+L7rwSUh6Xd/fUnXLh+CvvPf4K1/5qHt7YPIpffFh3mVhZjPI/1vHOm7Zx4n6heL+Cw6nkzxRFlfj3703FiY4W5cudU8W4KOJ6qIxi6F7xjxUvoZsVXG10ELaZVxvWfNUjslrsvaoeqowoYRRwzeM205dWcuvGcfDXqBFXH5BeBHBdzUjKT0XVRCwxb3x0ZH47F6s/nYfuxTZQZfCZUfJWUffveDZES/haCWv/483exEJPVzmvbv71xBkcu78enp97H1kMrsGjPVEx5fyAGrumILosbUvBWkcZ5DXADMg7uONDjCF9P5+wKONwZOi1IFp5Bb2nbeon1d97KnTPFh7KhQkB3Bd6AT8AtFJ88hsbvcTE4eeWYfBwgdX0vVBiex4BupXgdvN9iS7K6BJ2XX9WkaD55HKV1Y7lDUGqXVph+RmkSpXLN0xPw1OzqeHF+I3Rf0hqvrXwGg9a+gKHru9L43BOjN/fG2K19yPpizJbeGL2lF4Zv7I4h67sQyOfQZ2UKui1pjhfm10XKnCoUwSeg2Yw4NKTATmyhmlIE9Smwa5QeTfFASbFvrvWs+CDpnDV4zt27LW8s1udz+4PG/9dWt0Xr2WVMJVtninebzhnQvfBtXL2l6v3B89eKw/Nh76mPxQNx47QtkQI8u9k5Ad6A73xDBb+uP4V+PoXLugSHUronJ0WhzsRiqDWhKFkRssKU7pHx1wkc6Rei7xWiaJ8i/klFxW6aulOKU8TP0Tp1oGklRdDHkX3zGWUorStrk855c3kdvNPKXfPMkiK409vNe9fQeXFt8gDljJJtcPBkCnjV1Zvh6+B1+J4qBJrNC91a8W4KOOVT82Dt/iXykSAKNBzg6WmdE/B+ilehK+BdlWxzqHLnFjzvnk3/cLD8dECB5VER3KVQsOd0Pt5K8Sr4QK7eU2U4BVHDzWoPrvhArj5haG7M+GCsfCRKR07vQuWRBUSgJ6p3gRRv4+pVxecYeAW+H3gBXwFPZi7gOAXfcHpxLP98pvx0gH1nPxIRPoNnc7oCJ1TFG9BVtZvBq4q3dvO+4Bn6kDXeZVOnr54QwGuMo/GeoYcI3q3iDehkvOKW3T4bV/RsweeA4r3QNeNdNDuOr5efDs+uLRE5vN3snBPF69CdKN5TWUDXzR68n+JV8AZ8DXwFGtNfnt/aSNtu/HwNrdKrUkRe2HDxunnBh7ahwgl4HtubTiuHnsvaotfydqToeLHG3he8Bt214lXwDhTfdna82Eb11eXPxWfDjfN63kLlPy3rRvEBgjuT4j2VU4vCKXiniq8yshBBrmZU2v748w88P7cJKo/QXLwPeAV6Tii+BgVxA95+Dt9cOQJ9PosLNG+sfsECfOQVb16B03p2OQJbCd8r6dqYd3qQ+hm6lsuHA96J4jXoZvAKdDN4J4qvNqoopW0l8e31s/KxgAErXyQPkFeDbgbvo3j34A34JvC1JxRDl4VNcI9yd3PjdOmVxS1Qd3JUaOAFfBvwARTfPKM0ui1rjLtydo13uvRbnUIpYEmXK3BCULwOvZIO3Qc8jfFhKD5pNP39kUXwxZlPxYNxm/recCQMy+0t2RL0nFY85/RbDq6Uv4F/23JoBaqMeSLno3oBXQPPZ+DwkSg87cyN07UXFtUmD1BWBHm62v3BR26M91QaVgTW4DX4TsCb07nk0cURT8Hcli+925pW7s1GuSGPiwKOWqt3rHgDvj14X8Xzbpsi+OriF/I38G9cl38mqyaqpxXAk6T4JjwTZwVege8KvIXiubgz+f3X5W8AnL12QusQcxKMlM5qBY6h+BDTOVXxGnQBvogjxWvwbVy9hM/gyw5+DHN3TpWPBnx07F0R4NUgTxAyeBvFC/gqdH5N0FnpPEcfqN25fwtr9y/ASwsai4CPizWc3gUFL+FbunoyDbxX9Tp4Ltku+6d3xfC+sx+Syy/lA92reBvwBNsZeDIFvK54T0Uduq3iQ0vn4ofkxqgNr8lHA45dOiRcfzK5frVWbwnegO4cvJWr50UYvZa191mSZNfu//seth1Zh94r2pPqi4ut0jwXH2lXX39aMWxX07VDS0Tezqtt/Eq2BnwzeILuQvGG2iV4Ad0XvJXiNfh24P0UT9ATh+ZFtwUp8tGAH+9cQYOJ5SjIK2JU7gIqPgTwquJ1+NXTCmHsln4+ByFcuX1JTONeueO/hZo7yOdndyF1YzeCTtH/hIJoODXWXvEqeAFfAU+muno+/aLZzFI49O1e+X8DsnePRwPqCN483in40F29p+JQDXpwxQcGr0PXwVdILYCUmbWNSQVeKdMhsx4qUdqmV+4elOLZzadkJmHYum4Yuu4V8bramLxok1EZsz4eh/PXT4nf0dx4SnfaB8PQNrMyahL8+lN4sqVMyIpvnlGGIFYWc/h6G7bxRYLOStehW4CX0MNz9Qr0CkMLI1LgVfiVhxdG/QnlcPnmt/LxgF5LOyJxWB6/Wn1OKl4Hz7tlk8cVQnVeeTspWuTwPEHDZ+A0S4/HxHffwPHvtAWd5vb97Ys0DmfipYUNxZgvxv300s4VL8HzSZadF9b12bTISm8yvYSI6vVc3l7xkUnnBHTX4BXoZvA69Koji6LS8EI4cvFL+XjA6I39RQQvKncS+oNUfANTHq9X7epNjkEyRfAc8fNU7D/PfOyz80RvPFf/0debMWhtZzHe85l3jabFOlZ8o/QSeH1NRyNd0xufkddnZRsx3vNBSCkE3F7xGny/Md4FeE+FIRp0S/A0vjuN6s3gq40qRsHcE9h+ZIt8NGD+rnT6Xi4R0JknaYIqniwk8I5vqNDq87zQsvbEYnh1aVtsPbRSRPdW7cT3h5H50Wg8M7cGak/iE66K0ZgfF1Dx9d4qiknv+2770hufT7Noz1tokaGttrUFb8A3g/fCDwbeU56hBwIv4FspPjB4fl128ONYtDtTPhbw3uH1SKCOUJ3yeIYeVPEE3VbxCvSg4FXoAcFrtXr+yvPxfODRs9m1seDTqfj2hre6qLZb927gvSNrxEIMdvm1JxWmwC9GnGVrVnzdKUWwcI83jf3FYicQq/6FhbXReHq0hB75GyoE9KDgAylegW4GX3rQo0jb/KZ8HODL85+jIgV4SeQFNLVHWPEG/PDAq9OyXKbl4k2LGYnimLN/nf/MNgX85spXyNo1Hp0X1CdVFxfn3DVJLyngtyD4vKyaz7LV26ZDSzF8U1dxcqXaeEFnzxUtBfjAig+tckfQCwnozhTvLp0r+2Yu9F3qXSHy7bWzqJsWRx2lsFayZQsFvKr4EII7A75D8Fys4XX0rHxeV88zdZu+XGq7WJNr/Z+efB/j3+2Hp7OSUI9cPy+34jX0B5V0bc6usagy7lE8O68Gdn3zjvyu1vh405eXNBSuXle8K1cfALyn/GCG7ga8hG4Gr0DXwScOzYcOGfWNhYq8Mrb1tGShdr1yF1DxBDsk8AZ8X/Cq4u3AG9DJdOjC5EKMxlNLU/SuHWb41OwkSumG4tDFfbbq//GnK+Ks29FbeuK5ebXx7fXT8ifAyC3dUX9qMXF0ecP0aCz4bIpPkMcdpCWleW1mxQcB787VexIJOltEwJsUXzGVctsJ8WI+XW8vZbdC4pC8RuUuLMWThaN4t67evAKnwVsxMn8vIdS/7sACfH/Lm6KaGx8p+pvcKMHZQd9V7VFrUgER4D05pTCqpD2KKR+84bNbZujGl8TumuDpnHPFe6HngOIrpRZG0sgonPjuiHwEeog1PVFucC6fkm2OKd4GvJt0zk7xArycnOHK3ZNS/W0yKmLU5p6U2m3BzXvX5VP7N1Y0H2XObn3x3mliEmbYRr6IoBt+/PmKfBeQuXOUqNf7QrcAbxvc+Y/xnoQ3NeihKT7wGM+v4wfnwa6vP5CPAGTsGI84CvCSKK3zA2/AtwCfg4o34IeoeH1mjo23TnEKxwUcTucmvDcAO0+8Iy4fCKUN3fiiWF/P0HULrPjgrl6DroDXFK9BD13xWlTPVmrgI3h730L5CMC6L5ahzJuPG0WcgIqX0C0VT9DtFf/331DB5Vqu2dehFI5z+NYZiZTa+Z+gGajxxEzzmaXBp1bbr7kzgReK1+DbKZ6gF4Q1eIeKF+mcPfjSbzyKae+Nko8B7Dm5ExWGFSBPUNQevAGfgOew4t26elvF+4H3zs7x66TxebDp4FL5KUCoP3VjV6w9MA/7zu7EiSuHcYGCvHM/nhC5+swPR4gNFXxsuT4t62ZDhS14Mk+8gK6BD8/VW4EvSq78cQxY0UU+KnD2h5M0znNtvohI63zAW6o+guAN+JG7oSKQq28m4Gu7Zln1DFNvs3eORcUx/xC7Z+pTTs9VvJTZldB2VnlRruWons+obz0r0Wc+3mqxpSV4A74ZfAWCPqgg2KzAuw/u/Mf4soNyo9PspkZKc+vudTSeVEFE9ip0zayg24An2OGCD8fVOwZPKuc6fcuZiZSunRGfATfeVsVuXyvb8sQNvXcG76qJE8Ucu/l49+D9x3gDek4pPnFIPjSdXEWUK7nxTQ6dZjcRAZ5eubNTfFiu3oBuAd7G1auKjyT4hpTadZxbyzhqhAXQc3kbUniJgLV6NnU+PiTwUu0qeC/0AODDSecqDCuEaiOiaKzyFiX6Less3L5astWhG+AJdtiKDwF8xII7BTyvxOm78iljHwBfBdYpuzYaTot1NR8fSPFe6HbgNfgM3lPujQIoZwNeDe7cK15z9fw6fnBefK6sjJ20dRgFeI+JtE4F76d4FbwB3wK84zE+ZzZUBFM85+9jtvaRT09xDQVrDJmPPnEzHx+W4g34OnQyVfEa9Mgonr/GvfE4NuxfIR8ZWL4n24BuBq9DtwSvKl5Cf+gVL6HP/WSifHpg/7lPUJfUz+O97UIMF4o3b6gIpngDeiDFq+BdKV6kc0UQM+AfyNzufeidx7dRR8hFKV1RS/A5r3j34A34LhXPX2tNLCrm5vW2+eAyUbwRa+4k9AepeE9ZFTqZneLDKeDEvv4Ihq7uLR8ZOHrpoOb6Uwsb0N0rPsz5+Agq3oBOZlY8l2h50+T+c97hbc7O8ag5sZCAHhS8U8UL6NaKV6GzecoOLABhNuC98K3AO1N83MBc6JLdVj4y8MPt71EvrRzKDy0gijhOwEfqgMOAijfg24O3U7wKXlU8r8bhG6j4UCO9jd7cSxyW4LO8WoHvCnwIiifo+Q3oPqpXwYfp6ssNyoNmk6vhF3l2HJ/g1Ca9lkjbROXOBF6Db+PqJfwH7eoFfBW6BXgrV8+LL/mIM/3Svj///AO9l6eIMZ2DvIDgJXxLV0+mgfeq3il4TxkBXYJ3qHgVvBPFJwzOj5qjSuHyDe+0Y4+FT1PaRuO6KOJoJVtf6G5cvQ14gm0L3oDuHLxbV8/g2bX3WNLaKE7xQUYd5tQQ07J6SucDXkJ3rXiCrYIPFNx5yryeH4HA+yjeBnwwxfPPEocUEMul9DZ6w0DEDnjEp2QbyNX7KV4Fb8C3AJ+DBRwDfgDF81bpkZt6yqfm/XMnyd2XQ0N5yaAleLPiVfACvgKezK2r16CbwavQyVTooRVwCgvA2w5773fJ/jhdRPV65c4J+P9NitfB83WjfA+d3nj3DK+74xU4D/oQYwN6nA7dQvEq+HALODH9/4H5u7znrLxzcJ1I2zjQcwP+YVR8IPB84SDfNKm3LQdXiDX2ah5vB16FH1TxKniT4s2zcwK6P3ivm7cb4zXo/uDt0jmGPmq9d4vuQXL1CYPzocKwwhp0M3gFuhm8Y8VL6H+X4htM4XNuosTmCb3N3TVJrK61qtxZgY+I4gm66uo9cQPyQZgfeF/4loo34Ad39ezeu83vIB8duHTjApJGlBBjvdXsnAjuQnX1BnwC7kbxZCGBt9lQwSdd8iYKNV0buamXONdOz+OdKD4geAHfBrxJ8Tp4T2kFugGegJsVb0An84duB96r+NKUq7dLf9I4B/3nX39C8ynJKPdmHlm9k9AjBV5CD6p4gm6reAV6UPAqdAmeVc6bJW/fvymemdfF8c4Z3kih5/Ea9JxVvAqdTUA3wEv4doq3A+8kuCs7KC9qjYnDD3e8i/5eyGqFUgMfl9A1swSvQA8E/mEp4Ojg+YaK7kvaiIOWuDH8Zyhn5/PqbSdpFOiRBK/C95Tur0F3Ct7W1duAF/AJfMJg/lkBfH3ZuzJ20Moewu3rlTsdvj94Db4deBW+ULyEH5arVxUfQnDHxjdSpG7wnqd34dppglyGfsZuX8vjLcEHUrwCX4CX8C1dPZmVq/eUYuhm8AQ7XMWbg7tEgl56YG58dPQ9+REAM94fLwI8vXLnBS+hm8Er0M3gdegGeILtSPEEOyTwBnxf8Kriq43Jj8wPvSdnHjj3GWqN51unSxl5vAHdDfgwFU/Q88ISvIQfjuLN6Vz0a/+NpZ/OlR8BsP6L5Yju999+tfqA4N0oXgVvwLcAH+HgTofP15BtOOA9I5fTNd4fz9DVAk5EFK+CF/BtwJNJ6DbgCbY/eAvoZKriNegaeNXVF+vzX5i4xXuh7J5vdiJu4BPk/gu6A69AN4PXoVuCzwnF24KPRfLYQvjn6Z3yaSGKNHxkuVXJ1lbxCnQ/8CEq3lOyHwFnC1HxKvhgY3x0v3+g7xLvVR+nr5xAldQoem9+WbmzAh+BMV4Fb8C3AB9BxdeZUEIEc+oNVXxlCZ9VL5RuUbINRfEqfKeKF9AFeFXxErpTxauqt1M8u/rYAY+j/fT68iMA7ty7jbrjEkRkr1funCs+QpM0Erql4gm6veIDL72qlVYcbWdWM7Y2icWQS9uJE68Yuh1454r3h+5U8Qb0sBQfALwXfiGUfv0JAfn2PS1v5YWC7Wc0QKnXc/lN0viAF+lchMEb8Al4Dig+eWwRvDi/qcjNufG9L+0zq4sbKvQ8XgVvqJ3NMfjQXL0n9rU8KPlaBMBL+Dp4K1dfdmA+VBpaHGeueitU7O4L9f4/BL1IYPACvhV4Db4KXoNv4+otVR9Z8Kz0xOGPY/CarvIptVurmkwthzryflkr8CG5egFfglfgC/ASvtnVC+gCvIQuwKuu3iV4AzqZqnYNfgHE9HsUu47vkB8FcPTiIdRLS0TRPv+XOgqN7UHB2xdwVNXbKT6nN1Tw3XPlh+dCmxlVxXVjett7+mNUH1tYBHgG9EiBd6l4A3r4irdQO5sCndUe/do/8OqCTvKj0NqVW5eRurafqNwV7/v/KKLPLQo64So+YHAn4Yfl6iX02vS9pDHkqUY8If48bvMAXLntezDhoNUviRTOrmQbUfBmxavgyXygC/ASelDFE+zQxvgCAvycHd4Dd/R28vvjmLR1BBpPrELj/OMih+eaPRd2RAcICj5CwV1QxfP3olB1VCFS9ROoMjI/2s5IxrT3R+DklaPyabxtwe50VB1dQNw6pefwbsAb0N2AD6B4T0zfPGCzBW/AtwAv4VuCN6teAV/mjXwo0e8RjNs0RBxJYm53f72LT77egbEb30TK9HoEuyhKDngM0f3/R9Tqy72ZV8zOVbSblnWjeBW8Ad8Lnv+cPLooAaZONyI/EoZR0Dk8D0GPxrNzGmDC1jex+5sP8JPF1aH8bHxhMAOvM76EzN+9ljOK16AHUrwBPUaFrrh5Ad614r3Q7RRf9o38oljTckpNvPPlenEZnlXj75+5+g22/Gs1Jm1JRdd57ckTVEa1EdHUeXKL1TclX3+UPAPZwMdQZlAuih3yIGEIz9VzxyhIXqEQdQrqIMMpHiCrMoKN/8xWCJWGkydJzY/yw/IiYegT4thyzQhwKl9MEIOWU6ug+6IUTH53GDb9ayVOXTlue3MyT7B8cHQTns2qTx0lj8jZOaI3F3AipngFugY+sOI9Jfo+oUGPuOIleDJD7WwKeI7qY/o/ihKvPYKU9PpYsjtLzLMHa6yg09QRPj3xIdZ9vhQZH0zA8LV90WtRJ7yQ1YLSwLpoPqUaGkxIRJ1xcaTgGFJ4lKF4PhKlxhgaj9PoQ52YSECr4amMuuic3QK9l3RE6rremLk9DWs+X0wq3i4uFvzp/m35f7dvPI6v/WIhXprXXLj8amMK+UT1ah5vBd6AH4riXYD3lOjzBHzAq9ADKV5Ct1Q8QTcrXgWvKp6DOx7nY/o9RkHcfyNpRAxeXdgJq/YuFGN8sCu3rRofQnz7/i1x8vP3ty6JjsTHmZ2/dkbYBXp98fp5fHfrojidmnfU8tHfdidE2TWuM/CVJVsOvo0ha7qhyZTywvXzFaMc3Dkt2TpRvAGdLFzFa9ADgA9f8dbwVfA6fC7glBmYV5Rro6gDlB9cGK2n1sKgla+KiZp/nvpEAAz15uNwGhdZbty9hq8uHsBmcu8Ttg4mRbdA3QmlxeWDDDt5TFEjsrdK5wR4A749eDvFq+BDUryE74nWoUszwJP5gI9EAYdg+6heBS+ga+D1Wj3n7aUGcBT/P8J4arb6yJJoNbUmeix8hgLBwZj38Qxs+XIN9p3eTZ7hmDh1mo8w4yHg9z+s4wS1sVp/pbH5DrlvXuDByuVDjHd9/T6590XIIDc/bG1PvDC3GZpOqSjup+F75/g+morD8xPoYjTmR4tULpTKnQpewFehW4B35OrJAoEX0H3AO1W86urN4Al2uIrXwbPpK3D4ddlB9O8T/FgK3DilKyE6gxbRVxhaENVHxaLRxIpoM60mnsloRGN8Swr+2onNFT0XPYteizuK190XPIWX57XB81nN8HRGA7SeVp3G9wQa60uIAI8Du3JDcqPMm4+KWyoqpOYTwR/fTBE4nfPP492Ad+vqQ1G8J7p3bkT3DgA+JxRvAu+jeBvwAr5psaVeuePX5YfSz8gSB1NHGpwXZSmCLzvoCYrwc4mt0nFvPCa/Pi4i/DJv5qL3UIQ+hCL9oXkpcs8vjkThyJ6PLeegT6R1AdI5A7yDAk6oijfgR1DxEjoZwbYDr0IX4CX0sBSvQidToVu5egE9APhIVe4YtG7hFXByXvEqeAO6GbwCXQfvidKhK/AdKV4Fb8C3AC/h2yleBW83xjvdUJFjJVsVvAHfAnwOKt4JeKeu3hPVKzd8wKvQzeBV6KGmcwZ4r5u3G+M16P7gzcurQwavQDeD16FbglcVL6H/nYo3oJPZKl5x9Rp0C/APWvFux3hXrl7Mx9vMzoXq6g34BNyN4slCAu/4hgoyO/A69OK9cqG4DfgcVTwBNyvegE7mD90OfLiKDwO8hB5U8QTdVvEK9KDgVehBwKuK16B7FS+h59Kgu1G8At5P8Sp4l4q3Ax+R4C6Q4hXogcA/bBsqQlG8p3hPgs5mp3hzOkdmgCfzAZ/T6ZwNeAHfVXBnBV6DbwdehS8UL+GH5epVxYcQ3BnwXYL3FNOhBwJPoCOueIIdruL9gzs34CV0M3gFuhm8Dt0AT7AdKZ5ghwTegO8LXlW8HXgDOpkBXYIX0M3gLV29mwKOCt6AbwFewg9H8f8R6RxZOIp36+o9xV7VoBvgQxzjfaAHCu4cKd4COpmqeA26Bl519f+RircBH2o65yn66uNgs1K89RivwX+QilfBP7RjvAregG8BPgcVb8APongvdEvFS+gWijegm8D7QP9fX8CJ0Jo7Cd1S8QTdXvE5c0OFp2gPDboG3qR46eojGtwZ8Am4G8UHAO+FbwXeoeJFOhdh8AZ8Ap7Dinfj6j1FCDqbLXgDvlf1Bvj/yHTOCrwGXwWvwbdx9ZaqjyB4A35oN1R4ofuAN7l6Cd7O1dspXoUuwEvoArzq6l2CN6CTqWpnswLvPrizL+CoqrdT/MN+QwVBf0xAd614FfwDm4+3UDubCv4BKz5gcCfhh+XqDegW4G1cvap4K/Cewt0Zuhf8Q6V4gh3SGG8DPjLpXISCOzeKDwG8veJL4f8DDzHinMF4WUsAAAAASUVORK5CYII=;" vertex="1" parent="1">
          <mxGeometry x="583.6400000000001" y="497.90000000000003" width="102.64" height="102.64" as="geometry" />
        </mxCell>
        <mxCell id="4ohFSgvwRZ63tA1tGF-L-30" value="" style="rounded=0;orthogonalLoop=1;jettySize=auto;html=1;fontColor=none;entryX=1;entryY=0.5;entryDx=0;entryDy=0;exitX=0;exitY=0.5;exitDx=0;exitDy=0;fontSize=16;" edge="1" parent="1" source="4ohFSgvwRZ63tA1tGF-L-27" target="4ohFSgvwRZ63tA1tGF-L-29">
          <mxGeometry relative="1" as="geometry">
            <mxPoint x="851.5199999999995" y="559.22" as="sourcePoint" />
            <mxPoint x="943.6400000000003" y="559.76" as="targetPoint" />
          </mxGeometry>
        </mxCell>
        <mxCell id="4ohFSgvwRZ63tA1tGF-L-31" value="Amazon S3" style="rounded=0;whiteSpace=wrap;html=1;fontColor=none;strokeColor=none;fontSize=16;fillColor=none;fontStyle=1" vertex="1" parent="1">
          <mxGeometry x="509.9599999999999" y="608.14" width="250" height="30" as="geometry" />
        </mxCell>
        <mxCell id="4ohFSgvwRZ63tA1tGF-L-32" value="" style="shape=image;verticalLabelPosition=bottom;labelBackgroundColor=default;verticalAlign=top;aspect=fixed;imageAspect=0;image=data:image/png,iVBORw0KGgoAAAANSUhEUgAAAH0AAAB9CAYAAACPgGwlAAAAAXNSR0IArs4c6QAAAARnQU1BAACxjwv8YQUAAAAJcEhZcwAAFxEAABcRAcom8z8AABL5SURBVHhe7d13lBXVHQfwSUwziakmir2eiA31j8RKEv+wRMkxTcSaZsMWC1WKhaVa6WhUVARbbCBWggGsEaUoCLssuyxb2Pa2v90FvJnvLTO/mddm3rtvcnZmfuf8TnZZ3mOyn3fv/d17545G1bC92HaVw2WO2ItVk6wZ+V07R4msVTlaZB3y9u84cscYkmNF1o/9tshxIhtUjrez8Q7knnbeuSdrUnmXyGae32LNd9uZmODMlhLkN0VOFNmqcpKdbZO/YWX7FJJTRXbw/DrrmGZn5z3O7LpX5ddY130ikyrvF9mNfAC5h5U9D7py+h6sl+dXWe8MkTtVzrRz1yyVX+G5ezbJOSK/VDnXsJLNM5iJ/j0Ww0cL3qi6DegxfJTgBXoMHyl4Gz2Gjwy8se1Wgh7DRwKeo8fw0YK30GP46MA70GP4aMAblbd834Eew4cfnqPH8NGCt9Bj+OjAG5U32+gxfDTgBXoMHyl4o0Khx/CRgefoMXy04I2Kfwj0GD468AI9ho8UvLFVocfwkYE3tt70AxbDRwteoEcEvmXuL1jH68NY8oMZrHvNkzy73pnA2p+5kCWm7hsZeBs9pPCNk/qxlsfOZjtr17Jc0fvFK6x13s9DD+9EDxl8YvbJnrDd0bPmiVDDG+U3utBDAt/2wlXsy2SLZLQDH4Lk+zNY1/IJPNHFp/t7+LPWh+xWHyZ4jh42+HTgvVtXsMSckzMWd+1PX8h2Jyrk3xYRVngLPSzwTbNOcYBzuIWDMxZ3FB4VPQo7GvggKPSwwBvlN9jofR2+fsJ+vEWrUODu4i4XPFo9jbCN8QI9JPDtrw6XTCI4uKu48wqPaR2Nluk/Cw28seWGHwr0EMDvImNy8pMnU4o7v/B0jO8xC76wzOM5ehjgG2eeInlEYGynxV0+8B0vXSnfTQwVYVm5M7ZcL9D7Onwb6dp31qx1FHf5wjdN2Ve+o4i2x88KBbxADwF81+onJQ1jne/OtNELhKeLO51vDAvFWr1RptD7OHz354sljdkizVaP1q8DvmfjK/JdTfTXBXpfh+foYYBPpkHXAZ+CjiKvj8MbZdcJ9L4O3/HuLEnDWPeGxRZ6ofC0gm8z5+8cvY/DC/QQwLc8d7WkEZU2Rc8XHsu2NJofOMqazvVleBu9j8PX3bm/pBGRWHBRwfCdy+0lWRR0apzv6/BG6VCC3sfhe7bYS7C7miszrtx5gW++r79jDR87chZ6H4c30X/EwgLfMP1USSQC43w+8A0T+zkKOODjZgz3dK6vwkv08MDTKh7RusSs5H3AN5T0Y8lP7Tk/ouO1YY7irq/DE/RwwGNs761x3i3jtcVj6bZ7g93CEV3vz3QUd2GAN0qvpejhgceY7o5OE79hWn8HPLZjE4+cwzrfm+kYwxHYpkVXT4u7MMAbm4EeUnh3i1cBXKzPI93QKrrMDwG6+nRVfV+H5+hhhccYjzHdT+xKVLDWF65KKe7CBG9svkaghxle4Wdr+T3lK/hNGOju3cVd2OAFekTg1ZItxe9YVsJ23L1fxuIujPDGJoUeIXjH5gymdKSwiwK8if5jFjV4iu53Hh8GeGPT1UCPFrwbXd2IERV4gR4x+HToUYK30SMEn4KOsT5C8MYXVxH0iMCnRY8QPEcPCr5ixMFs+5QzeFZPPYNVjjz4/wLvRldVfVTgLfRiwW8dfgirmT6IJUtXst1dqUue+LPWd2azqjuPDwzegb5YoAcNj9urEw8exTNoeAe6bviaBwexnqp18tebO4BfLPiGueey9lWzWG9N6vXg5osO82c7ph5dVPjW+WfzY9LpzszvrPgPP0rVMv2oosMbG690ouuCb3h+VMaWne7PVfRsX8cqRx2kDb5m3AGsfaV902SuaHu7RDs8bsDAFm2mzR13dJv4xYQ30fdmuuEB7o7k5lWsavJA3t3TMb7xX6PYzibnNii+1wFfd/9pbGeaLVbE7iwAaPm64PE0DPe5dxXZPgS76tayxNR9igIv0fXBb5s40NGS8XXtQ5dkLO5URY+unQZqgEK6+pqSY1PAu03MlldGsJrxB7CaOw7g43vDvHNZy+IRKR8CHfDYi8euHQ107bgTp2Xuyaxp8r58fFcPQHJ/OABfjBZvbPy7QtcD32W2aBUAr5o0MKW4ywSfeG2SfKWIhqeG5g3fXbZSvou4jsTLJrbZ1Xut6hGFdvXuu3Bwdy26+kzFHap69xHpYpyWFeia4GvmXSovVUTtvEvscd4jfOe6JfLVAiuf6VzDY0PkO4gAeD7TOUS+xV3LwsHyHUQAPF1xlw4ez8Ghobu4MzYodA3wHWtelZfJ+Nfpqvpqs6JvWT6HNS+dzCrHD0iBxzhPg0/lfMLTVt712RJ7nPcAX2t2+/RWK1T1+UzncMpGBVq8u7jLBU+7enwIdE7njA1/25vpgu9ttH9ZaPWiyxfg5bcdwjrW2h8KFXUPm+O9Cx7juQp0+X4WcGrvOV2+UsSO2b+x0T3CJ569Rr5aFHx+5/G4EYNGPk/EaHedjdc5jxfoGuC33n6CvEQRFWNPsMZ5wO94Yqj8iTPQhbu7ejq2YwqH79Pm6yJbSHZ89JR8JWO91eusLt8PPFo7jba3Svj4jmx3ZQdymTPxFAwVAKPFnVd4FHk0EmYXrwveRi8QvnLCQHl5ItxVPe363YFFHAqP1q8j0M0rdL/wuoI/IIEUd37g6ZSubf5Z2lbujM//StALgK8g6Gi9qrhT6Il/z5E/TY06NaWT8PUL0vcKfqNr/RIHuh/4bPN4P9FbvsIq7vzCO07MAl3TWr2J/hOmA7705sPk5Ykou+VQB7y7sleBhZjyYYc4qnos2KjAz9s/fCp3mt06ktYD+PCp4s4PfO2kY+Q7iOj8eAHrork6Wz7Jb7JUwbt3VeD5gG+a3E++g4hmrNEDXQO8RNcDj1+yirrHr7OqegXftGSy/KkI/P3qBwalTOdowde6fLY1nUNaRV2G4m7b6IPkK0VUTzjON3zzM85CThV4aj+eZ5biDjda0mi8p79v+NZF9pSPF3JYyFHoBcIT9MLhW99bJC+TsXZzDKfTOQW/5dZDzaLuOrb9/kG8oqfTOWTluAHOD485vquq3is8XdZFYacqe6/wKABVoJUrdD/wu5rJlMucvlnoHuHpQxBxmFKN8zrgjc/+QtELg6+df728TBFV9w1KC2+nBCfwmMOrAB5dq/cK37jwWvkOIupmnecZHgs5NLA7R6dzXuFbn7cfkoBILBjsGb5j6TD5KhHYnbPQNcBzdJ3w3VXr5aXKMdUs8LzCuzdqGs3vaVXvB562dkT9oxfnhG99c6L82yKwO+eu6v3Ao3Kn4QW+3QSnVTtaOVp+ugWcfOEtdF3w5aNPlJcrAvB8fM8Cv+XWQ1iLq7rHGv5WVeDlAV8zzblIg0BXj8UbCr99zIF8AYd26Qh8n2utPhd8/bSj5bvZgUIPByYpfH3Jfizx6NmOLh2B6j3XWn0+8MZnf7bRdcFX3ftbedl2oAdoWjyZd/lbx5zAtpUM5BU9ijs6hiO6q9bxip4Wd/nA1808T76jM/Dv9ZiogHX/2wgOPvFYR3GXL3zTw+fKd02NbIcosTuHbVla3OmCF+gBwXsJtPCKsQOsMb5QeLR4rOp5DSzoVI890BrjdcA3zDg1pavPFmjxTff1TynudMEb6xV6EeArJvzSUdFnC7S4hudG867eKuw0wSObXxzpmMPTwL8N7Np7T3OM8TrhkSju6ByeBlo7sBOPnpO2uNMJb6L/lBUTHsUd8BsXT2Fdm+y9dgR+2ZjaCexDyThP0DXCq00a2vKxXl91+0HWGK+yWPBqk4bi44EIQZ6WNdZfAfTiw6uk8OkWcIKA71xv79k3vzTS83ROJzx9li0/OasKuwDgBXqA8CnoPufxOuAd6Ga3r9CDhMeSrQqgq23ZIOBt9IDgKXqtQg8Ynt6dw9HN1h80fDr0oOCNdZcT9ADgnejXW/vxQcKnRQ8YPhN6EPAcPUj4Too+H+hmDxAwvBsd43zQ8A70t53oxYa30IOCT0HHWB8wfDr0oOEpOu7AyXTrVTHgHehBwKdFDxg+BR1jfcDwbnRV1QcBb6y9zIlebHgH+mMEPUB4it6k0AOGT4ceFDxHDxLejY7WHzS8A/2FUWkXcIoNjztwVHB0jPUBwZvo+3D0oODToQcFj3vqcVNGkizH4gNQO+P8wOEpejEOTWaDN9ZeCvTg4DOhFxM+2/l4GjhPt/2u4wKBd6Orqj4IeIFeZPjS4Sey+lemsOS29WxXp/2Lx9ftn75atBaP/Xh6J47XKFZxh0OTOEiBg5T0FA3uw8MYn3ju6kDgjTUKvQjwX1x/OGt6a64DOlN0mx+I7bMv0waP/fh0J2rQ2jvXLuGtGnfRJjPsvOHnuuBxMwZutszV0yDwYcB/j6aY8By9GPBbxv+a9TZsk/9XvAd24wqFT3eEKrl5Fe/mMxV3KOjct1jhFE2h8NUmePIz56FIL4GWXyx4Y80lAl0n/KZhJ6WA4/v6l6ew8jt+xUpHnMjKzKyaeRlreTd1v7357bkFwTe/6rzVGl28l1uv8OCjpKvl4+6bfOFxMwYOUNLg28krZ/Fz8fUPnsr/t+mJIY4xXoV1Rl4zvEDXCL/xuiNYx8Z35WWLqH9pKu/qMxV35Xf9io/3NPLt6rEvT7tR3HuXrrjLBk/329H6OXoe8O0rnA9awFheO/GYjMVdg/khcD+puhjPuTM+Veia4Lf/8wZ5uSJqF91OxnmC7oLfdNPhDvjdZh0AdL/w9EAF8K17633A43FnNKpURe8DHjdb0mhfOZt39bmqekzn6H91CkVevTojrwne+PTifZhO+GSlDdf2yVJrjPcKTyOfqp4elMT5OVrcAb1i3ADe3eMDgVaMr9PB0/EdY7vfeTzO0anAY1D4fXcep3N1d+yfckaeo2uCN9H3ZbrgS8edKS9TRJlZzNHizgs8HeMxnVPoXuFp1y7OyNvoaPXuYg2RLF2VAg9oFVjA4ev2HuFxWzW9jqanr3EUd17gMX1Toc7I64KX6Hrga54aIy/T/EWaLZ4Wd17hUdypwFSPoiOzwePWahr2GXmBnu6pVyrwVAwKT49L44OiNmu8wONEjQrg40NgoXuEd5+Rx2NQdMET9MLhd7w4VV6iWYGvXGQVd37gN93o7OI33XSYZ3j3gxFUcafg3QcqaOB4NB3ja6afL3/iQvcA37jIPlaFe+hVl+8Xnh6XbnzoXI6uA974ZAhFLwy+8Y158hKB/rSjqvcK70YvG3ki353zAl9286HyVSK23ELvsE09NUvD/WAEekYe1bwDPQc8RS/kwQh0XOfo2KzRAM/RdcHXkZbeunqpo6r3Co95PA0Ud2pb1gs8HUtx42W26ZwKHLBwV/WJpc4xHV2+V/j6Ry6WrxTdO0X3Co8lWxqYzqkdukLhLXQd8BUPXCEvUYzHfKz3CV9nTvFUYArHCzy5LesFvvW9hfLV5gfv/YWO6RwSDzdsM/8cARB0+e4jVDgp667eVYHnBb4qzRl5v/CNj9uPRUM3jzHeQi8Q3oFeKPzn1xwpL1NE1cM3+ILHAg6dq2PdXlX1XuFxsyWNypKBKfAi7aqep4mt4HFaVgVvqeOPt9C9wtMPjToj7wceCzkq8Gw7Nc7rgDc+uciJXig8xnIVaO2lY8/0DN/0pl0TINDV0+mcV/jeRnsJGI85U9M5L/B4fi0dArCGT6t6r/B46hUNdUbeC3yL64x84xNDLHQd8MZqoGuEd7d2L/BYunWDo5Wrcd4vvPvwJE7MYjqXCx6PQqHg+BpdPa3qvcLjMSjuNQF1Rj4bPB6KQK8BLZ4WdzrgTfR+TDc8HdtVoLIvn3SBA37j0CNY5fTLHat4CHTx2dbqvcBjt84diWVz+FFpd3GHR6G4d+Xwi3c/9covfLqj0lipQ6un6JjH189JPSOPa9hx/6lWcacL3lg9GOj64WsW2As17uhp2MZ7AKQ7AL55+EmyyyfoecA3L5sr3zU1dprdPpK2KhX4Mzy5mhZ3OuFVoCdAZrqGxvlDHMWdLniBXiT4zWPO5MBeI7FqEe/q1RivAx5dPR3jcwWmb/zJ1XKM1wFfc8/pKV19tsDcHo8uzzWPzxfe+FihFwkexR1avXu7VQVae2LlIlY2zl6np8WdDnhk/bOjU45Kq0CrAja6+WxVfSHwKO4wf0/mOCOfz7Ns/cJz9CDgVW6ZeAEf25Eo8DYMPTJnVa8LXi3gYFxXiSmde+WumPBILOBU330cH9uReA4OxnU6zhcT3vj4QoEeJDySV/MqfS7g6IB37875mcfrgudpVvMqKXox4QV6DB8peBs9ho8MvPHfPxH0GD4S8Bw9ho8WvIm+H0eP4aMDL9Fj+CjBGx/9UaHH8FGB5+gxfLTgLfQYPjrwxkd/sNFj+GjAC/QYPlLwxocKPYaPDDxHj+GjBW98+Pv9OXoMHx14gR7DRwre+OB3Ej2Gjww8R4/howS/F/sfI8nz8yqYmpgAAAAASUVORK5CYII=;" vertex="1" parent="1">
          <mxGeometry x="426.72000000000014" y="498.44" width="101.56" height="101.56" as="geometry" />
        </mxCell>
        <mxCell id="4ohFSgvwRZ63tA1tGF-L-33" value="" style="shape=image;verticalLabelPosition=bottom;labelBackgroundColor=default;verticalAlign=top;aspect=fixed;imageAspect=0;image=data:image/png,iVBORw0KGgoAAAANSUhEUgAAAH0AAAB9CAYAAACPgGwlAAAAAXNSR0IArs4c6QAAAARnQU1BAACxjwv8YQUAAAAJcEhZcwAAFxEAABcRAcom8z8AAC5iSURBVHhe3Z13fFTV1vfnn/fzPu/zXAtIrwkJECAJnYQqvdcgiqgoIiBNQERK6IQqBEiAEHqX3lQUVBCFi8IVkCLSEVBQugJ6bb93rX32ObPnzDkz58xMkOduP+uTIRkwZ777t/ZaazdPgyml0HBKaTR8S7NGuk2NQ2PdpsWhibAywpqme63Z9LKGNWeboVmLGeXQYqZmLXXLiEcr3TLj0VpYgmazEtBGt9kJaDs70bB2c3Qrj5Qsr7Vnm8tWAU+xZWvWgW1eRWFP6za/Ip6ZX0mzBZXQ0bDK6LiwMp7VbVFldBJWBc+xLfba80uqGvYC21K2aujMtkyzF3VbnoSXdFuRhC7CkoW9vNJrXVdVN+wVtrc16/Z2DXRbrVl33dbUFNaDbW1NvKrbulrCeuq2vhZ6ra+t2Yba6G1YHfTZWAcCuh14A7oZvAJdA++Fr0O3BJ8RADzBVsG3VcB7oVuAF9DDB29AJ9Og+4N/ns0peIJtC16B/vIqE3gJ3RL8GjvwGnQVvAGdzAtdA+9pMFmDbgfeVvGhghfwbcCHpfgKOad4Cd2Ar4IX0G3AS/g5rXgNvj94O8Vr0C3AG9DJ/jbFC+jWilehC/BS7f7gNeg5pXihdgV+jiheQg9F8T0tFO+pT8DZgoEPSfEKfFfgw1K8Bt9P8RJ+WIo3qd5H8QZ4C8U7BU/mA16B73yMJ+gSvhV4VrwvdAvwjlw9mWPwEr6lqyfTwHtV7xp8RMZ4MgW8qnizuw+oeAnf0tWT2bl6VfV24L2qd6p4r6v31J9UUkAPBD5sxUvorhVPsFXwjoM7A74ZPEF3oXhD7SbwAV29hB5RxUvoloq3cPX2Y7yEXo+gs+ngDfg5rXgVvICvgCd7GF29E8Wb4fuBl/AtwYeqeFdjfC0FugPFq+AN6GbwCnQ/8A9a8RJ6eK7eveJ9wT98ivfUm6hBNyveCfhQXL0KP6jiVfAmxavggys+sumcHficUrwKXoUfKnhPXYaugHc7xtsqPpCrj4TiCbrq6oMrXoPvN8a7AB+S4iX0h6mAQ9BjYQl+UgTGeAW6K/ACvg14k+IfmnROQjfg69B1CwV8AMWHU8CR0G3Aq9CDgFcVr0HPWcWr0O0Ur0IX4P+mMd4X/N9QwDGga+A9T04g4GwRAP+wpHPBFR9+5S4kxUfC1ZOp4FX4ThUvoAvwNooX8CV4A34o4AMpXoEvwEv4lq6eLEddvWPwZAp4VfFm+Dp4M/ygwR2Znau3U70KXsC3GOMN6E4VbwfegE5mQHcDPkKKdxzcCfB/UzqXA4rXoVsq3gTeU2e8F7oA70DxYbl6N4pXwQv4NuD/VsWHW8CxAC/hW4IPoHinwR1Bj4FT8BFL5xTofuBdKr5VZjl6Td+nry0y6O/NjEOzGaXQdGYsms6IRZPpMWgyo4SwxjOixdemM2OENaP3NM8oiRazSqHVrDjqLGXRLiseKXMTqROU1zqAQ/DhKT6M4I7MreIldOfgVcUb8COseBW+Dr75zLJoOp060rRYNJgajbpTiuLJyUXQYFoUgY2l95RBu9kV8dyCWnhlSWP0WtkK/dd0wKB1nTB0w4tI3dQFIzZ3xYgtXTGcvqZu7oIhG1/AG+s6ot/qdui5sgVeXlofnRYkCeht5pSljlAKzTKok2REo+WskvS9MvSzeOoIFVwp/kEXcIIp3lPbgK6ZE/DhpHOBFa8Bb0odoEl6adR/Kxp1CGydSQSXXrebXQldFjXE4PWdkb5jGFbsy8C2I2vwxbldOHn1CL67dQHX7/6An3+9g3///gv+/OtPOGm//fFv3Pv3z7h17zqu3rmE89e/weFL+/DJya3Y8OV8zPtsPMa/34c6UVu8tKQ2UrLjyTvEUkeIReus0nhqXgJ1gop+ireblvVL5wzFE/BQFe8infPUTosBm1vFu3X1wdK5xtNKo97kKNSaWIggFyWFJ6D70haY+N4ArD0wHwfO78alm+fwK8H8u9qff/2B6z9fxbHvDuDDr9dh7qdjyWN0xktLa6Pd3DLUEUqgTVYcOswvbw1eQjfgRwJ8AMWr8FXFG9ADgjfgl9TgS/ACvgRvwA+geBU8Q280tRQBLo4a4wvS+2Lx8qImmPrBEGw/tgEXb5wltf4qP27n7S9S9y+/3cdPv9zGjbs/4sefvscVUu93ty+QJzgv7QKu3L6IH376jjzDVdy5fxP3Sem///m7/FfctRvkXQ5c2IUVX0xH6pYXSNXV0GoODQfkBZ6mDqC6ejN8HbwZvgAv4Vu6erJQgztPrbQSBnSn4MNx9Qy+3uQSqJ5WEPWmlED3JS2x8NNpOHb5S0eQfyNXzBCPXNqPXSfexTryAlm70jDhvf40dr+E/m93QI/lLWgYaIBO82vh6ewkitIr0dBQHm0pgm9LX1PmUJRO3+s4rxqeX1ATLy+pT2N6cwxY8xSGbuqMCdv6YvYno7D6wBx89PVGHLy4BxdvnsH93+7K3yJwu0Tv3XZsFcZte5VceRJ1gFgaEsqS6itp0HPa1ZNZqV0H76k1rgR8wBvQLcDbuHpV8YHA15lQDElj86NdZlVM+yAVh77dF1Bdv5Jiz/14Eh8e34x5uydh+KZu5A0aI2V2FRHUPSmDOQ7q6r1VDPWnRqHhNIrS0zlyL0lRfGkKAMntZpShqJ8Cs0wOzspSikcRvzD+M/0sMw4tMum9GRz1a9F+05kU6c8sQRYtIvuOC6rileUNyZ2/iKzdY/Du0ZU4ceUQbt+/IX9b63b51llsODgfr69PQbvsOLSdW1q4/YgFd2RuFa9BjwB4O8Uz9DoTopA0Lj86za2Ltz/PxrWfrsqPxLf99ddfBPkbvHN4FdLe6Y8uCxtTYFeGwBZDzQmF6GtRitwZKgGl7/tU7nKigCNyeO11uznxInpvMauk6BDNM2NFetdtWQOMfbcH1n45l8b6/bYxB3uxvWe3Y/S7LyNlHqWG2WV8XP2DVLynpg7dDJ7MC95ZVG9WfP1Jsag6Jh/azKyClfuy8PMvd+RH4NtOXjmCxXtmoNeydmiWXpbG+EIU0BUWgV1jGvfVyP5hKeBoRkNGFv0/qSM0yywh0rk+b7cQnuDAhU9sh4P9F3Zi6OZnKfIvhacXlCfgVYMo3gK8hG8J3qR4H/BkAroteAW6G8U3mFwatUndyWMLYtzW/hQ0XZaP6203717Dpi+Xoe+KDuT6SyF5XAHUnliUXpfUInsZ1XvTOQW8hG4JPsRJGieKD1a50zoB/U6zYiiIK4Peq1tg6edTce76CfnU3vb7n79hy1eLxZifQqq3UnxQ8ATbkeJN6Zyn5tho1BwbALyP4oOD53n4GuOKCPhbD62Wj+ht39+6iKydE5EyK4lA50fN8ZyDlwyYzrkGL+DbgA9L8c5r9fy1HXWA5pTGcfFmyo7+OEru39zOXDuGAevbUScpZYD3U3wgVy/hu1G8p4aATkawDfAEPVTF10wrRmN5HL44u1s+ltY4hcreNRktppcXLr/ORAq6lKjegB4p8E4VL6BbK16FLsBLtfuD16Cbwesl26fmlUfL2bFonx0v4JuVf+v+NXL3nSjXL224er8xXoEfruIFdAN8qIqX8OtMiEF1UvlHx7fKx9Ha3tMf4dmsuqgyKq8GmyN6GdUbqRxbKOAV+K7Ah6V4Db6f4oOswHl6fgWCH4NnF1TBuoPZoqagt+t3r+DVVY3QYX6CveIN8BaKdwqezFNjjAY9bPAEveroAhi6rrt8DK2t2peNGmlFyZUX9onq2ezyeEvwZI7BS/iWrp5MA+9VvWvwDsd4K/Ds6p/KTiC3H43J2/uJ8q/ePv5mo6jscSHHCryl4iV8S1dPZuXqPdUZuhk8wbYFb0D3B1+ZlLz96Cb5CKD8eisqj85LfydKi+Z16Bbgw1a8hO5a8QRbBe84uDPgm8ETdAdr7rhW3ySjGDJ3DZefFrn5e9fQZVktiugr5GgBh6BHwRJ8IMXbgK80Mh92HN0sHwGYuWMM4lMfEbDVdM6An9OKV8EL+Ap4sr/T1TN4LtP2fru5/LQoo7n3I7our0PQE92XbFXwEr4leDIJ3QY8wXYDnqEv3D1dPgLw9XeHhdvncb4er65VwNspXgVvQDeDV6D7gX/QipfQ3bp6npRpmlkcmw4tkJ8WcOqHrzQvQEoPNjvnC96d4j3VRxNwtggovtLIvBi3ZYB8BK19fPwd6hAxNN7nN/J4N+BDcfUq/KCKV8GbFB/+Yksr8JVo3C4nijnZn40TM3d6++fZ7UL9HRdyjV6ZnYuw4j3JPtAleAndreIrj8yPvss7ykfwtq8uHsDLC1rQmJ9Hqj42KHgDOpmt4gO5+kgonqCrrj644jX4fmO8BJ+SFY+mGVHovLgGth1dJT8db9t8eBFazok1pmXtwPspXkJ3qngB3QBvwCfgbhRPxtCTRhfGs3Pq4/5v9+RjeBvXntd+sRAd5zyJKqPzodqYAnhyYglf+BFWfEDwAr4NeJPiwxnj289NRKtZpcXqm+cWJmPep2lioYZVy/50rJiSzekNFZ7kURp0X8VHB1c8QTcrvsbYYmg0OR4/3PlePoZ/u//vu9h2ZD36rXxWuHruAEnjCskOUDIgeFXxGvScVbwK3U7xKnQdfLusBLQk0E1mRKPV7Dj0Xd0aq/fPxpU7F+Wn4G08yaS3se91R5s5pWhcV6CTOVG8L/jABRxP0qjiSLIEr8F3o/ia46KEHbt8UDzEX/TfhgNLceD8HvFnczt99Wss3ZOJPsufRpOp8UgaW5A8QD7UGF8ET04qocE3gX9Y0jkvfO4Q8WJqlqdkG02PEt/r83ZrUvUEHL70T7EGwNx48cZGCuJ4aRc3fs+AdSkiT+dgzrzmLpIrcCT04hCKl/BDdfX8usqogvjwmLcil7kjDeWH58aEdwbh1NXj8rv+7fLNC/jgyAa8tW0YXlnUCs3TE1EjrYjoCEljC4gafd1J0eQNYqkTlLIGH0jxCnwBXsK3dPVkZlfPf+b59xaZcWg2syQapkeRFRegGX6PFc0w8f1+2HJ4mVivZ7cg5M4vNwn2QnRamIT+a9sZVTnuBF2W1kH77AQJXZoCXlW8Gb4O3gzfKrgzoBvgCbYjxRNgK/CJqbmxfG+WeBBu275aT9/LhYoj8qDexFIYvr4n9pz6EL/+Fnit2+Wb57HvzC76t2Zj/NbX0Wt5ezw1K5k8QlkaCuh3HFdAWI20Qqg5oTBqT+QFlMVRdzJ1jLdi0OAt6hxTS1KnKEVegDoFWdPpBIxM+8odgl/TeJtO75lO700viUbTYujvRaPB1Ciy4mJxRt23iqLx9Bih9o7zktFnVRukvdsHi/dOxe6T7+HctRNB1+6d+uEIFu2dgq7L6lOniUbD6UUw/eMh8qfAmR+PUwyQSAFfBSOP1xVvqN0EPtTgzlNtZHGw2YI34FuAt1B8+dQnSK2p8lGAf53fS+8vTmM+/zxKpHXVxhREp6z6mLljLPaf+8x2nl1tPPbxpA2vpPmcOsO7h9dg6d4MpG8fjhEbe6D/qo7osbQVOs9viI5ZtdB+djW0zqggVN5UQOehgaBOjaXXpQR4VnubTIqws6qh07xaeGlRA7y6vBVeX/0MRmzqhmk7hmDxnmnYengF9pzeLhR88+6Plu7a3DgVO3ftG7GadsjG52m8TxSrcFrPKSMCvOYZMXh7/yz5bi1daz0nTqR1agFHBx/JDRV+0MNVfMUR+fD6qhflowAXb5xDg0ll6D1RRuWOI/3ksYWpA3AKVxQdZtXCqE19sOnL5aKgc+9Xbz3aTeMlz3fp7/Jc/Q93vhPe4vy1Uzj74wmc+eFrGl6OEbijOP3DcfG9c9dO4hL9flfvXBaLKLlT/f7Hb/Jfc9e4I3x3+wJ2n3oPc3ePQ/817UVg13hGFAHmVTYJPlF904wS2PmNt3q56dAiNM+MsazcRUbxXldP0IsJ6JFSfJWRBfFcVkNjzTlDaDszGcljyP1aTNJw4YbBVxmdX0Ty/L1nZtfG4LVdMXfXZDFjd+L7rwSUh6Xd/fUnXLh+CvvPf4K1/5qHt7YPIpffFh3mVhZjPI/1vHOm7Zx4n6heL+Cw6nkzxRFlfj3703FiY4W5cudU8W4KOJ6qIxi6F7xjxUvoZsVXG10ELaZVxvWfNUjslrsvaoeqowoYRRwzeM205dWcuvGcfDXqBFXH5BeBHBdzUjKT0XVRCwxb3x0ZH47F6s/nYfuxTZQZfCZUfJWUffveDZES/haCWv/483exEJPVzmvbv71xBkcu78enp97H1kMrsGjPVEx5fyAGrumILosbUvBWkcZ5DXADMg7uONDjCF9P5+wKONwZOi1IFp5Bb2nbeon1d97KnTPFh7KhQkB3Bd6AT8AtFJ88hsbvcTE4eeWYfBwgdX0vVBiex4BupXgdvN9iS7K6BJ2XX9WkaD55HKV1Y7lDUGqXVph+RmkSpXLN0xPw1OzqeHF+I3Rf0hqvrXwGg9a+gKHru9L43BOjN/fG2K19yPpizJbeGL2lF4Zv7I4h67sQyOfQZ2UKui1pjhfm10XKnCoUwSeg2Yw4NKTATmyhmlIE9Smwa5QeTfFASbFvrvWs+CDpnDV4zt27LW8s1udz+4PG/9dWt0Xr2WVMJVtninebzhnQvfBtXL2l6v3B89eKw/Nh76mPxQNx47QtkQI8u9k5Ad6A73xDBb+uP4V+PoXLugSHUronJ0WhzsRiqDWhKFkRssKU7pHx1wkc6Rei7xWiaJ8i/klFxW6aulOKU8TP0Tp1oGklRdDHkX3zGWUorStrk855c3kdvNPKXfPMkiK409vNe9fQeXFt8gDljJJtcPBkCnjV1Zvh6+B1+J4qBJrNC91a8W4KOOVT82Dt/iXykSAKNBzg6WmdE/B+ilehK+BdlWxzqHLnFjzvnk3/cLD8dECB5VER3KVQsOd0Pt5K8Sr4QK7eU2U4BVHDzWoPrvhArj5haG7M+GCsfCRKR07vQuWRBUSgJ6p3gRRv4+pVxecYeAW+H3gBXwFPZi7gOAXfcHpxLP98pvx0gH1nPxIRPoNnc7oCJ1TFG9BVtZvBq4q3dvO+4Bn6kDXeZVOnr54QwGuMo/GeoYcI3q3iDehkvOKW3T4bV/RsweeA4r3QNeNdNDuOr5efDs+uLRE5vN3snBPF69CdKN5TWUDXzR68n+JV8AZ8DXwFGtNfnt/aSNtu/HwNrdKrUkRe2HDxunnBh7ahwgl4HtubTiuHnsvaotfydqToeLHG3he8Bt214lXwDhTfdna82Eb11eXPxWfDjfN63kLlPy3rRvEBgjuT4j2VU4vCKXiniq8yshBBrmZU2v748w88P7cJKo/QXLwPeAV6Tii+BgVxA95+Dt9cOQJ9PosLNG+sfsECfOQVb16B03p2OQJbCd8r6dqYd3qQ+hm6lsuHA96J4jXoZvAKdDN4J4qvNqoopW0l8e31s/KxgAErXyQPkFeDbgbvo3j34A34JvC1JxRDl4VNcI9yd3PjdOmVxS1Qd3JUaOAFfBvwARTfPKM0ui1rjLtydo13uvRbnUIpYEmXK3BCULwOvZIO3Qc8jfFhKD5pNP39kUXwxZlPxYNxm/recCQMy+0t2RL0nFY85/RbDq6Uv4F/23JoBaqMeSLno3oBXQPPZ+DwkSg87cyN07UXFtUmD1BWBHm62v3BR26M91QaVgTW4DX4TsCb07nk0cURT8Hcli+925pW7s1GuSGPiwKOWqt3rHgDvj14X8Xzbpsi+OriF/I38G9cl38mqyaqpxXAk6T4JjwTZwVege8KvIXiubgz+f3X5W8AnL12QusQcxKMlM5qBY6h+BDTOVXxGnQBvogjxWvwbVy9hM/gyw5+DHN3TpWPBnx07F0R4NUgTxAyeBvFC/gqdH5N0FnpPEcfqN25fwtr9y/ASwsai4CPizWc3gUFL+FbunoyDbxX9Tp4Ltku+6d3xfC+sx+Syy/lA92reBvwBNsZeDIFvK54T0Uduq3iQ0vn4ofkxqgNr8lHA45dOiRcfzK5frVWbwnegO4cvJWr50UYvZa191mSZNfu//seth1Zh94r2pPqi4ut0jwXH2lXX39aMWxX07VDS0Tezqtt/Eq2BnwzeILuQvGG2iV4Ad0XvJXiNfh24P0UT9ATh+ZFtwUp8tGAH+9cQYOJ5SjIK2JU7gIqPgTwquJ1+NXTCmHsln4+ByFcuX1JTONeueO/hZo7yOdndyF1YzeCTtH/hIJoODXWXvEqeAFfAU+muno+/aLZzFI49O1e+X8DsnePRwPqCN483in40F29p+JQDXpwxQcGr0PXwVdILYCUmbWNSQVeKdMhsx4qUdqmV+4elOLZzadkJmHYum4Yuu4V8bramLxok1EZsz4eh/PXT4nf0dx4SnfaB8PQNrMyahL8+lN4sqVMyIpvnlGGIFYWc/h6G7bxRYLOStehW4CX0MNz9Qr0CkMLI1LgVfiVhxdG/QnlcPnmt/LxgF5LOyJxWB6/Wn1OKl4Hz7tlk8cVQnVeeTspWuTwPEHDZ+A0S4/HxHffwPHvtAWd5vb97Ys0DmfipYUNxZgvxv300s4VL8HzSZadF9b12bTISm8yvYSI6vVc3l7xkUnnBHTX4BXoZvA69Koji6LS8EI4cvFL+XjA6I39RQQvKncS+oNUfANTHq9X7epNjkEyRfAc8fNU7D/PfOyz80RvPFf/0debMWhtZzHe85l3jabFOlZ8o/QSeH1NRyNd0xufkddnZRsx3vNBSCkE3F7xGny/Md4FeE+FIRp0S/A0vjuN6s3gq40qRsHcE9h+ZIt8NGD+rnT6Xi4R0JknaYIqniwk8I5vqNDq87zQsvbEYnh1aVtsPbRSRPdW7cT3h5H50Wg8M7cGak/iE66K0ZgfF1Dx9d4qiknv+2770hufT7Noz1tokaGttrUFb8A3g/fCDwbeU56hBwIv4FspPjB4fl128ONYtDtTPhbw3uH1SKCOUJ3yeIYeVPEE3VbxCvSg4FXoAcFrtXr+yvPxfODRs9m1seDTqfj2hre6qLZb927gvSNrxEIMdvm1JxWmwC9GnGVrVnzdKUWwcI83jf3FYicQq/6FhbXReHq0hB75GyoE9KDgAylegW4GX3rQo0jb/KZ8HODL85+jIgV4SeQFNLVHWPEG/PDAq9OyXKbl4k2LGYnimLN/nf/MNgX85spXyNo1Hp0X1CdVFxfn3DVJLyngtyD4vKyaz7LV26ZDSzF8U1dxcqXaeEFnzxUtBfjAig+tckfQCwnozhTvLp0r+2Yu9F3qXSHy7bWzqJsWRx2lsFayZQsFvKr4EII7A75D8Fys4XX0rHxeV88zdZu+XGq7WJNr/Z+efB/j3+2Hp7OSUI9cPy+34jX0B5V0bc6usagy7lE8O68Gdn3zjvyu1vh405eXNBSuXle8K1cfALyn/GCG7ga8hG4Gr0DXwScOzYcOGfWNhYq8Mrb1tGShdr1yF1DxBDsk8AZ8X/Cq4u3AG9DJdOjC5EKMxlNLU/SuHWb41OwkSumG4tDFfbbq//GnK+Ks29FbeuK5ebXx7fXT8ifAyC3dUX9qMXF0ecP0aCz4bIpPkMcdpCWleW1mxQcB787VexIJOltEwJsUXzGVctsJ8WI+XW8vZbdC4pC8RuUuLMWThaN4t67evAKnwVsxMn8vIdS/7sACfH/Lm6KaGx8p+pvcKMHZQd9V7VFrUgER4D05pTCqpD2KKR+84bNbZujGl8TumuDpnHPFe6HngOIrpRZG0sgonPjuiHwEeog1PVFucC6fkm2OKd4GvJt0zk7xArycnOHK3ZNS/W0yKmLU5p6U2m3BzXvX5VP7N1Y0H2XObn3x3mliEmbYRr6IoBt+/PmKfBeQuXOUqNf7QrcAbxvc+Y/xnoQ3NeihKT7wGM+v4wfnwa6vP5CPAGTsGI84CvCSKK3zA2/AtwCfg4o34IeoeH1mjo23TnEKxwUcTucmvDcAO0+8Iy4fCKUN3fiiWF/P0HULrPjgrl6DroDXFK9BD13xWlTPVmrgI3h730L5CMC6L5ahzJuPG0WcgIqX0C0VT9DtFf/331DB5Vqu2dehFI5z+NYZiZTa+Z+gGajxxEzzmaXBp1bbr7kzgReK1+DbKZ6gF4Q1eIeKF+mcPfjSbzyKae+Nko8B7Dm5ExWGFSBPUNQevAGfgOew4t26elvF+4H3zs7x66TxebDp4FL5KUCoP3VjV6w9MA/7zu7EiSuHcYGCvHM/nhC5+swPR4gNFXxsuT4t62ZDhS14Mk+8gK6BD8/VW4EvSq78cQxY0UU+KnD2h5M0znNtvohI63zAW6o+guAN+JG7oSKQq28m4Gu7Zln1DFNvs3eORcUx/xC7Z+pTTs9VvJTZldB2VnlRruWons+obz0r0Wc+3mqxpSV4A74ZfAWCPqgg2KzAuw/u/Mf4soNyo9PspkZKc+vudTSeVEFE9ip0zayg24An2OGCD8fVOwZPKuc6fcuZiZSunRGfATfeVsVuXyvb8sQNvXcG76qJE8Ucu/l49+D9x3gDek4pPnFIPjSdXEWUK7nxTQ6dZjcRAZ5eubNTfFiu3oBuAd7G1auKjyT4hpTadZxbyzhqhAXQc3kbUniJgLV6NnU+PiTwUu0qeC/0AODDSecqDCuEaiOiaKzyFiX6Less3L5astWhG+AJdtiKDwF8xII7BTyvxOm78iljHwBfBdYpuzYaTot1NR8fSPFe6HbgNfgM3lPujQIoZwNeDe7cK15z9fw6fnBefK6sjJ20dRgFeI+JtE4F76d4FbwB3wK84zE+ZzZUBFM85+9jtvaRT09xDQVrDJmPPnEzHx+W4g34OnQyVfEa9Mgonr/GvfE4NuxfIR8ZWL4n24BuBq9DtwSvKl5Cf+gVL6HP/WSifHpg/7lPUJfUz+O97UIMF4o3b6gIpngDeiDFq+BdKV6kc0UQM+AfyNzufeidx7dRR8hFKV1RS/A5r3j34A34LhXPX2tNLCrm5vW2+eAyUbwRa+4k9AepeE9ZFTqZneLDKeDEvv4Ihq7uLR8ZOHrpoOb6Uwsb0N0rPsz5+Agq3oBOZlY8l2h50+T+c97hbc7O8ag5sZCAHhS8U8UL6NaKV6GzecoOLABhNuC98K3AO1N83MBc6JLdVj4y8MPt71EvrRzKDy0gijhOwEfqgMOAijfg24O3U7wKXlU8r8bhG6j4UCO9jd7cSxyW4LO8WoHvCnwIiifo+Q3oPqpXwYfp6ssNyoNmk6vhF3l2HJ/g1Ca9lkjbROXOBF6Db+PqJfwH7eoFfBW6BXgrV8+LL/mIM/3Svj///AO9l6eIMZ2DvIDgJXxLV0+mgfeq3il4TxkBXYJ3qHgVvBPFJwzOj5qjSuHyDe+0Y4+FT1PaRuO6KOJoJVtf6G5cvQ14gm0L3oDuHLxbV8/g2bX3WNLaKE7xQUYd5tQQ07J6SucDXkJ3rXiCrYIPFNx5yryeH4HA+yjeBnwwxfPPEocUEMul9DZ6w0DEDnjEp2QbyNX7KV4Fb8C3AJ+DBRwDfgDF81bpkZt6yqfm/XMnyd2XQ0N5yaAleLPiVfACvgKezK2r16CbwavQyVTooRVwCgvA2w5773fJ/jhdRPV65c4J+P9NitfB83WjfA+d3nj3DK+74xU4D/oQYwN6nA7dQvEq+HALODH9/4H5u7znrLxzcJ1I2zjQcwP+YVR8IPB84SDfNKm3LQdXiDX2ah5vB16FH1TxKniT4s2zcwK6P3ivm7cb4zXo/uDt0jmGPmq9d4vuQXL1CYPzocKwwhp0M3gFuhm8Y8VL6H+X4htM4XNuosTmCb3N3TVJrK61qtxZgY+I4gm66uo9cQPyQZgfeF/4loo34Ad39ezeu83vIB8duHTjApJGlBBjvdXsnAjuQnX1BnwC7kbxZCGBt9lQwSdd8iYKNV0buamXONdOz+OdKD4geAHfBrxJ8Tp4T2kFugGegJsVb0An84duB96r+NKUq7dLf9I4B/3nX39C8ynJKPdmHlm9k9AjBV5CD6p4gm6reAV6UPAqdAmeVc6bJW/fvymemdfF8c4Z3kih5/Ea9JxVvAqdTUA3wEv4doq3A+8kuCs7KC9qjYnDD3e8i/5eyGqFUgMfl9A1swSvQA8E/mEp4Ojg+YaK7kvaiIOWuDH8Zyhn5/PqbSdpFOiRBK/C95Tur0F3Ct7W1duAF/AJfMJg/lkBfH3ZuzJ20Moewu3rlTsdvj94Db4deBW+ULyEH5arVxUfQnDHxjdSpG7wnqd34dppglyGfsZuX8vjLcEHUrwCX4CX8C1dPZmVq/eUYuhm8AQ7XMWbg7tEgl56YG58dPQ9+REAM94fLwI8vXLnBS+hm8Er0M3gdegGeILtSPEEOyTwBnxf8Kriq43Jj8wPvSdnHjj3GWqN51unSxl5vAHdDfgwFU/Q88ISvIQfjuLN6Vz0a/+NpZ/OlR8BsP6L5Yju999+tfqA4N0oXgVvwLcAH+HgTofP15BtOOA9I5fTNd4fz9DVAk5EFK+CF/BtwJNJ6DbgCbY/eAvoZKriNegaeNXVF+vzX5i4xXuh7J5vdiJu4BPk/gu6A69AN4PXoVuCzwnF24KPRfLYQvjn6Z3yaSGKNHxkuVXJ1lbxCnQ/8CEq3lOyHwFnC1HxKvhgY3x0v3+g7xLvVR+nr5xAldQoem9+WbmzAh+BMV4Fb8C3AB9BxdeZUEIEc+oNVXxlCZ9VL5RuUbINRfEqfKeKF9AFeFXxErpTxauqt1M8u/rYAY+j/fT68iMA7ty7jbrjEkRkr1funCs+QpM0Erql4gm6veIDL72qlVYcbWdWM7Y2icWQS9uJE68Yuh1454r3h+5U8Qb0sBQfALwXfiGUfv0JAfn2PS1v5YWC7Wc0QKnXc/lN0viAF+lchMEb8Al4Dig+eWwRvDi/qcjNufG9L+0zq4sbKvQ8XgVvqJ3NMfjQXL0n9rU8KPlaBMBL+Dp4K1dfdmA+VBpaHGeueitU7O4L9f4/BL1IYPACvhV4Db4KXoNv4+otVR9Z8Kz0xOGPY/CarvIptVurmkwthzryflkr8CG5egFfglfgC/ASvtnVC+gCvIQuwKuu3iV4AzqZqnYNfgHE9HsUu47vkB8FcPTiIdRLS0TRPv+XOgqN7UHB2xdwVNXbKT6nN1Tw3XPlh+dCmxlVxXVjett7+mNUH1tYBHgG9EiBd6l4A3r4irdQO5sCndUe/do/8OqCTvKj0NqVW5eRurafqNwV7/v/KKLPLQo64So+YHAn4Yfl6iX02vS9pDHkqUY8If48bvMAXLntezDhoNUviRTOrmQbUfBmxavgyXygC/ASelDFE+zQxvgCAvycHd4Dd/R28vvjmLR1BBpPrELj/OMih+eaPRd2RAcICj5CwV1QxfP3olB1VCFS9ROoMjI/2s5IxrT3R+DklaPyabxtwe50VB1dQNw6pefwbsAb0N2AD6B4T0zfPGCzBW/AtwAv4VuCN6teAV/mjXwo0e8RjNs0RBxJYm53f72LT77egbEb30TK9HoEuyhKDngM0f3/R9Tqy72ZV8zOVbSblnWjeBW8Ad8Lnv+cPLooAaZONyI/EoZR0Dk8D0GPxrNzGmDC1jex+5sP8JPF1aH8bHxhMAOvM76EzN+9ljOK16AHUrwBPUaFrrh5Ad614r3Q7RRf9o38oljTckpNvPPlenEZnlXj75+5+g22/Gs1Jm1JRdd57ckTVEa1EdHUeXKL1TclX3+UPAPZwMdQZlAuih3yIGEIz9VzxyhIXqEQdQrqIMMpHiCrMoKN/8xWCJWGkydJzY/yw/IiYegT4thyzQhwKl9MEIOWU6ug+6IUTH53GDb9ayVOXTlue3MyT7B8cHQTns2qTx0lj8jZOaI3F3AipngFugY+sOI9Jfo+oUGPuOIleDJD7WwKeI7qY/o/ihKvPYKU9PpYsjtLzLMHa6yg09QRPj3xIdZ9vhQZH0zA8LV90WtRJ7yQ1YLSwLpoPqUaGkxIRJ1xcaTgGFJ4lKF4PhKlxhgaj9PoQ52YSECr4amMuuic3QK9l3RE6rremLk9DWs+X0wq3i4uFvzp/m35f7dvPI6v/WIhXprXXLj8amMK+UT1ah5vBd6AH4riXYD3lOjzBHzAq9ADKV5Ct1Q8QTcrXgWvKp6DOx7nY/o9RkHcfyNpRAxeXdgJq/YuFGN8sCu3rRofQnz7/i1x8vP3ty6JjsTHmZ2/dkbYBXp98fp5fHfrojidmnfU8tHfdidE2TWuM/CVJVsOvo0ha7qhyZTywvXzFaMc3Dkt2TpRvAGdLFzFa9ADgA9f8dbwVfA6fC7glBmYV5Rro6gDlB9cGK2n1sKgla+KiZp/nvpEAAz15uNwGhdZbty9hq8uHsBmcu8Ttg4mRbdA3QmlxeWDDDt5TFEjsrdK5wR4A749eDvFq+BDUryE74nWoUszwJP5gI9EAYdg+6heBS+ga+D1Wj3n7aUGcBT/P8J4arb6yJJoNbUmeix8hgLBwZj38Qxs+XIN9p3eTZ7hmDh1mo8w4yHg9z+s4wS1sVp/pbH5DrlvXuDByuVDjHd9/T6590XIIDc/bG1PvDC3GZpOqSjup+F75/g+morD8xPoYjTmR4tULpTKnQpewFehW4B35OrJAoEX0H3AO1W86urN4Al2uIrXwbPpK3D4ddlB9O8T/FgK3DilKyE6gxbRVxhaENVHxaLRxIpoM60mnsloRGN8Swr+2onNFT0XPYteizuK190XPIWX57XB81nN8HRGA7SeVp3G9wQa60uIAI8Du3JDcqPMm4+KWyoqpOYTwR/fTBE4nfPP492Ad+vqQ1G8J7p3bkT3DgA+JxRvAu+jeBvwAr5psaVeuePX5YfSz8gSB1NHGpwXZSmCLzvoCYrwc4mt0nFvPCa/Pi4i/DJv5qL3UIQ+hCL9oXkpcs8vjkThyJ6PLeegT6R1AdI5A7yDAk6oijfgR1DxEjoZwbYDr0IX4CX0sBSvQidToVu5egE9APhIVe4YtG7hFXByXvEqeAO6GbwCXQfvidKhK/AdKV4Fb8C3AC/h2yleBW83xjvdUJFjJVsVvAHfAnwOKt4JeKeu3hPVKzd8wKvQzeBV6KGmcwZ4r5u3G+M16P7gzcurQwavQDeD16FbglcVL6H/nYo3oJPZKl5x9Rp0C/APWvFux3hXrl7Mx9vMzoXq6g34BNyN4slCAu/4hgoyO/A69OK9cqG4DfgcVTwBNyvegE7mD90OfLiKDwO8hB5U8QTdVvEK9KDgVehBwKuK16B7FS+h59Kgu1G8At5P8Sp4l4q3Ax+R4C6Q4hXogcA/bBsqQlG8p3hPgs5mp3hzOkdmgCfzAZ/T6ZwNeAHfVXBnBV6DbwdehS8UL+GH5epVxYcQ3BnwXYL3FNOhBwJPoCOueIIdruL9gzs34CV0M3gFuhm8Dt0AT7AdKZ5ghwTegO8LXlW8HXgDOpkBXYIX0M3gLV29mwKOCt6AbwFewg9H8f8R6RxZOIp36+o9xV7VoBvgQxzjfaAHCu4cKd4COpmqeA26Bl519f+RircBH2o65yn66uNgs1K89RivwX+QilfBP7RjvAregG8BPgcVb8APongvdEvFS+gWijegm8D7QP9fX8CJ0Jo7Cd1S8QTdXvE5c0OFp2gPDboG3qR46eojGtwZ8Am4G8UHAO+FbwXeoeJFOhdh8AZ8Ap7Dinfj6j1FCDqbLXgDvlf1Bvj/yHTOCrwGXwWvwbdx9ZaqjyB4A35oN1R4ofuAN7l6Cd7O1dspXoUuwEvoArzq6l2CN6CTqWpnswLvPrizL+CoqrdT/MN+QwVBf0xAd614FfwDm4+3UDubCv4BKz5gcCfhh+XqDegW4G1cvap4K/Cewt0Zuhf8Q6V4gh3SGG8DPjLpXISCOzeKDwG8veJL4f8DDzHinMF4WUsAAAAASUVORK5CYII=;" vertex="1" parent="1">
          <mxGeometry x="263.6800000000002" y="497.90000000000003" width="102.64" height="102.64" as="geometry" />
        </mxCell>
        <mxCell id="4ohFSgvwRZ63tA1tGF-L-34" value="" style="rounded=0;orthogonalLoop=1;jettySize=auto;html=1;fontColor=none;entryX=1;entryY=0.5;entryDx=0;entryDy=0;exitX=0;exitY=0.5;exitDx=0;exitDy=0;fontSize=16;" edge="1" parent="1" source="4ohFSgvwRZ63tA1tGF-L-32" target="4ohFSgvwRZ63tA1tGF-L-33">
          <mxGeometry relative="1" as="geometry">
            <mxPoint x="497.1999999999996" y="559.22" as="sourcePoint" />
            <mxPoint x="589.3200000000004" y="559.76" as="targetPoint" />
          </mxGeometry>
        </mxCell>
        <mxCell id="4ohFSgvwRZ63tA1tGF-L-35" value="AWS Batch" style="rounded=0;whiteSpace=wrap;html=1;fontColor=none;strokeColor=none;fontSize=16;fillColor=none;fontStyle=1" vertex="1" parent="1">
          <mxGeometry x="352.5000000000001" y="608.14" width="250" height="30" as="geometry" />
        </mxCell>
        <mxCell id="4ohFSgvwRZ63tA1tGF-L-36" value="Amazon S3" style="rounded=0;whiteSpace=wrap;html=1;fontColor=none;strokeColor=none;fontSize=16;fillColor=none;fontStyle=1" vertex="1" parent="1">
          <mxGeometry x="190" y="608.14" width="250" height="30" as="geometry" />
        </mxCell>
        <mxCell id="4ohFSgvwRZ63tA1tGF-L-37" value="" style="rounded=0;orthogonalLoop=1;jettySize=auto;html=1;fontColor=none;entryX=0;entryY=0.5;entryDx=0;entryDy=0;exitX=1;exitY=0.5;exitDx=0;exitDy=0;fontSize=16;" edge="1" parent="1" source="4ohFSgvwRZ63tA1tGF-L-32" target="4ohFSgvwRZ63tA1tGF-L-29">
          <mxGeometry relative="1" as="geometry">
            <mxPoint x="338.6400000000003" y="559.22" as="sourcePoint" />
            <mxPoint x="246.27999999999975" y="559.22" as="targetPoint" />
          </mxGeometry>
        </mxCell>
        <mxCell id="4ohFSgvwRZ63tA1tGF-L-38" style="edgeStyle=orthogonalEdgeStyle;rounded=0;orthogonalLoop=1;jettySize=auto;html=1;exitX=1;exitY=0.5;exitDx=0;exitDy=0;entryX=0;entryY=0.5;entryDx=0;entryDy=0;fontSize=16;" edge="1" parent="1" source="4ohFSgvwRZ63tA1tGF-L-40" target="4ohFSgvwRZ63tA1tGF-L-42">
          <mxGeometry relative="1" as="geometry" />
        </mxCell>
        <mxCell id="4ohFSgvwRZ63tA1tGF-L-39" style="edgeStyle=none;rounded=0;orthogonalLoop=1;jettySize=auto;html=1;exitX=0.5;exitY=1;exitDx=0;exitDy=0;fontSize=16;dashed=1;dashPattern=1 1;" edge="1" parent="1" source="4ohFSgvwRZ63tA1tGF-L-40" target="4ohFSgvwRZ63tA1tGF-L-32">
          <mxGeometry relative="1" as="geometry" />
        </mxCell>
        <mxCell id="4ohFSgvwRZ63tA1tGF-L-40" value="" style="shape=image;verticalLabelPosition=bottom;labelBackgroundColor=default;verticalAlign=top;aspect=fixed;imageAspect=0;image=data:image/png,iVBORw0KGgoAAAANSUhEUgAAAEsAAABLCAMAAAAPkIrYAAAAAXNSR0IArs4c6QAAAARnQU1BAACxjwv8YQUAAAAzUExURQAAAP9Qj/9Qh/9Qiv9Qi/9Qif9Qiv9Qi/9Oif9Oi/9PjP9PjP9Pi/9Pi/9PjP9Pi/9PiwLJSAsAAAAQdFJOUwAQIDBAUGBwgI+fr7/P3+8jGoKKAAAACXBIWXMAABcRAAAXEQHKJvM/AAAB2UlEQVRYR+2X226DMAxAgQQIkAD//7XzLSRAVxHTSdXEeZnrLkfOBadUD79inQ8hTM7IZz02rBHfSU5HPYmHmWrJKzAzGrzr2tZ5DGf1RBtU+TjcYI2LtjIc3GNgDAkdqjEop4+qGgKqBzOqDahhhhNH0YWVLhQU0sK4hqLkwkhT2BjLylxZsgiYYstR5sJiOSoCBDzF3IUhR0WQq3HAsHdJWAK5YE6MCBoIOSpiWVd7cll4jjgqAh7AvjKjIC44+pqTD4f8vGXQgZyEJeAyH88l+mVzy4Bzuex7TANrqDmqXNicV4E9SFcWHfJ1SdO02M7kUSgHewy0edzDuqXGr1l4ocPxUNwMC4V/b90eBjZgY2vXWswoNY13TURjrVFuX4adhiRp3GQl1ECX2tC3tu2HAHNVNXuBlyrxly4zSBthsgU5A66uH32Ygx97OGxHV/rhwryrG1zpJJjz/5aswQXXiDcCgX1F8q+44Hr7fc7/chm/Q54WnQuflhzO6lyQ3XHT5boI3Kg3XZezicdFPK6Mx0U8rozHRZS4UmffXnpKsgn4fsc2ase7bOJ4E/L74LVsoGzieEPzW8nrrJWPgmS/mzDfJ74jH9dSQ3x3/6TL2A8gru+jqn4AJRJP+RwYxS0AAAAASUVORK5CYII=;" vertex="1" parent="1">
          <mxGeometry x="440.0000000000001" y="360" width="75" height="75" as="geometry" />
        </mxCell>
        <mxCell id="4ohFSgvwRZ63tA1tGF-L-41" style="edgeStyle=none;rounded=0;orthogonalLoop=1;jettySize=auto;html=1;exitX=0.5;exitY=1;exitDx=0;exitDy=0;entryX=0.5;entryY=0;entryDx=0;entryDy=0;dashed=1;dashPattern=1 1;fontSize=16;" edge="1" parent="1" source="4ohFSgvwRZ63tA1tGF-L-42" target="4ohFSgvwRZ63tA1tGF-L-27">
          <mxGeometry relative="1" as="geometry" />
        </mxCell>
        <mxCell id="4ohFSgvwRZ63tA1tGF-L-42" value="" style="shape=image;verticalLabelPosition=bottom;labelBackgroundColor=default;verticalAlign=top;aspect=fixed;imageAspect=0;image=data:image/png,iVBORw0KGgoAAAANSUhEUgAAAEsAAABLCAMAAAAPkIrYAAAAAXNSR0IArs4c6QAAAARnQU1BAACxjwv8YQUAAAAzUExURQAAAP9Qj/9Qh/9Qiv9Qi/9Qif9Qiv9Qi/9Oif9Oi/9PjP9PjP9Pi/9Pi/9PjP9Pi/9PiwLJSAsAAAAQdFJOUwAQIDBAUGBwgI+fr7/P3+8jGoKKAAAACXBIWXMAABcRAAAXEQHKJvM/AAABL0lEQVRYR+3X0bKCIBSFYRFUDDHe/2nPFhfKVqsB7ObEd1Uw/jFmYk11QWg7c6bHVKp2dmeZMY3DuRazaWhZo2I6GspbGB2o8DKYauu12kpTW2l+oWWds4aZns51mE3T4U7KzAKziUYcH7ESc8lkP3Aqc1V3ExK7xqpoVfRVMnlfotcisXlgIsPSwu5P6OIqbOEloX38my01MebN1fexRT9ZZsb4hY8tOoVMYUv3Af3kClv7KVK/1BqejPV358wWHcWYZTCvJdbCblpG81tKBnSlFLb2O11fW7va8morUltebUVubplHYKIWhgj9vdhaGCL0wHnRYrYWs7WYY+v4POt3wtOTlF4GT5/gRyNi0LFhPU0Sb6F/N3o/7KVFwtqOZyXH+IWWxSNRidD635rmDyqlTfTtvlLkAAAAAElFTkSuQmCC;" vertex="1" parent="1">
          <mxGeometry x="753.24" y="360" width="75" height="75" as="geometry" />
        </mxCell>
        <mxCell id="4ohFSgvwRZ63tA1tGF-L-43" style="edgeStyle=none;rounded=0;orthogonalLoop=1;jettySize=auto;html=1;exitX=0.5;exitY=1;exitDx=0;exitDy=0;entryX=0.5;entryY=0;entryDx=0;entryDy=0;dashed=1;dashPattern=1 1;fontSize=16;" edge="1" parent="1" source="4ohFSgvwRZ63tA1tGF-L-44" target="4ohFSgvwRZ63tA1tGF-L-20">
          <mxGeometry relative="1" as="geometry" />
        </mxCell>
        <mxCell id="4ohFSgvwRZ63tA1tGF-L-44" value="" style="shape=image;verticalLabelPosition=bottom;labelBackgroundColor=default;verticalAlign=top;aspect=fixed;imageAspect=0;image=data:image/png,iVBORw0KGgoAAAANSUhEUgAAAEsAAABLCAMAAAAPkIrYAAAAAXNSR0IArs4c6QAAAARnQU1BAACxjwv8YQUAAAAzUExURQAAAP9Qj/9Qh/9Qiv9Qi/9Qif9Qiv9Qi/9Oif9Oi/9PjP9PjP9Pi/9Pi/9PjP9Pi/9PiwLJSAsAAAAQdFJOUwAQIDBAUGBwgI+fr7/P3+8jGoKKAAAACXBIWXMAABcRAAAXEQHKJvM/AAABL0lEQVRYR+3X0bKCIBSFYRFUDDHe/2nPFhfKVqsB7ObEd1Uw/jFmYk11QWg7c6bHVKp2dmeZMY3DuRazaWhZo2I6GspbGB2o8DKYauu12kpTW2l+oWWds4aZns51mE3T4U7KzAKziUYcH7ESc8lkP3Aqc1V3ExK7xqpoVfRVMnlfotcisXlgIsPSwu5P6OIqbOEloX38my01MebN1fexRT9ZZsb4hY8tOoVMYUv3Af3kClv7KVK/1BqejPV358wWHcWYZTCvJdbCblpG81tKBnSlFLb2O11fW7va8morUltebUVubplHYKIWhgj9vdhaGCL0wHnRYrYWs7WYY+v4POt3wtOTlF4GT5/gRyNi0LFhPU0Sb6F/N3o/7KVFwtqOZyXH+IWWxSNRidD635rmDyqlTfTtvlLkAAAAAElFTkSuQmCC;" vertex="1" parent="1">
          <mxGeometry x="957.46" y="360" width="75" height="75" as="geometry" />
        </mxCell>
        <mxCell id="4ohFSgvwRZ63tA1tGF-L-45" style="edgeStyle=none;rounded=0;orthogonalLoop=1;jettySize=auto;html=1;exitX=0.5;exitY=1;exitDx=0;exitDy=0;dashed=1;dashPattern=1 1;fontSize=16;" edge="1" parent="1" source="4ohFSgvwRZ63tA1tGF-L-46" target="4ohFSgvwRZ63tA1tGF-L-25">
          <mxGeometry relative="1" as="geometry" />
        </mxCell>
        <mxCell id="4ohFSgvwRZ63tA1tGF-L-46" value="" style="shape=image;verticalLabelPosition=bottom;labelBackgroundColor=default;verticalAlign=top;aspect=fixed;imageAspect=0;image=data:image/png,iVBORw0KGgoAAAANSUhEUgAAAEsAAABLCAMAAAAPkIrYAAAAAXNSR0IArs4c6QAAAARnQU1BAACxjwv8YQUAAAAzUExURQAAAP9Qj/9Qh/9Qiv9Qi/9Qif9Qiv9Qi/9Oif9Oi/9PjP9PjP9Pi/9Pi/9PjP9Pi/9PiwLJSAsAAAAQdFJOUwAQIDBAUGBwgI+fr7/P3+8jGoKKAAAACXBIWXMAABcRAAAXEQHKJvM/AAABL0lEQVRYR+3X0bKCIBSFYRFUDDHe/2nPFhfKVqsB7ObEd1Uw/jFmYk11QWg7c6bHVKp2dmeZMY3DuRazaWhZo2I6GspbGB2o8DKYauu12kpTW2l+oWWds4aZns51mE3T4U7KzAKziUYcH7ESc8lkP3Aqc1V3ExK7xqpoVfRVMnlfotcisXlgIsPSwu5P6OIqbOEloX38my01MebN1fexRT9ZZsb4hY8tOoVMYUv3Af3kClv7KVK/1BqejPV358wWHcWYZTCvJdbCblpG81tKBnSlFLb2O11fW7va8morUltebUVubplHYKIWhgj9vdhaGCL0wHnRYrYWs7WYY+v4POt3wtOTlF4GT5/gRyNi0LFhPU0Sb6F/N3o/7KVFwtqOZyXH+IWWxSNRidD635rmDyqlTfTtvlLkAAAAAElFTkSuQmCC;" vertex="1" parent="1">
          <mxGeometry x="1352.46" y="360" width="75" height="75" as="geometry" />
        </mxCell>
        <mxCell id="4ohFSgvwRZ63tA1tGF-L-47" value="" style="shape=image;verticalLabelPosition=bottom;labelBackgroundColor=default;verticalAlign=top;aspect=fixed;imageAspect=0;image=data:image/png,iVBORw0KGgoAAAANSUhEUgAAAH0AAAB9CAYAAACPgGwlAAAAAXNSR0IArs4c6QAAAARnQU1BAACxjwv8YQUAAAAJcEhZcwAAFxEAABcRAcom8z8AACMWSURBVHhe7Z13lBzVlcb7j91zdm2DDRY5SYAEEtEStvGucTZgMEkEJZAQyjkSTJSEQIBsw64JNnFtvLbB9hrMkqPy5JxzzhoFpJE0mtHd775X9epVdVV1dXf1zEjrd853aqbTzOhX33333veqFCk9byGVnW9qEZVfYKnigsVUcaFU5YVLqPIiS1Wsi5dStamvLROqMTV2GdWOXS41bjnVCa0Qqr/E1Epq+Lqlxq/fSY3fkGpiffMupWbWpXcLtbC+xbqHWk392z3U9m8/U2r/d9a9Qh3fNnUfdVx2H3Uq3U9d37G0/TsP0PbvSnWzvveg0g7W9x+inaZ+wFpFu1g/lNr9w9VSP1pNnwutEdrzY1MP057LH6a9hnouX0s9V0jtY135iNJ+1k9Yj9IB1lWsddRr6up1dPDqx6R++hj1CT1OfddI9Zu69gk6pLSe6Lr1JKB7gwdwD/ACugt4BR1S0BV4CX1AwGvQneAt6C7gDeiu4L8fDV5AjwVeQZfgTegCvAHdG/yj8YOHFPRrdOgSvIIe3PFQHOAHw/GtNvAejrfBd4AP4HgFP0HH28DHdHxi4C3HP2FzPKAvUNAt8Isc4Afb8RZ0L/AKugE+VY6X0AfY8UaYD8vxkZIxDD0I+Hjn+KU28NGOH9hQr8NPFrzueB28crwBf0g4XkGX4NnxAroF3oIfLNTHdnzoyZ3m+ijwAr4dvAr1kB7q2zXwKUnuYoC3XO9I7gzoCn4UeAk/CHgJX4LX4SvoYTg+SKg/4hzvEuqH6hyvoBePmQ/gLD/wsRwPxQAfuuP9wAv4dvC6473A2+E7wA9AORcf+OCOdyZ3keLR80mCj+V4J3gAT8LxCnoKHa+gG+Dt0IeI4xV0F/AG9FAdr6Ar8LEcHyvUW45X8B3gB9TxfuUcFGY5J9wu4CcAPi7HW/ATdXykyIR+2Dregh4UvN3xEnoqHS+gDyHHR4rOnUfJgw87uRtAxwN8QsndADRw4mvZBgcvoScEfrAbOACeJHi74xMAb0AfDMcL+Dp4vwYOoOvgI4Um9FDAeztewfcBP9jlXJjgB2+Oj+14Ad0fvAVfgrfghxXqbfDDCPUhNXB08Mk2cBIJ9cEbOE7wEr4X+EjhOXMF9OQc7wQP4P9wvAU+xQ0cCV4L9QK8t+MjBQw9EHin42OBP/waOAq8n+Nt8B3gU9Sy1cGHsR4voAcHH57jvcDrjlfQw3I8h/2xK6jpgqXUdP4Sar5wKbWMW0mtOAHcHS+hp9LxOnRP8Aq6BG9zvAHdG3y04yMFoyT08BwfvIEzYI6HGs5bTI046VqvXE2dM56mrgXPi2PbTx6m5ouXUwtOBAEfwPVy7nBzvIAfAzygz6H4wcdy/GCXcwb4bwI23s/AO+f/hno+yqf+rt2kjz583/NxAW1f9AK1XLiMWvA5rQBtd7w7+MPG8Y5yLpIP6KzwwUv43o63wCv4PuDjTu7Y3QjfjQjre/5nm4HYf+x9I10Ab/naiijwergPDD5Rx/uBD+h4v3JOQQ8KXsF3DfUW/GDgrVCvg1fwATvRUF9/MRyO477NpQZSa/R17qKDdR3i6Bz7t5WJ+b3lkjvtoR7SHW9bjx+EUO9ZzsUM9Y8A+kgLelDw4TreAh8k1Ad1fN25C2n3HzcZKOXYn1tDnYtfpOYfPCjm+RYcu5a8SAfwuD72vL6FmnmOR2nnTO4ScrwB3RW8XzkXA7xnqI+R1UfyRs4mVnLgnY5PPNR7gY/H8XVjFlLrrU8R9R8yMALkW5lifq8/ZwE1fm05NeHEaEQm34CTgzN6fl6NQ4eoc/qvqOWiZSqrD9TASYXjY4R63fE28AZ0N/AWdM3xXsmdgu4KPl7HA3ic4HXHK+gujq8dNZ92/2WrQZDoQHmzDPkXLBHJna2cu/QuarxoKcq5O6kXrzMHz+9c1rnW8QL6ADo+BnhPx3uAj+SdLaEPNccr+A7wsRxfC4D1ANlb02bgI9q+6o9Ud/ZcAd61jsfrG0YtoO6H/mi8g8Sc3/qd+6gFr3EF7+d4P/CDntwBei5D18Af7o6vPR/1+E/W0KG9+wW8Q7191Hz9Orh8sczqPcCz29vGP0bUe1C+r+cAtV/3KDUj9Pu3bCX0VDpen989wSvoEryf4wF9FvmB93J8uODDS+5qzltETdespUMH+xW8xh8/RHUo30zobuB5nm+5YrV1svT1U9uNj8vGTYz1+FTN8Qp+GKFec7wB3R/84dTAqcFnNgBy/869Eh6SuZbJv6Da0QtVOecGvgHzd/uUJwVsHv27eqj16rVI8gBd9OmPnAsqIjlnmdAHw/HJrse7XFCBMF2L5/YX1gl4PHb8+j2qGTFblXNu4OvOmku7nnvPeAeSv+IGasZzQmqBxmeRBuB1+MmC1x2vgw+jnBPQ/cAL+DHA+zvegi/BW/CDhfrYjtddXwvw1QDY/cw7Bj64ducearr2Uao5a44r+PqR86kF83f/jj3GO4h2/eZ9Uc4lsx4/VC+oAPSZAnqyjg831McPXnd8Neb1hh8+SP3dnxsI4dyqVmrGHM3ga8+ZT7VjFlHduQuoFll9y01PUG9lq/FKnCSA33LlGmq8eJlcnXOCH2jHh1zORbLPZOixwYfveCf4WI6HYoDX4VfB7Z33/97AKEc/krTdf9pE7YtfoNZbf0nti14QXTt+XB/bUbqJpg2Xc4bidbwXeDt8B/gBKOcU9KDgU5/cOcEDeKKO5+9HzaPu/3jLQBls7Hz6HapHFGhE2Fd1vBf4mMndEHG8gi7BK+je4GcNsOODr8cr+A7wCj4/N3Iuta98hXrrOw2s7uNgYyd13v1b0bNvHLfCVs7FAh90jk/W8cLtAn4C4DXHR7LOnKGge4MH7MPY8VWYt+v+/R7qfPAPtPezItRxRk8eh54NRdS1CuH8snup7pwF1IBET8/qJXgLelDwdsdL6Kl0vIAe0PGRrBEzKFnwiTk+XvBJJHfI6Gvw3qrTZlD9d++jQ/t7JfMDB6nhBw9QzRkzqY7btz51fFKOB/iEkrsUNXAk9BDA644X0EMBH24Dh7t1DVesskHnli23bvVlWQs8gCcJ3u74BMAb0MN0fCTThB4YvH2OH0rlnILvAb56zEJquNIB/SoJ3VyW9WvgDDXwic7xkczhd1Cy4AX8ZMADdgm+LjztDio65XZD04WKTzV1B5XgeVOlCNWlp8+gMqGZVIYQzSo3NXwWVZgaMZsqoYqTp1Pdt+6iQ/ss6PXfvoeq8Nk1KPFqMPezuHavHTmP6pD9S82nehbqe1YDz/0sJH0NqPUbOfkbjYwfajI1ZjE1m7qQN2RY8D2TOz/wIYZ6CT0h8IAdINQHAo/vGXr97Geo+d7fUYvQq0qt9+EI8dHS76mNhVrc0n8LtbMekOowhSSu42ev0vb1f6NDB/skdBy3/+JN6sDndaE2V0JiJ/Un2u7UaqluodeUdqxhvW7pYamdUPfylyV0E/wAhXov8Bb0EMAn6vgCOLpltbWWfSSOXevfEFuwVKj3c7wNvgN8CC3bSIYOPQTwiTg+/8RptPOtDOOf58gcPR/kiVA/FMq5SMYZ0ymV4IM4Pv+kabTjf6ztTb1NXbRncwntTSunveleqrCph5URjyppn6nMYNpvUxXtz/IRfve+5m7jLwL0t7MldCO5G4j1eC/HS+hO8CPCBR/L8fknTrVBb3/q75R31AQqGj5TqHgEa5ZSyZms2UKlZ5maQ2Wss6XKkYyVj5xLFabw8yuQlFWaQkJWBVXz8VwckZDVsEabWki1SMhqkfHXopKoQ7lXdx6yfKieSzyI1+AbLpBqNMV77XnDxqkzadez7xp/kQO6Ad7ueHfwqXB8JN2EHorjEyvnBPS/WtA7nnmb8k+4TSR3pkqR5ZdyWWeoDBl/GZd1UDlKOymUcyxR1i2iSpR2om1rqArlHZd01aZQ0nHHTgllXa2pscuobuxypfpxLJRzkOjaCaGcY4mybiU1sYyyrmHkfNr9/AfGX8TQs5DRL/It5/RwHxh8Ao6PpJ8+ncIFb3e8gO8HHspzhT7VqOOtWl7W8VYtH6xzBwGws45XtTzX75Bq4Ghbr9y2Vweq478hN1ru0qDvZeiIHLKWt4MPtB4fYqgH9NspLPBZJ95GmcdOhCZR1rGTKeurrEmUjWP2sClCOazjbhXKNZT1z9fT9j9sMP55iNp+/jfK/qcbqAAnA6sQc77SydOo6GTU8YaKUdNLTacSiEN9dOfOAh+ocxcF3tpeHRS8G3Su44M0cBJyvAHdFbwj1EfSBPTkwWeddjtVz/wVdbz8oV2vSHW+8pFd/yXVBXX8+l3aV9li/PMgFObVUMdv3sNzHwtt/y3rE1d1/87Up0IN056iMkQTv86dF/gwHc+7cXa99JHxFwH6ezkCuurcxeF4HXwYjhfQkwWfCYcXX/EAqdWrQRy8obHqOz8zwDsdHxu87ngFPQHH18PpO3/1NvXv7hHa85etCrreslXQDfC641OV3EXS4FATvIQfP/gMhOzKqb80/tkHf9Re/6jI5t3neAu8gu8AH4rjcWy67F5q+dFD1PLjVdT8vftF2I+rV+/neD/wMRwP6NNIBy8cD9jxgM84bjJVTPm58U9O1LdrL3Vw2ObQzkcRyj+mToRpcTS/NtQljp+or4UQsnVt1/Uq61MpfNaO1zbRof3yIgUeNdestUEfFMdzmMfzfP2cuHZuHE6ChBdpJPSwHB/ZBuisKPBxOD59mB36/spmyjhmEmUcfYtI6kzJxE4qVnKXe/xtlIeyjUs3qamitHMmdwVfnSJKuj5tJ2vNNQ9TCRK6oFl9EPChZPUG9KDgU9XA0aDH6XitgZOODL18ynrjnxzQa1pFcpc9fIbI6r3KuaQWaYxSrhifUX7pndRnXNzAQ4duBx/D8XxiIEJUnDmbKln4mlVl6uy5VK2pZuQ8pdpRpuYL1Z3DWiCukq0/V0qsyo22JFbmxiwW4hq+6bzF1HzeEkvnL6GW85dSK6JEmI6PbD0V0FlJOD4dri2fbEHfV90qkzw8H6uOD9LAUdBdwLtBr/4poANaXOvxeE0VHN0851lqXfYStblp+UvUvvxlSytepo4Vr1haaX3dia+l/ou67nTort8KbVf6nVA3626pHYa673mVOsY/Tq2X3CnA6/ATBQ/oUylZ8Gke0LPOYOghNHAA28vxRficsktX2qHD6cXcog3awMHX3LbtRn4wFEdf+07quG4dtY0DeEdyl8gFFQZ0O3jXUO8DPg3hvUyHjpo744RbRQTgY+aJrNtE80bopNso+6SpQjkn4wjlnDyNclmnSOWdcjvlnSqVLzSd8k+bTgWmTr9DCvN7CSDqc3r1NWsAfZajc+fjeDxece58cR37UB3bl75MLRcsU3N8Mo6PbDnFhO7veAnfHXzasROpbNITxq9HdKCpi0quQ4j96RoqxbFMaa1Q+fWmHqEK1g2PUDnEx4rxjwpVCq2jyhvXUZXQo8ZxHVWzbmI9RlV4f920p6j/833GTyeqws8tRqQxocd0PD8G6PsL641PIOpt6KR9BXW0v7jBWyUNdKCkEeKjKf4+uHpZpbqa1GO8s8ccfPcrsQPHTO5UghcN3g7fAR6OF9CjwCvowRwvoGtOH+xRhfBeNIKdbvXpvcFb0Pdp0FsWv0BlJ0+nyjELqRLvrVJaRNV4vSneZVtzwRJ5RNSoRY5QCzh8rEOuwLts6y5aJm58VI+qQNwA6eLlKOWkuJxrREXAt0IRNzZk4bFmJG8Ha7UbK/Atz/g+OCE0cAD9NgE9qOPdwG9DeC+9eZ3x6w3+qLzyIQE98GZLPF6ObFuH3rrsRbH3juf7KsAUK3RQNQsgWTUsgGTVAqYQksE6IZR0UD2ASqFm57rdUCOgihU6iO9/04TyzlQznue7W/LdMMyhoDvLOSjecs6A7gHez/GAbYJPx2szkaB1/nkz9bZ20wFD/LVSGx93SLXZdaBlO/X3HDD+PKL+PfuoF485XxdEnS9+SMVI/kqQ8NlX53wcz49FQX+JyobPClzHJ9TAsdXxVg3PJwHX8U7o8o5XVh1vd7yEHsTxkc0n30YsN/DC7UEcPxxHJF9pSNCyzplD2axzWXMpx9TouZQ7ep7UmHmUJzRfKBvv7f6btoniuXcoB48VAEzhBZaKLlxEhRAfi/l40WIq1nXxEipEAsfQg22vNsAL6PPs4Z2dfgaczuVcQPChNXDwOB8P1rYbvw2gL3yBmjCN+DVwgiZ3DugS/NZ4HK+FenZ8GmftyNaVcCJkmMLPyUSmbioLPycLcNO/cCN1/Wmj8efBZb98gzLwWA5+Vi4y9Vz8DFae0B2Uh1Iw39TwGVSgqQjlnl7HxwaPUI952xM6wnk84ON3PIA7wXO4d0DvYujcrInZso0NHtBvFdCTcjyApzFwQM4aNRuaI5TNR+H8uYZkBFDuh3IRATJRum3XNlG0PfO2KOfyz5svVABYBedLFbJM55synM8q4C1W7PR4wAN66aho6KWAbmvg6PB9wCe7Hs89ew73rtAD9er9wUc2ncTQY4P3LefwuowzZ1DHaxvF/BwtzPE2WY/18hElnj6n933eIx6z5QQB1fnC+1Q0cg7Az3OAt+BL8Bb8Mn4MEUKH3rwU0JHIqQZOAMfb4CcT6vEcO94O/Xlq5Nas2asX8O3gAyV3JnQneD3Ue4HXQ/2WYyZQMerooTIqLn9QhnoTeizHK+jWfWoYesnpMzx79Sl1PB5n+Dr0TgF9cZyrc+7gFfRkHL/lK7dQyWSrOTPYo+LqNVSA+d6tV+96ffxofD/SHTpn93bwkA7dBXyyjhclnSv0RdGrcwK+B3gPx0c2njRFQXeC93W8gj6NtnwZ0Cc+bvx6siNXdO0aKrp6FRXjWHztw1TMHTpNpdetlbrerrIbWI8IlY83Jbt0FYgmprhTx6q4di3VTH2S+jElmKPiqtUiyfNapIlyvAv0xjnPUtFXJlEpcoRSlG5cvpWh9meVj5hN5WdK8YpcxVmsOUK8Kld59lyxIieEz+U7YlSPNISva1Aemqo9l7UAWkh1o1kL5LVz+PpgtdWcYegNgM4JXrLr8ZGNJ04hlhf4II7f/OWbqWTCY8avJ3vvW4+dhAgwQTRuhIZNorRhk6WOm0zpx02xdPwUyjj+VqVM7tefgPKPZfTrs0+cSjncq1c9e9mrz8H7CwCzb4d1U6GKn6yifGT5/suyGnw8VoI8QIfe+fTbVDdhPTXO+E9Dv1JqYs1kPS3UzJrFeoZaTM22q3X2s5ZwQrUJPUdtc5+jdqVfU/s8CM/xsa91h/Hb4PdZ8Btq4OVXAA8K3ms9XkH3dbwfeDfo1a2ilEvjcswo54SMXr1QSBdU5PHcfcky6ttpLbgI6Cj1/FbnbI6H2xg699OH6uhYBKfD/SZ0L/AKugHe7ngJPrLBhG7IC7yX49ntDL3YAd3M6t169Qq8gB8vePsFFblnREMvB3Su6YNuxGDoRWfOErtwh+roQPTgGyAlsgNHB8+KbDhhMiULftPRgH5LNPRtArq9gRMOeMvxuZi7C8cttUO/UkL3W49X8I1Qz736eoTsHoT4A7VtUHtg9bqpzpDze6UOT3H7Vf/689c2i/+WxMzqBXitbRskudPLOQndCd4n1LuB33T0TTboPRXNtOmLN9LGf7mBNn/pRqEtX7qJthwltZWFE4W1zRSSwTRTqAbSkQ+YykBJmHHMRCF5MYV1QUXmUTdTLk4OfU4vv/IhyuM1dwAPshFDgEdCx27na+Vt5Zxq17KMXr0hM6MXWf1Fjqz+4uisXs/oVVaPbN5WzqmM3srqxR2s8VpRwxtKxvEW9CQcL6Fbq2wH4bqWF96jluffo9YX349Sm6mXPpB60Thqahf6UOplFr4XR+1CChbe2/Xfn6lbivAoA/TcU29PYM8dhMeLz5knjqU810OleL4M4iy/DCrHlCC1kCpwYnDvno8VyK552xUv1YrtV3zkVTqomsUrdFCNqYuWynvZsnBi8CpdnSmcHPVCy9Udr1iuvXov8AK+HTw7PvKZDt0JPmA5txHOLZlklWyDPcpRskno8e+5U8kdZHM85O54OJ1lOl5r4HjV8crxkKrhVR0fsIETFLxLchf57PhJ9NnxPuAhL/Am/I0Iv7nfu2dIXOHSt7uHir+5gvKQ4CWy5045Pi7wzgYOoANwBerwcm7wcA+fa3VADquBEy943fGRTwV0SId+wpS4Hb8JtXfp7U9SC8J2y0usD6jVR20I220I2ayWZ98WeYA59uRWU+tz71D7KwjnSh8pmRdQOMUXUVROXk85SOKCbK9OpeMZeMPE9dSx7i/U+eifqRm1Pe/CGUzHm+AFdAU+Uccb4DciIdvwrzfQhi9IbfzCeKkvjkdiN542I7kTMhM7I7nbELmC2l/9xEBO1Ljuz7QRj3kmd1pixxdV6BdUcNNGr+NN8F6ODxe85fjSU6dTN05sc3z+Qa5wfHy9+tQ4PvLpcRJ6WI4XGb2R1UtZnTuv9fgtOFk6X7f+D7Xmp96kbcjK/cq5nADlnBN8ohdU+IN3v6Ci9LQ7qOtZ657zu/+eLqGnfI63oHuBB/SJ5A8e0sFDXuAt+C6dOwO8hG8HvwWAOxzQt5rQk6zjB8bx0durS0+Nhl42XO7EiQYv74KhFOX4cEN95BNAZ0WBTzK5iwc8h/jO13yghwBewI8B3t/xFnwJ3oLvFupLEN67tP9dYvebDugujg89ufNo4GjQ43R8wFDvBV4P9ZsBvUOD3vTEX2lT5GraZi7QmIs0x1uLNBm8SHOCsUiT4gsqClm8asctX0PFw1kzlUpGsGYJlZ45S6zQdT75pvEXGdB5+xVgBy3nUuX4yCfDAJ01aI6fJqFr4b3jDxso/7K7qfinq6n4mjVUYoiXaUuufdjSdfJiilRfUGGq5mbW40q1t7CeEKpjTTC1nmquWk07X99s/EVEuwCdb2s6EOvxscBHPh42wQHd3fE21+vgE3W8Dh1ZfOeftxj/PEfm2PVWhoCu6vgY4HXHK+ghOV5AV+AN+K7gU+h4Lufa/2jdaOhIHDv/tk3cxNis473uejUQjo98/FUJPX7HJ1bOuTl+y7BJVHDlA7Qnv0ZdKOEn3gCpf63kc0GFEL+mY6fVOcThYOcu470ur/fQQTe1u3wvtJP2FdUj/D9OZXwTQ62BM/CON6B/xNDjAR+y46XbkcEjUeMTIGPkLKlRsygTGXfmKEtZyLp5S3UiF1TwVupcfG7xD+6jfu1+76U/ul+UdPFcUFFi6mtLqBTllqmysaxlQuWscVKipEO1UI7P48w+GfBhOB7Qb6Gg4CV06XhP8Ek0cLbiNVvxnm0sfM1KE5oqN2SYwmszdOGkyTSFaiDr9OlK2Wew7hDirL7wG8tt0IsuXSm2YOWh9GPlC82ifJR/BaZQ+rEKTeEkEdusWTgRiwHUVAnKvxJepTNUivJPrM65NHAGzvEAroE3oHuA95vjEwTv63gW3C4TPHsDJ9mNGNn8ftT+BWMX26AXXrKUMo++RWy7Sq6Oj7+B4wVewfcBn0w5F/nwWABnxQAv4UeHes+sHooXfHQ5FwJ4fJ2BnCHv/PlUt+Il2vlBrm1O3/lhLtXf+TIVXLiQslHz52tNnFQ3cPzAezneBj/BUC+gC/BxOl4P9Z7gQ2zgJASenx82marmPk37tP9E323sr22n2gXPUQ7fyQohXUJPheOd4AF8gB0P6DcL6Eec43HkW501rnvdwBpstDzxV8rB3J+PuTs8x8cC73Q8pEN3AZ+M4yMfHMPQNfB+jlfQXcDr0EMs5zwdD9ie4EfIu2PULHneQClHf89+6vjdJ1Q14z9E967qjv/E9x9H/V+r9StfkqFeQR9cx3uB1x2voAdwvIAeF3iXUK873gIP6eAhL/BhO54vj84du4R6u3YbGOVmzeLL76f0L08QIV9cUME9/GMmUsnlD9A+7SZDB7s/R1a/QlwebYJPjeNjJXepcbyCroPXw3xyjneA93O8H3g/x7uA3/aVCdS4/q8GQkDc8TkVfvcesRHDmdXzyhxvxCj+3s8EbHO0PvkmZeGkGKz1+FQ6PvL+V25S0HXw4YV6B3jIC7yX44XbAzqea/h0PL8np9rAR9T85BtiU4ZXOSfAIwK0/PIN4x1Ee/NrKQ/P8fbqIOvxyYGX8L0db4FX8H3Ax0ruBHRf8JrrD4fkjm+MkDtuiXA3j0N9/VR81SqxLBtVzmngeVm29OrV4vU8eBt38bdWiv12ia7HK/iuod6CHwy8Fep18Ao+YAcN9Qr6+8dY4D90gvdzvAE+zFAfBLxXqN+GJDLv23eq/3CPkzQ+CdLxmX4NnCx8XsHXl1H/HpnUiZPl+/dSDq+3m9AH3fEW+CCh3svxkfdM6IZS4XhP8FAy4N0cz9Bzv7mc+vbImwke6j1IBd+9m9LxuCrnXMDzPXB4Xjdv2McnS/Fld0noKN9M8Ik43g7e6fjEQ70X+FiOj7z35ZvIBl5zfBR4P8cr6BZ4CT1xx0voHuAVdDt47tVnnD2TerT/HqR6+QviEipxpawbeIR3zuprl71ovENej8cLNjl4fSKbLRV0V/DxOh7A4wSvO15BN8AD+o0kFBR8AMcPdjnHN0lo//2nBj4kZUX1MsljtzvBA3oGfiY3c/Zq95zhu11xSZeLJG9g9twl7ngF3wHey/EW9BQ6XoHXoaewgbPlqxOp8OpVdKjfuuKG9+ClI4TzXvoMHDPwuoxT8B6+QBKf2fm6dUsz7s2XXb9WJHdBd9keTo6PvKugG0o1+JAdL9zudDzE98Fpe9m62IDH7vQyKrvtF5R9/nzKRNKXg2M5vt+dVma8Qo6O335CGXB5DqJArF22QZK7cMEnn9xF3j36RrKD16AbUtA18OE1cEK6oMLh+G0o3dLOuJ12fJpvoLQG77jhW6Tw0Tl2bSgSc3wWEjhZw8s6PlnH+4f6WODDbeAA+ngScoAPxfF+c7wNPKSDh7zAezk+ao5H+N7K26YxV3f84TMDqf/ofG0jZQMq390yG5DNzD5e8KlxfLLr8dYFFZF3TOhCOnhIBw95gtdc7wVewneAT3VyB/Ds+C3HTqTSyU/Q9rczqbdzl4FYDv6++90sKr/156KBk3nyNJHcOev4IOAF/Bjg/R1vwZfgLfjBQn1sx7Mi7xw1nmzgdehOx2vg42rgKOhxOj7R5M4Ar5I7HLcccwttHTaJcsYuoeIb1uIkWE8lOOZespTSADsNyV8mMny/Bk5Yjg831McPXkL3BQ95gD9sHM/g4XqGz82brXD+1mP4dmcTKR2fyeWcKONMJQk+fMc7wcdyPOQDPvL2UTdI6Dbw0cldYPBJON7meh18yA0cr9W5MMGnPrlzggfwgI4X0N3BJ+F4P/AG/IEo5zwdnzLw9tudpd7xwdfjFXwB/UsSelDH69C9svpkyznL8YO/A+dIdHzkf790PfmDj+H4w7WBo4MfwFCfmOPjBe+f3AnoscEHd7zM6p2JXXDwErp0vCf4kBo4gcGn0PECeijggzdwIv/7RQk9fsc7wEN28AEd7zfHJwh+6DjePscPlXIu8hZDjwf8IDRwPLN6KF7wR15yZ8EPGuoF9LjB69Cd5VyILVs91HuCD6uBk1LwgB0g1IfneCd4ANfAA/p1gM5KBvyNNrf7gv9/63g7+PAdHwu85fjIW1+woMcHPkYDJxVZvQ59sMu5EMAPluMjfwd01oA7Ps5QrzveAg/p4CEv8EPV8cknd7EcH53cWdBNmdCTcHwQ8Mk2cDzB+zneD7yf4/3AHxYNHDv4yN//9VpAZ+mODzm5g9zAhxfqHeAhL/BejhduH1DHD3Q5J+EL6G8COisavOZ6HbwB3xX8P8q5pBwv4McJXsF3DfUWfB28BV0Db4V6D/CJOl4L9YfzBRVDe46P7XhAv0ZA93Z8sqEe0sFDqXC8J3goGfCHi+Pt4J2Ot4OPvPEvDN0CLx2vJXcJgR+4ck5CT9zxEroHeAV9cB3vldwp6K7gvRy/kP4PFj9/rfbYxfgAAAAASUVORK5CYII=;" vertex="1" parent="1">
          <mxGeometry x="263.68000000000006" y="325" width="110" height="110" as="geometry" />
        </mxCell>
        <mxCell id="4ohFSgvwRZ63tA1tGF-L-48" style="rounded=0;orthogonalLoop=1;jettySize=auto;html=1;entryX=0;entryY=0.5;entryDx=0;entryDy=0;fontSize=16;" edge="1" parent="1" source="4ohFSgvwRZ63tA1tGF-L-42" target="4ohFSgvwRZ63tA1tGF-L-44">
          <mxGeometry relative="1" as="geometry">
            <mxPoint x="819.96" y="398" as="sourcePoint" />
            <mxPoint x="763.2399999999998" y="407.5" as="targetPoint" />
          </mxGeometry>
        </mxCell>
        <mxCell id="4ohFSgvwRZ63tA1tGF-L-49" style="rounded=0;orthogonalLoop=1;jettySize=auto;html=1;entryX=0;entryY=0.5;entryDx=0;entryDy=0;fontSize=16;exitX=1;exitY=0.5;exitDx=0;exitDy=0;" edge="1" parent="1" source="4ohFSgvwRZ63tA1tGF-L-44" target="4ohFSgvwRZ63tA1tGF-L-46">
          <mxGeometry relative="1" as="geometry">
            <mxPoint x="829.96" y="408" as="sourcePoint" />
            <mxPoint x="967.46" y="407.5" as="targetPoint" />
          </mxGeometry>
        </mxCell>
        <mxCell id="4ohFSgvwRZ63tA1tGF-L-50" value="AWS Step Function" style="rounded=0;whiteSpace=wrap;html=1;fontColor=none;strokeColor=none;fontSize=16;fillColor=none;fontStyle=1" vertex="1" parent="1">
          <mxGeometry x="306.9599999999999" y="280" width="250" height="30" as="geometry" />
        </mxCell>
        <mxCell id="4ohFSgvwRZ63tA1tGF-L-51" value="Event (time-based)" style="rounded=0;whiteSpace=wrap;html=1;fontColor=none;strokeColor=none;fontSize=16;fillColor=none;fontStyle=0" vertex="1" parent="1">
          <mxGeometry x="397.5000000000001" y="330" width="160" height="30" as="geometry" />
        </mxCell>
        <mxCell id="4ohFSgvwRZ63tA1tGF-L-52" value="Event (event-based)" style="rounded=0;whiteSpace=wrap;html=1;fontColor=none;strokeColor=none;fontSize=16;fillColor=none;fontStyle=0" vertex="1" parent="1">
          <mxGeometry x="710.74" y="330" width="160" height="30" as="geometry" />
        </mxCell>
        <mxCell id="4ohFSgvwRZ63tA1tGF-L-53" value="Event (event-based)" style="rounded=0;whiteSpace=wrap;html=1;fontColor=none;strokeColor=none;fontSize=16;fillColor=none;fontStyle=0" vertex="1" parent="1">
          <mxGeometry x="914.96" y="330" width="160" height="30" as="geometry" />
        </mxCell>
        <mxCell id="4ohFSgvwRZ63tA1tGF-L-54" value="Event (event-based)" style="rounded=0;whiteSpace=wrap;html=1;fontColor=none;strokeColor=none;fontSize=16;fillColor=none;fontStyle=0" vertex="1" parent="1">
          <mxGeometry x="1267.46" y="330" width="160" height="30" as="geometry" />
        </mxCell>
      </root>
    </mxGraphModel>
  </diagram>
</mxfile>
